<svg id="Layer_2" viewBox="0 0 512 512" xmlns="http://www.w3.org/2000/svg" xmlns:xlink="http://www.w3.org/1999/xlink" data-name="Layer 2"><linearGradient id="linear-gradient" gradientUnits="userSpaceOnUse" x1="29.29" x2="482.71" y1="29.29" y2="482.71"><stop offset=".1" stop-color="#ffc05c"/><stop offset=".5" stop-color="#ff4200"/><stop offset=".61" stop-color="#ed3d00"/><stop offset=".83" stop-color="#bf3100"/><stop offset=".9" stop-color="#b02d00"/></linearGradient><radialGradient id="radial-gradient" cx="341.5" cy="201.8" fx="341.5" fy="201.8" gradientUnits="userSpaceOnUse" r="62.95"><stop offset=".75" stop-color="#fff"/><stop offset=".82" stop-color="#fafafa"/><stop offset=".89" stop-color="#eee"/><stop offset=".96" stop-color="#d9d9d9"/><stop offset="1" stop-color="#ccc"/></radialGradient><radialGradient id="radial-gradient-2" cx="341.5" cy="201.8" fx="341.5" fy="201.8" gradientUnits="userSpaceOnUse" r="42.27"><stop offset="0" stop-color="#9e2424"/><stop offset=".23" stop-color="#952424"/><stop offset=".6" stop-color="#7c2525"/><stop offset="1" stop-color="#5b2828"/></radialGradient><radialGradient id="radial-gradient-3" cx="170.44" cy="201.8" fx="170.44" fy="201.8" r="62.95" xlink:href="#radial-gradient"/><radialGradient id="radial-gradient-4" cx="170.44" cy="201.8" fx="170.44" fy="201.8" r="42.27" xlink:href="#radial-gradient-2"/><linearGradient id="linear-gradient-2" gradientUnits="userSpaceOnUse" x1="332.39" x2="332.39" y1="168.04" y2="101.78"><stop offset="0" stop-color="#5b2828"/><stop offset=".4" stop-color="#7c2525"/><stop offset=".77" stop-color="#952424"/><stop offset="1" stop-color="#9e2424"/></linearGradient><linearGradient id="linear-gradient-3" x1="179.54" x2="179.54" xlink:href="#linear-gradient-2" y1="168.04" y2="101.78"/><radialGradient id="radial-gradient-5" cx="255.97" cy="337.08" gradientUnits="userSpaceOnUse" r="57.78"><stop offset="0" stop-color="#7a3535"/><stop offset="1" stop-color="#5b2121"/></radialGradient><g id="Icon"><g id="_52" data-name="52"><rect fill="url(#linear-gradient)" height="512" rx="100" width="512"/><g id="Eyes"><g id="EyeLeft"><circle cx="341.5" cy="201.8" fill="url(#radial-gradient)" r="62.95"/><circle cx="341.5" cy="201.8" fill="url(#radial-gradient-2)" r="42.27"/><circle cx="321.46" cy="222.49" fill="#fff" r="21.8"/></g><g id="EyeLeft-2" data-name="EyeLeft"><circle cx="170.44" cy="201.8" fill="url(#radial-gradient-3)" r="62.95"/><circle cx="170.44" cy="201.8" fill="url(#radial-gradient-4)" r="42.27"/><circle cx="190.47" cy="222.49" fill="#fff" r="21.8"/></g></g><g id="Eyebrows"><path d="m389.96 115.11c4.16 11.54-4.73 23.63-16.99 23.04-11.18-.55-24.63.39-37.91 5.17-13.28 4.79-24.23 12.66-32.48 20.21-9.05 8.28-23.62 4.65-27.78-6.89-1.9-5.28-1.14-11.18 2.11-15.75 6.42-9.01 20.03-23.43 45.51-32.62s45.16-6.77 55.85-3.94c5.43 1.44 9.78 5.49 11.68 10.77z" fill="url(#linear-gradient-2)"/><path d="m121.97 115.11c-4.16 11.54 4.73 23.63 16.99 23.04 11.18-.55 24.63.39 37.91 5.17 13.28 4.79 24.23 12.66 32.48 20.21 9.05 8.28 23.62 4.65 27.78-6.89 1.9-5.28 1.14-11.18-2.11-15.75-6.42-9.01-20.03-23.43-45.51-32.62s-45.16-6.77-55.85-3.94c-5.43 1.44-9.78 5.49-11.68 10.77z" fill="url(#linear-gradient-3)"/></g><path d="m178.7 352.66c.66-9.43 23.51-42.05 77.27-42.05s76.61 32.62 77.27 42.05c.59 8.46-5.22 12.02-12.35 10.56-7.12-1.46-24.65-17.92-64.92-17.92s-57.8 16.47-64.92 17.92c-7.12 1.46-12.94-2.1-12.35-10.56z" fill="url(#radial-gradient-5)"/></g></g></svg>