<svg id="Layer_2" viewBox="0 0 512 512" xmlns="http://www.w3.org/2000/svg" xmlns:xlink="http://www.w3.org/1999/xlink" data-name="Layer 2"><linearGradient id="linear-gradient" gradientUnits="userSpaceOnUse" x1="29.29" x2="482.71" y1="29.29" y2="482.71"><stop offset=".1" stop-color="#fff1ab"/><stop offset=".4" stop-color="#ffda24"/><stop offset=".51" stop-color="#ffc81d"/><stop offset=".74" stop-color="#ff9a0c"/><stop offset=".9" stop-color="#f70"/></linearGradient><radialGradient id="radial-gradient" cx="256" cy="344.92" gradientUnits="userSpaceOnUse" r="76.61"><stop offset="0" stop-color="#614444"/><stop offset=".38" stop-color="#583c3c"/><stop offset="1" stop-color="#402828"/></radialGradient><radialGradient id="radial-gradient-2" cx="346.35" cy="192.86" fx="346.35" fy="192.86" gradientUnits="userSpaceOnUse" r="61.13"><stop offset=".75" stop-color="#fff"/><stop offset=".82" stop-color="#fafafa"/><stop offset=".89" stop-color="#eee"/><stop offset=".96" stop-color="#d9d9d9"/><stop offset="1" stop-color="#ccc"/></radialGradient><radialGradient id="radial-gradient-3" cx="346.35" cy="192.86" fx="346.35" fy="192.86" gradientUnits="userSpaceOnUse" r="39.7"><stop offset="0" stop-color="#705454"/><stop offset=".27" stop-color="#674c4c"/><stop offset=".71" stop-color="#4e3838"/><stop offset="1" stop-color="#3b2828"/></radialGradient><radialGradient id="radial-gradient-4" cx="166.65" fx="166.65" xlink:href="#radial-gradient-2"/><radialGradient id="radial-gradient-5" cx="166.65" fx="166.65" xlink:href="#radial-gradient-3"/><linearGradient id="linear-gradient-2" gradientUnits="userSpaceOnUse" x1="285.22" x2="400.22" y1="87.36" y2="87.36"><stop offset="0" stop-color="#3b2828"/><stop offset="1" stop-color="#705454"/></linearGradient><linearGradient id="linear-gradient-3" x1="111.78" x2="226.78" xlink:href="#linear-gradient-2" y1="87.36" y2="87.36"/><g id="Icon"><g id="_19" data-name="19"><rect fill="url(#linear-gradient)" height="512" rx="100" width="512"/><path d="m358.45 324.26c-.87 12.5-31.17 55.75-102.45 55.75s-101.57-43.25-102.45-55.75c-.78-11.22 6.92-15.94 16.37-14.01 9.44 1.93 32.69 23.76 86.07 23.76s76.63-21.83 86.07-23.76 17.16 2.78 16.37 14.01z" fill="url(#radial-gradient)"/><g id="Eyes"><g id="EyeLeft"><circle cx="346.35" cy="192.86" fill="url(#radial-gradient-2)" r="61.13"/><circle cx="346.35" cy="192.86" fill="url(#radial-gradient-3)" r="39.7"/><circle cx="365.57" cy="173.63" fill="#fff" r="20.48"/></g><g id="EyeRigjt"><circle cx="166.65" cy="192.86" fill="url(#radial-gradient-4)" r="61.13"/><circle cx="166.65" cy="192.86" fill="url(#radial-gradient-5)" r="39.7"/><circle cx="185.87" cy="173.63" fill="#fff" r="20.48"/></g></g><g id="Eyebrows"><path d="m400.22 93.04c0 11.52-11.71 19.38-22.35 14.94-9.71-4.05-21.89-7.51-35.15-7.51s-25.44 3.46-35.15 7.51c-10.64 4.43-22.35-3.42-22.35-14.94 0-5.27 2.55-10.24 6.89-13.24 8.54-5.91 25.16-14.32 50.61-14.32s42.07 8.41 50.61 14.32c4.34 3 6.89 7.97 6.89 13.24z" fill="url(#linear-gradient-2)"/><path d="m111.78 93.04c0 11.52 11.71 19.38 22.35 14.94 9.71-4.05 21.89-7.51 35.15-7.51s25.44 3.46 35.15 7.51c10.64 4.43 22.35-3.42 22.35-14.94 0-5.27-2.55-10.24-6.89-13.24-8.54-5.91-25.16-14.32-50.61-14.32s-42.07 8.41-50.61 14.32c-4.34 3-6.89 7.97-6.89 13.24z" fill="url(#linear-gradient-3)"/></g></g></g></svg>