<svg id="Layer_2" viewBox="0 0 512 512" xmlns="http://www.w3.org/2000/svg" xmlns:xlink="http://www.w3.org/1999/xlink" data-name="Layer 2"><linearGradient id="linear-gradient" gradientUnits="userSpaceOnUse" x1="29.29" x2="482.71" y1="29.29" y2="482.71"><stop offset=".1" stop-color="#fff1ab"/><stop offset=".4" stop-color="#ffda24"/><stop offset=".51" stop-color="#ffc81d"/><stop offset=".74" stop-color="#ff9a0c"/><stop offset=".9" stop-color="#f70"/></linearGradient><radialGradient id="radial-gradient" cx="256" cy="335" gradientUnits="userSpaceOnUse" r="105.54"><stop offset="0" stop-color="#614444"/><stop offset=".38" stop-color="#583c3c"/><stop offset="1" stop-color="#402828"/></radialGradient><linearGradient id="linear-gradient-2" gradientUnits="userSpaceOnUse" x1="256.06" x2="256.06" y1="412.61" y2="345.71"><stop offset="0" stop-color="#ff6a00"/><stop offset=".99" stop-color="#ffa227"/></linearGradient><linearGradient id="linear-gradient-3" gradientUnits="userSpaceOnUse" x1="256" x2="256" y1="301.74" y2="257.39"><stop offset=".65" stop-color="#fff"/><stop offset=".75" stop-color="#f6f6f6"/><stop offset=".9" stop-color="#ddd"/><stop offset="1" stop-color="#ccc"/></linearGradient><radialGradient id="radial-gradient-2" cx="346.35" cy="172.86" fx="346.35" fy="172.86" gradientUnits="userSpaceOnUse" r="61.13"><stop offset=".75" stop-color="#fff"/><stop offset=".82" stop-color="#fafafa"/><stop offset=".89" stop-color="#eee"/><stop offset=".96" stop-color="#d9d9d9"/><stop offset="1" stop-color="#ccc"/></radialGradient><radialGradient id="radial-gradient-3" cx="346.35" cy="172.86" fx="346.35" fy="172.86" gradientUnits="userSpaceOnUse" r="39.7"><stop offset="0" stop-color="#705454"/><stop offset=".27" stop-color="#674c4c"/><stop offset=".71" stop-color="#4e3838"/><stop offset="1" stop-color="#3b2828"/></radialGradient><radialGradient id="radial-gradient-4" cx="166.65" fx="166.65" xlink:href="#radial-gradient-2"/><radialGradient id="radial-gradient-5" cx="166.65" fx="166.65" xlink:href="#radial-gradient-3"/><linearGradient id="linear-gradient-4" gradientUnits="userSpaceOnUse" x1="155.92" x2="155.92" y1="104.5" y2="52.33"><stop offset="0" stop-color="#3b2828"/><stop offset="1" stop-color="#705454"/></linearGradient><linearGradient id="linear-gradient-5" x1="356.08" x2="356.08" xlink:href="#linear-gradient-4" y1="104.5" y2="52.33"/><g id="Icon"><g id="_01" data-name="01"><rect fill="url(#linear-gradient)" height="512" rx="100" width="512"/><g id="Mouth"><path d="m156.22 257.39h199.57c15.3 0 27.72 12.42 27.72 27.72v.49c0 70.1-56.91 127.01-127.01 127.01h-.49c-70.37 0-127.5-57.13-127.5-127.5 0-15.3 12.42-27.72 27.72-27.72z" fill="url(#radial-gradient)"/><path d="m334.8 385.61c-21.58 16.91-48.76 27-78.31 27h-.49c-29.69 0-57-10.14-78.67-27.16 17.79-24.1 46.41-39.74 78.67-39.74s61.01 15.7 78.8 39.9z" fill="url(#linear-gradient-2)"/><path d="m369.64 261.11v7.37c0 18.36-14.89 33.26-33.26 33.26h-160.76c-18.37 0-33.26-14.9-33.26-33.26v-7.37c4.08-2.36 8.81-3.71 13.86-3.71h199.57c5.04 0 9.78 1.35 13.86 3.71z" fill="url(#linear-gradient-3)"/></g><g id="Eyes"><g id="EyeLeft"><circle cx="346.35" cy="172.86" fill="url(#radial-gradient-2)" r="61.13"/><circle cx="346.35" cy="172.86" fill="url(#radial-gradient-3)" r="39.7"/><circle cx="365.57" cy="153.63" fill="#fff" r="20.48"/></g><g id="EyeRigjt"><circle cx="166.65" cy="172.86" fill="url(#radial-gradient-4)" r="61.13"/><circle cx="166.65" cy="172.86" fill="url(#radial-gradient-5)" r="39.7"/><circle cx="185.87" cy="153.63" fill="#fff" r="20.48"/></g></g><g id="Eyebrows"><path d="m99.29 91.11c2 11.35 14.9 17.05 24.61 10.84 8.86-5.67 20.25-11.2 33.31-13.5s25.66-1.01 35.92 1.29c11.25 2.52 21.42-7.25 19.42-18.6-.92-5.19-4.29-9.64-9.08-11.85-9.44-4.34-27.27-9.73-52.33-5.32s-39.97 15.59-47.36 22.89c-3.75 3.71-5.4 9.04-4.48 14.24z" fill="url(#linear-gradient-4)"/><path d="m412.71 91.11c-2 11.35-14.9 17.05-24.61 10.84-8.86-5.67-20.25-11.2-33.31-13.5s-25.66-1.01-35.92 1.29c-11.25 2.52-21.42-7.25-19.42-18.6.92-5.19 4.29-9.64 9.08-11.85 9.44-4.34 27.27-9.73 52.33-5.32 25.06 4.42 39.97 15.59 47.36 22.89 3.75 3.71 5.4 9.04 4.48 14.24z" fill="url(#linear-gradient-5)"/></g></g></g></svg>