<svg id="Calque_3" data-name="Calque 3" xmlns="http://www.w3.org/2000/svg" xmlns:xlink="http://www.w3.org/1999/xlink" viewBox="0 0 200.04 199.85"><defs><style>.cls-1,.cls-10,.cls-11,.cls-12,.cls-13,.cls-14,.cls-15,.cls-16,.cls-17,.cls-18,.cls-19,.cls-5,.cls-6,.cls-7,.cls-8,.cls-9{fill:none;}.cls-2{clip-path:url(#clip-path);}.cls-3{fill:#f5f4f5;}.cls-4{fill:#ebebeb;}.cls-5{stroke:#77b82a;}.cls-10,.cls-11,.cls-12,.cls-13,.cls-14,.cls-15,.cls-16,.cls-17,.cls-18,.cls-19,.cls-5,.cls-6,.cls-7,.cls-8,.cls-9{stroke-miterlimit:10;stroke-width:0.75px;}.cls-10,.cls-11,.cls-12,.cls-13,.cls-14,.cls-15,.cls-16,.cls-17,.cls-18,.cls-19,.cls-6,.cls-7,.cls-8,.cls-9{stroke:#3a1f4f;}.cls-7{stroke-dasharray:2.96 2.96;}.cls-8{stroke-dasharray:3.11 3.11;}.cls-9{stroke-dasharray:2.96 2.96;}.cls-10{stroke-dasharray:2.97 2.97;}.cls-11{stroke-dasharray:2.97 2.97;}.cls-12{stroke-dasharray:3.11 3.11;}.cls-13{stroke-dasharray:3.11 3.11;}.cls-14{stroke-dasharray:2.96 2.96;}.cls-15{stroke-dasharray:2.7 2.7;}.cls-16{stroke-dasharray:2.94 2.94;}.cls-17{stroke-dasharray:2.9 2.9;}.cls-18{stroke-dasharray:3.07 3.07;}.cls-19{stroke-dasharray:2.79 2.79;}.cls-20{fill:#86812b;}.cls-21{fill:#939031;}.cls-22{fill:#a7a73a;}.cls-23{fill:#f5f5ec;}.cls-24{fill:#31a137;}.cls-25{fill:#ad191b;}.cls-26{fill:#c93838;}.cls-27{fill:#e94545;}.cls-28{fill:#df201d;}</style><clipPath id="clip-path" transform="translate(-0.16 -0.51)"><rect class="cls-1" x="-0.12" y="0.12" width="200.24" height="200.17" rx="15"/></clipPath></defs><title>img-suivi-2</title><g class="cls-2"><g id="Calque_1" data-name="Calque 1"><rect class="cls-3" width="199.96" height="199.78"/><path class="cls-4" d="M119.61,12.2h33.12v-.13a11.16,11.16,0,0,0-.09-1.42h-33Z" transform="translate(-0.16 -0.51)"/><path class="cls-4" d="M200.2,49V43.7l-18.1-.21v-19h-3.27V43.45l-17.07-.19L116.57,22.41,116.62,12a1.37,1.37,0,0,0-.26-.77c-.72-1-2.71-1.65-5-1.65a9,9,0,0,0-3.7.7c-1,.46-1.54,1.06-1.54,1.7L106,42.6l-13.3-.16L90.92,6.57H196a22.51,22.51,0,0,0-2.4-1.51H90.85L90.62.55H79.18l.54,10.53H32.15L32.28.55H27.94l-1.67,0-.46,0L24.56.64l-.43,0L22.69.78h-.17C22,.84,21.4.9,20.84,1L20.7,12.83.16,22.3v2.14L20.68,15l-.33,26.61L.16,41.36v5.27l20.12.24L20,65.68H.16v1.51H20l-.23,18H.16v1.51H19.79l-.28,22.42L.16,100.18v2.14l19.33,8.92-.11,9.31L2.66,120,.16,107.22v18l19.14.64-.24,20L.16,147v5.32l21-1.24v12l-20.95,1v1.52l21-1v11l-20.95,1V182l27.54-1.34-3.41,19.6c.56,0,1.11.06,1.68.08h.2l1.77,0h6.82l1.38-7.89L80,190.17l1.23,10.19H84.5L83.24,190l23-1.21,2.85,11.57h10.46a1.82,1.82,0,0,0,0-.33l-5.82-23.61,8.76-.43,2.77,12.29a1.33,1.33,0,0,0,.23.5c.7,1,2.67,1.64,4.89,1.66l19,.12,2,9.8h10.5l-2.5-12.4a1.43,1.43,0,0,0-.24-.54c-.7-1-2.68-1.65-4.89-1.66l-19-.12-2.3-10.16,21-1,25.89,12.24-8.52,13.67h1.14c.77,0,1.54,0,2.3-.05L192,172.58l4.12-.2,2.69,19.18a8.2,8.2,0,0,0,1-1.93s0,0,0,0a8,8,0,0,0,.25-.93,1.1,1.1,0,0,0,0-.18,5.87,5.87,0,0,0,.09-.94V162.69L197.14,167,159,168.89l0-11.43,35.27-.22,6,4.24v-9.7L194,147.4l6.16-19.68V90.9l-16.61-.5.78-18.64H200.2V70.25H184.44L185,56.6H200.2V55.09H185.08l.27-6.28Zm-25.31-.29-.6,14.09H138.12l-.82-14.54Zm-66.14,94c.72,1,2.84,1.68,5.14,1.65l33.59-.5,0,7.6-48.65,14.2-2.06-41.15h31l.9,14.8-15.17.23c-2.88,0-5.14,1.16-5.05,2.48A1.51,1.51,0,0,0,108.75,142.66Zm22.34-18.2h16.33l.05,14.52-15.5.23Zm16.42,28.74.05,16.25-48.41,2.38-.22-4.46ZM147.42,123H96.72l-.31-7.86,51.2.15ZM125.78,111,125.15,94l22.2.66,0,16.47Zm9.15-46.72.87,15H117.68l-.4-15Zm-17.69-1.51L116.85,48l17.17.2.83,14.58Zm18.64,18.06.46,8.16-18.42-.55-.19-7.61Zm-19.32-56.3L157,43.2l-40.53-.48ZM106.55,91a1.33,1.33,0,0,0,.29.8c.74,1,2.73,1.74,5.07,1.8l10,.3.64,17.15-26.38-.07L93.8,64.29h12Zm-1.14-43.08.39,14.91H93.73L93,47.72ZM87.74,172.39l-12.26.6c-.18-3.1-.44-8.15-.74-14.1H87.08Zm-.74-15H74.66c-.27-5.29-.57-11.2-.86-17H86.15ZM83.3,83.21l-23.57.14-1.16-4.41H83.09ZM83,77.43H58.16l-1-3.81,6-5.4H82.55ZM56.44,70.94,53.08,58.33H70.46Zm26-4.23H64.82l9.32-8.38h7.92ZM82,56.82H52.68l-2.55-9.6,31.4.37ZM32.13,12.59H79.78l1.49,29.72-49.49-.59ZM31.72,47l15.1.18,2.56,9.64H31.6Zm-.15,11.33H49.79l4,15-.05,0h.06l1.08,4H31.33Zm-.25,20.61H55.26l1.18,4.43-25.18.15Zm-.12,9.41L83.55,88l.38,7.67H31.12Zm-.11,8.87H84l2.06,41.61H73.72c-.78-15.65-1.51-30.33-1.53-30.61a1.26,1.26,0,0,0-.26-.69c-.72-1-2.76-1.69-5.09-1.66-2.88,0-5.16,1.14-5.1,2.47,0,0,.43,8.82,1,19.36L30.9,113ZM64.37,161l-22.6,1.09V149.85l22-1.3C64,153,64.18,157.19,64.37,161ZM30.88,115.15l31.93,14.74c.22,4.4.45,9,.67,13.36h0l-32.74-15.1Zm-.19,15.12,28.65,13.22L30.5,145.2Zm-6.3,20.61,14.11-.83v12.21l-14.11.68Zm0,13.58,40.06-1.94c.24,4.64.45,8.51.59,11l-40.65,2Zm12,26.47,1.88-10.82,40.25-2,1.26,10.52Zm46.66-2.45L81.79,178l21.57-1.06,2.55,10.37ZM180.84,185l-22.78-10.77,30.41-1.49ZM159,156l-.08-27.47,11.71.68.83,26.71Zm11.6-31.66-11.69-.68-.05-12.11,13,.27Zm1.4-14L158.82,110l0-8.48,14,.24Zm1-10L158.79,100V95l14.65.44Zm.19-10.14-19.43-.58,20-12.93Zm-23.27-.69-10.24-.31-1.42-24.8h36l-.41,9.62Zm24.83,66.45-.82-26.5,14,.81-5.46,17.46a1.32,1.32,0,0,0,.23,1.21,2.74,2.74,0,0,0,.62.6l8.87,6.31Zm14.68-30.47-15.55-.9,1.25-12.64,18.41.39ZM194,110.73l-18.72-.4.84-8.54,20.57.34Zm4.57-14.59-1.41,4.49-20.89-.35.47-4.79Z" transform="translate(-0.16 -0.51)"/></g><g id="Calque_2" data-name="Calque 2"><polyline class="cls-5" points="26.27 0.07 24.31 148.27 67.74 146.08 69.66 175.69 152.66 172.58 151.81 113.18 89.77 112.99 87.63 63.46 111.38 63.27 112.66 90.51 177.47 91.97 178.54 45.54 86.56 44.81 83.35 0.03"/><line class="cls-6" x1="26.27" y1="0.07" x2="26.25" y2="1.57"/><line class="cls-7" x1="26.21" y1="4.54" x2="24.35" y2="145.29"/><polyline class="cls-6" points="24.33 146.77 24.31 148.27 25.81 148.2"/><line class="cls-8" x1="28.92" y1="148.04" x2="64.68" y2="146.23"/><polyline class="cls-6" points="66.24 146.16 67.74 146.08 67.83 147.58"/><line class="cls-9" x1="68.03" y1="150.53" x2="69.47" y2="172.72"/><polyline class="cls-6" points="69.56 174.19 69.66 175.69 71.16 175.64"/><line class="cls-10" x1="74.12" y1="175.52" x2="149.68" y2="172.7"/><polyline class="cls-6" points="151.16 172.64 152.66 172.58 152.64 171.09"/><line class="cls-11" x1="152.6" y1="168.12" x2="151.85" y2="116.16"/><polyline class="cls-6" points="151.83 114.68 151.81 113.18 150.31 113.17"/><line class="cls-12" x1="147.2" y1="113.16" x2="92.82" y2="113"/><polyline class="cls-6" points="91.27 113 89.77 112.99 89.71 111.5"/><line class="cls-13" x1="89.57" y1="108.39" x2="87.76" y2="66.51"/><polyline class="cls-6" points="87.7 64.95 87.63 63.46 89.13 63.45"/><line class="cls-14" x1="92.09" y1="63.42" x2="108.39" y2="63.3"/><polyline class="cls-6" points="109.88 63.28 111.38 63.27 111.45 64.77"/><line class="cls-15" x1="111.57" y1="67.47" x2="112.53" y2="87.66"/><polyline class="cls-6" points="112.59 89.01 112.66 90.51 114.16 90.54"/><line class="cls-16" x1="117.1" y1="90.61" x2="174.5" y2="91.91"/><polyline class="cls-6" points="175.97 91.94 177.47 91.97 177.51 90.47"/><line class="cls-17" x1="177.58" y1="87.58" x2="178.48" y2="48.49"/><polyline class="cls-6" points="178.51 47.04 178.54 45.54 177.04 45.53"/><line class="cls-18" x1="173.98" y1="45.51" x2="89.6" y2="44.84"/><polyline class="cls-6" points="88.06 44.82 86.56 44.81 86.45 43.31"/><line class="cls-19" x1="86.26" y1="40.53" x2="83.56" y2="2.92"/><line class="cls-6" x1="83.46" y1="1.52" x2="83.35" y2="0.03"/><path class="cls-20" d="M27.72,141.93c-.16-.1-6.37,0-6.57,0s-.33.5-.22.54,7,.19,7.06.08A.65.65,0,0,0,27.72,141.93Z" transform="translate(-0.16 -0.51)"/><path class="cls-21" d="M28,141.9l-.23,0c-.73-.06-6.33,0-6.51,0h0a1.3,1.3,0,0,0-.34,0c-.12.05-.58.58-.34.81s1.75-.26.43-.27c-.06,0,.12-.42.26-.44h0c.83,0,6.19,0,6.26,0h0l0,0c.05.05.28.4.18.4-1.32.1.37.5.5.24A1,1,0,0,0,28,141.9Z" transform="translate(-0.16 -0.51)"/><path class="cls-22" d="M20.93,142.5c.11.35.2,3.51.6,3.61a41.7,41.7,0,0,0,5.7,0c.37-.15.8-3.61.66-3.61Z" transform="translate(-0.16 -0.51)"/><path class="cls-21" d="M20.59,142.72a28.79,28.79,0,0,0,4,.05c1.94,0,3.6.16,3.73-.1s-.4-.24-.5-.24c-1.32.1-5.47,0-6.79,0C21,142.45,20.35,142.49,20.59,142.72Z" transform="translate(-0.16 -0.51)"/><path class="cls-23" d="M25.17,145.46a1.74,1.74,0,0,1-1.52-.13c-1-.68-.56-1.92.63-2.11A1.21,1.21,0,0,1,25.17,145.46Z" transform="translate(-0.16 -0.51)"/><polygon class="cls-24" points="23.08 144.22 23.89 144.83 25.44 143.41 25.02 143.19 23.89 144.61 23.41 143.95 23.08 144.22"/><path class="cls-20" d="M56.25,145.74c-.17-.1-6.38,0-6.58,0s-.33.5-.22.54,7,.18,7.06.08A.66.66,0,0,0,56.25,145.74Z" transform="translate(-0.16 -0.51)"/><path class="cls-21" d="M56.53,145.71a.56.56,0,0,0-.23,0c-.73-.06-6.33,0-6.51,0h0a1,1,0,0,0-.34,0c-.12.05-.58.58-.34.8s1.75-.25.43-.26c-.06,0,.13-.42.26-.44h.06c.83,0,6.19,0,6.25,0h0l0,0c.05,0,.28.41.19.41-1.33.1.36.5.49.24A1,1,0,0,0,56.53,145.71Z" transform="translate(-0.16 -0.51)"/><path class="cls-22" d="M49.45,146.31c.12.35.2,3.51.6,3.61a41.7,41.7,0,0,0,5.7,0c.37-.15.8-3.61.66-3.61Z" transform="translate(-0.16 -0.51)"/><path class="cls-21" d="M49.11,146.52a26.24,26.24,0,0,0,4,.06c1.94,0,3.6.16,3.73-.1s-.4-.24-.49-.24c-1.33.1-5.48,0-6.8,0C49.48,146.26,48.87,146.3,49.11,146.52Z" transform="translate(-0.16 -0.51)"/><path class="cls-23" d="M53.69,149.27a1.78,1.78,0,0,1-1.52-.13c-1-.68-.56-1.92.64-2.11A1.21,1.21,0,0,1,53.69,149.27Z" transform="translate(-0.16 -0.51)"/><polygon class="cls-24" points="51.6 148.02 52.41 148.64 53.96 147.22 53.54 146.99 52.42 148.41 51.93 147.76 51.6 148.02"/><path class="cls-20" d="M71.4,156.41c-.17-.11-6.38,0-6.58,0s-.32.5-.22.53,7,.19,7.06.08A.62.62,0,0,0,71.4,156.41Z" transform="translate(-0.16 -0.51)"/><path class="cls-21" d="M71.69,156.37l-.24,0c-.72-.06-6.33,0-6.51,0h0a1.3,1.3,0,0,0-.34,0c-.12.05-.57.58-.34.81s1.76-.26.43-.27c0,0,.13-.42.26-.44H65c.83,0,6.19,0,6.26,0h0l0,0c0,.05.28.4.19.41-1.32.09.36.49.49.23A1,1,0,0,0,71.69,156.37Z" transform="translate(-0.16 -0.51)"/><path class="cls-22" d="M64.6,157c.12.35.2,3.51.6,3.61a40.16,40.16,0,0,0,5.7,0c.37-.15.81-3.61.67-3.61Z" transform="translate(-0.16 -0.51)"/><path class="cls-21" d="M64.26,157.19a29,29,0,0,0,4,.05c1.93,0,3.59.16,3.72-.1s-.4-.24-.49-.23c-1.32.09-5.47,0-6.8,0C64.63,156.92,64,157,64.26,157.19Z" transform="translate(-0.16 -0.51)"/><path class="cls-23" d="M68.84,159.93a1.74,1.74,0,0,1-1.52-.13c-1-.67-.55-1.92.64-2.11A1.21,1.21,0,0,1,68.84,159.93Z" transform="translate(-0.16 -0.51)"/><polygon class="cls-24" points="66.75 158.69 67.56 159.3 69.11 157.88 68.7 157.66 67.57 159.08 67.08 158.42 66.75 158.69"/><path class="cls-20" d="M148.94,171.64c-.16-.11-6.37,0-6.57,0s-.33.5-.23.53,7,.19,7.07.08A.64.64,0,0,0,148.94,171.64Z" transform="translate(-0.16 -0.51)"/><path class="cls-21" d="M149.23,171.6l-.24,0c-.72-.07-6.33,0-6.5,0h0a1.58,1.58,0,0,0-.35,0c-.12.06-.57.58-.34.81s1.76-.26.44-.27c-.06,0,.12-.41.26-.44h.05c.83,0,6.19,0,6.26,0h0l0,0c.06.05.29.4.19.41-1.32.09.36.49.5.23A1,1,0,0,0,149.23,171.6Z" transform="translate(-0.16 -0.51)"/><path class="cls-22" d="M142.14,172.2c.12.35.2,3.52.61,3.62a43.21,43.21,0,0,0,5.69,0c.38-.16.81-3.62.67-3.62C148.75,172.21,142.61,172.2,142.14,172.2Z" transform="translate(-0.16 -0.51)"/><path class="cls-21" d="M141.8,172.42a27.3,27.3,0,0,0,4,.05c1.94,0,3.59.16,3.73-.1s-.4-.24-.5-.23c-1.32.09-5.47,0-6.79,0C142.18,172.15,141.57,172.19,141.8,172.42Z" transform="translate(-0.16 -0.51)"/><path class="cls-23" d="M146.38,175.16a1.72,1.72,0,0,1-1.51-.13c-1-.67-.56-1.91.63-2.1C147.09,172.68,147.68,174.61,146.38,175.16Z" transform="translate(-0.16 -0.51)"/><polygon class="cls-24" points="144.3 173.92 145.1 174.53 146.66 173.11 146.24 172.89 145.11 174.31 144.62 173.65 144.3 173.92"/><path class="cls-20" d="M154.29,154.12c-.17-.11-6.37,0-6.57,0s-.33.5-.23.54,7,.18,7.06.07A.62.62,0,0,0,154.29,154.12Z" transform="translate(-0.16 -0.51)"/><path class="cls-21" d="M154.58,154.09a.66.66,0,0,0-.24,0c-.72-.07-6.33,0-6.5,0h0a1.06,1.06,0,0,0-.35,0c-.12.05-.57.57-.34.8s1.76-.26.43-.27c-.05,0,.13-.41.26-.43h.06c.83,0,6.19,0,6.26,0h0l0,0c.05,0,.29.4.19.41-1.32.09.36.49.49.24A1,1,0,0,0,154.58,154.09Z" transform="translate(-0.16 -0.51)"/><path class="cls-22" d="M147.49,154.69c.12.34.2,3.51.6,3.61a41.7,41.7,0,0,0,5.7,0c.37-.16.81-3.62.67-3.61Z" transform="translate(-0.16 -0.51)"/><path class="cls-21" d="M147.15,154.9a26.41,26.41,0,0,0,4,.06c1.94,0,3.59.15,3.72-.1s-.39-.25-.49-.24c-1.32.09-5.47,0-6.8,0C147.53,154.63,146.92,154.67,147.15,154.9Z" transform="translate(-0.16 -0.51)"/><path class="cls-23" d="M151.73,157.64a1.69,1.69,0,0,1-1.51-.13c-1-.67-.56-1.91.63-2.1A1.2,1.2,0,0,1,151.73,157.64Z" transform="translate(-0.16 -0.51)"/><polygon class="cls-24" points="149.65 156.4 150.45 157.01 152.01 155.59 151.59 155.37 150.46 156.79 149.97 156.13 149.65 156.4"/><path class="cls-20" d="M154.29,133.56c-.17-.11-6.37,0-6.57,0s-.33.5-.23.53,7,.19,7.06.08A.62.62,0,0,0,154.29,133.56Z" transform="translate(-0.16 -0.51)"/><path class="cls-21" d="M154.58,133.52l-.24,0c-.72-.06-6.33,0-6.5,0h0a1.13,1.13,0,0,0-.35,0c-.12.05-.57.58-.34.81s1.76-.26.43-.27c-.05,0,.13-.41.26-.44h.06c.83,0,6.19,0,6.26,0h0l0,0c.05,0,.29.4.19.41-1.32.09.36.49.49.23A1,1,0,0,0,154.58,133.52Z" transform="translate(-0.16 -0.51)"/><path class="cls-22" d="M147.49,134.12c.12.35.2,3.51.6,3.62a43.37,43.37,0,0,0,5.7,0c.37-.16.81-3.62.67-3.62Z" transform="translate(-0.16 -0.51)"/><path class="cls-21" d="M147.15,134.34a27.23,27.23,0,0,0,4,0c1.94,0,3.59.16,3.72-.1s-.39-.24-.49-.23c-1.32.09-5.47,0-6.8,0C147.53,134.07,146.92,134.11,147.15,134.34Z" transform="translate(-0.16 -0.51)"/><path class="cls-23" d="M151.73,137.08a1.72,1.72,0,0,1-1.51-.13c-1-.67-.56-1.92.63-2.1A1.2,1.2,0,0,1,151.73,137.08Z" transform="translate(-0.16 -0.51)"/><polygon class="cls-24" points="149.65 135.84 150.45 136.45 152.01 135.03 151.59 134.81 150.46 136.23 149.97 135.57 149.65 135.84"/><path class="cls-20" d="M131.12,111.47c-.17-.11-6.38,0-6.58,0s-.33.5-.22.53,7,.19,7.06.08A.64.64,0,0,0,131.12,111.47Z" transform="translate(-0.16 -0.51)"/><path class="cls-21" d="M131.4,111.43l-.23,0c-.73-.07-6.33,0-6.51,0h0a1.43,1.43,0,0,0-.34,0c-.12.06-.58.58-.34.81s1.75-.26.43-.27c-.06,0,.13-.41.26-.44h.06c.83,0,6.19,0,6.25,0h0a.05.05,0,0,1,0,0s.28.4.19.41c-1.33.09.36.49.49.23A1,1,0,0,0,131.4,111.43Z" transform="translate(-0.16 -0.51)"/><path class="cls-22" d="M124.32,112c.12.35.2,3.52.6,3.62a43.37,43.37,0,0,0,5.7,0c.37-.16.8-3.62.66-3.62C130.92,112,124.79,112,124.32,112Z" transform="translate(-0.16 -0.51)"/><path class="cls-21" d="M124,112.25a27.06,27.06,0,0,0,4,0c1.94,0,3.6.16,3.73-.1s-.4-.24-.49-.23c-1.33.09-5.48,0-6.8,0C124.35,112,123.74,112,124,112.25Z" transform="translate(-0.16 -0.51)"/><path class="cls-23" d="M128.56,115a1.74,1.74,0,0,1-1.52-.13c-1-.67-.56-1.91.64-2.1A1.2,1.2,0,0,1,128.56,115Z" transform="translate(-0.16 -0.51)"/><polygon class="cls-24" points="126.47 113.75 127.28 114.36 128.83 112.94 128.41 112.72 127.29 114.14 126.8 113.48 126.47 113.75"/><path class="cls-20" d="M94.57,106.14c-.16-.11-6.37,0-6.57,0s-.33.5-.23.53,7,.19,7.07.08A.63.63,0,0,0,94.57,106.14Z" transform="translate(-0.16 -0.51)"/><path class="cls-21" d="M94.86,106.1l-.24,0c-.72-.06-6.33,0-6.5,0h0a1.13,1.13,0,0,0-.35,0c-.12.06-.57.58-.34.81s1.76-.26.44-.27c-.06,0,.12-.41.26-.44h.05c.83,0,6.19,0,6.26,0h0s0,0,0,0,.29.4.19.41c-1.32.09.36.49.5.23A1,1,0,0,0,94.86,106.1Z" transform="translate(-0.16 -0.51)"/><path class="cls-22" d="M87.77,106.7c.12.35.2,3.51.61,3.62a43.21,43.21,0,0,0,5.69,0c.38-.16.81-3.62.67-3.62Z" transform="translate(-0.16 -0.51)"/><path class="cls-21" d="M87.43,106.92a27.3,27.3,0,0,0,4,0c1.94,0,3.59.16,3.73-.1s-.4-.24-.5-.23c-1.32.09-5.47,0-6.79,0C87.81,106.65,87.2,106.69,87.43,106.92Z" transform="translate(-0.16 -0.51)"/><path class="cls-23" d="M92,109.66a1.72,1.72,0,0,1-1.51-.13c-1-.67-.56-1.91.63-2.1A1.2,1.2,0,0,1,92,109.66Z" transform="translate(-0.16 -0.51)"/><polygon class="cls-24" points="89.93 108.42 90.73 109.03 92.29 107.61 91.87 107.39 90.74 108.81 90.25 108.15 89.93 108.42"/><path class="cls-20" d="M93.68,84.81c-.17-.11-6.37,0-6.57,0s-.33.5-.23.54,7,.18,7.06.07A.61.61,0,0,0,93.68,84.81Z" transform="translate(-0.16 -0.51)"/><path class="cls-21" d="M94,84.78a.62.62,0,0,0-.24,0c-.72-.07-6.33,0-6.5,0h0a1.06,1.06,0,0,0-.35,0c-.12,0-.57.58-.34.8s1.76-.26.44-.27c-.06,0,.12-.41.25-.43h.06c.83,0,6.19,0,6.26,0h0l0,0s.29.4.19.41c-1.32.09.36.49.5.24A1,1,0,0,0,94,84.78Z" transform="translate(-0.16 -0.51)"/><path class="cls-22" d="M86.88,85.38c.12.35.2,3.51.61,3.61a41.56,41.56,0,0,0,5.69,0c.37-.16.81-3.62.67-3.61Z" transform="translate(-0.16 -0.51)"/><path class="cls-21" d="M86.54,85.59a26.48,26.48,0,0,0,4,.06c1.94,0,3.59.15,3.73-.1s-.4-.25-.5-.24c-1.32.09-5.47,0-6.79,0C86.92,85.32,86.31,85.37,86.54,85.59Z" transform="translate(-0.16 -0.51)"/><path class="cls-23" d="M91.12,88.33a1.69,1.69,0,0,1-1.51-.13c-1-.67-.56-1.91.63-2.1A1.2,1.2,0,0,1,91.12,88.33Z" transform="translate(-0.16 -0.51)"/><polygon class="cls-24" points="89.04 87.09 89.84 87.7 91.4 86.29 90.98 86.06 89.85 87.48 89.36 86.83 89.04 87.09"/><path class="cls-20" d="M91.9,65.77c-.17-.11-6.38,0-6.58,0s-.32.5-.22.54,7,.18,7.06.07A.62.62,0,0,0,91.9,65.77Z" transform="translate(-0.16 -0.51)"/><path class="cls-21" d="M92.19,65.73l-.24,0c-.72-.07-6.33,0-6.51,0h0a1,1,0,0,0-.34,0c-.12,0-.57.57-.34.8s1.76-.26.43-.27c0,0,.13-.41.26-.44h.06c.83,0,6.19,0,6.26,0h0l0,0s.28.4.19.41c-1.32.09.36.49.49.24A1,1,0,0,0,92.19,65.73Z" transform="translate(-0.16 -0.51)"/><path class="cls-22" d="M85.1,66.33c.12.35.2,3.52.6,3.62a43.37,43.37,0,0,0,5.7,0c.37-.16.81-3.62.67-3.62C91.7,66.34,85.57,66.33,85.1,66.33Z" transform="translate(-0.16 -0.51)"/><path class="cls-21" d="M84.76,66.55a26.41,26.41,0,0,0,4,.06c1.93,0,3.59.15,3.72-.1s-.4-.25-.49-.24c-1.32.09-5.47,0-6.8,0C85.13,66.28,84.53,66.32,84.76,66.55Z" transform="translate(-0.16 -0.51)"/><path class="cls-23" d="M89.34,69.29a1.74,1.74,0,0,1-1.52-.13c-1-.67-.55-1.91.64-2.1A1.2,1.2,0,0,1,89.34,69.29Z" transform="translate(-0.16 -0.51)"/><polygon class="cls-24" points="87.25 68.05 88.06 68.66 89.61 67.24 89.2 67.02 88.07 68.44 87.58 67.78 87.25 68.05"/><path class="cls-20" d="M116,84.05c-.16-.11-6.37,0-6.57,0s-.33.5-.23.54,7,.18,7.07.07A.64.64,0,0,0,116,84.05Z" transform="translate(-0.16 -0.51)"/><path class="cls-21" d="M116.25,84,116,84c-.73-.07-6.33,0-6.51,0h0a1.06,1.06,0,0,0-.35,0c-.11,0-.57.57-.33.8s1.75-.26.43-.27c-.06,0,.12-.41.26-.44h0c.83,0,6.19,0,6.26,0h0l0,0s.28.4.18.41c-1.32.09.37.49.5.23A1.06,1.06,0,0,0,116.25,84Z" transform="translate(-0.16 -0.51)"/><path class="cls-22" d="M109.16,84.61c.12.35.21,3.52.61,3.62a43.37,43.37,0,0,0,5.7,0c.37-.16.8-3.62.66-3.62C115.77,84.62,109.63,84.61,109.16,84.61Z" transform="translate(-0.16 -0.51)"/><path class="cls-21" d="M108.83,84.83a27.06,27.06,0,0,0,4,0c1.94,0,3.6.16,3.73-.1s-.4-.24-.5-.23c-1.32.09-5.47,0-6.79,0C109.2,84.56,108.59,84.6,108.83,84.83Z" transform="translate(-0.16 -0.51)"/><path class="cls-23" d="M113.41,87.57a1.74,1.74,0,0,1-1.52-.13c-1-.67-.56-1.91.63-2.1C114.11,85.09,114.7,87,113.41,87.57Z" transform="translate(-0.16 -0.51)"/><polygon class="cls-24" points="111.32 86.33 112.13 86.94 113.68 85.52 113.26 85.3 112.14 86.72 111.64 86.06 111.32 86.33"/><path class="cls-20" d="M135.57,90.14c-.16-.1-6.37,0-6.57,0s-.33.5-.23.54,7,.18,7.07.07A.64.64,0,0,0,135.57,90.14Z" transform="translate(-0.16 -0.51)"/><path class="cls-21" d="M135.86,90.11a.56.56,0,0,0-.23,0c-.73-.06-6.34,0-6.51,0h0a1.06,1.06,0,0,0-.35,0c-.11,0-.57.58-.34.8s1.76-.25.44-.26c-.06,0,.12-.42.26-.44h.05c.83,0,6.19,0,6.26,0h0l0,0c.06,0,.29.41.19.41-1.32.1.36.49.5.24A1,1,0,0,0,135.86,90.11Z" transform="translate(-0.16 -0.51)"/><path class="cls-22" d="M128.77,90.71c.12.35.2,3.51.61,3.61a41.56,41.56,0,0,0,5.69,0c.38-.16.81-3.61.67-3.61Z" transform="translate(-0.16 -0.51)"/><path class="cls-21" d="M128.43,90.92a26.48,26.48,0,0,0,4,.06c1.94,0,3.59.15,3.73-.1s-.4-.24-.5-.24c-1.32.1-5.47,0-6.79,0C128.81,90.66,128.2,90.7,128.43,90.92Z" transform="translate(-0.16 -0.51)"/><path class="cls-23" d="M133,93.67a1.76,1.76,0,0,1-1.51-.13c-1-.68-.56-1.92.63-2.11A1.21,1.21,0,0,1,133,93.67Z" transform="translate(-0.16 -0.51)"/><polygon class="cls-24" points="130.93 92.42 131.73 93.04 133.29 91.62 132.87 91.39 131.74 92.81 131.25 92.16 130.93 92.42"/><path class="cls-20" d="M165,90.9c-.17-.1-6.38,0-6.58,0s-.33.5-.22.54,7,.19,7.06.08A.66.66,0,0,0,165,90.9Z" transform="translate(-0.16 -0.51)"/><path class="cls-21" d="M165.27,90.87l-.23,0c-.73-.06-6.33,0-6.51,0h0a1.3,1.3,0,0,0-.34,0c-.12.05-.58.58-.34.8s1.75-.25.43-.26c-.06,0,.13-.42.26-.44h.06c.83,0,6.19,0,6.25,0h0l0,0c.05,0,.28.4.19.4-1.33.1.36.5.49.24A1,1,0,0,0,165.27,90.87Z" transform="translate(-0.16 -0.51)"/><path class="cls-22" d="M158.19,91.47c.12.35.2,3.51.6,3.61a41.7,41.7,0,0,0,5.7,0c.37-.15.8-3.61.66-3.61C164.79,91.47,158.66,91.46,158.19,91.47Z" transform="translate(-0.16 -0.51)"/><path class="cls-21" d="M157.85,91.68a26.24,26.24,0,0,0,4,.06c1.94,0,3.6.16,3.73-.1s-.4-.24-.49-.24c-1.33.1-5.48,0-6.8,0C158.22,91.42,157.61,91.46,157.85,91.68Z" transform="translate(-0.16 -0.51)"/><path class="cls-23" d="M162.43,94.43a1.74,1.74,0,0,1-1.52-.13c-1-.68-.56-1.92.64-2.11A1.21,1.21,0,0,1,162.43,94.43Z" transform="translate(-0.16 -0.51)"/><polygon class="cls-24" points="160.34 93.19 161.15 93.8 162.7 92.38 162.28 92.15 161.16 93.58 160.67 92.92 160.34 93.19"/><path class="cls-20" d="M181.92,83.29c-.17-.11-6.37,0-6.57,0s-.33.5-.23.53,7,.19,7.06.08A.6.6,0,0,0,181.92,83.29Z" transform="translate(-0.16 -0.51)"/><path class="cls-21" d="M182.21,83.25l-.24,0c-.72-.06-6.33,0-6.5,0h0a1.13,1.13,0,0,0-.35,0c-.12.06-.57.58-.34.81s1.76-.26.44-.27c-.06,0,.12-.41.25-.44h.06c.83,0,6.19,0,6.26,0h0l0,0c.05.05.29.4.19.41-1.32.09.36.49.49.23A1,1,0,0,0,182.21,83.25Z" transform="translate(-0.16 -0.51)"/><path class="cls-22" d="M175.12,83.85c.12.35.2,3.52.61,3.62a43.21,43.21,0,0,0,5.69,0c.37-.16.81-3.62.67-3.62Z" transform="translate(-0.16 -0.51)"/><path class="cls-21" d="M174.78,84.07a27.23,27.23,0,0,0,4,.05c1.94,0,3.59.16,3.72-.1s-.39-.24-.49-.23c-1.32.09-5.47,0-6.79,0C175.16,83.8,174.55,83.84,174.78,84.07Z" transform="translate(-0.16 -0.51)"/><path class="cls-23" d="M179.36,86.81a1.72,1.72,0,0,1-1.51-.13c-1-.67-.56-1.91.63-2.1A1.2,1.2,0,0,1,179.36,86.81Z" transform="translate(-0.16 -0.51)"/><polygon class="cls-24" points="177.28 85.57 178.08 86.18 179.64 84.76 179.22 84.54 178.09 85.96 177.6 85.3 177.28 85.57"/><path class="cls-20" d="M181.92,65.77c-.17-.11-6.37,0-6.57,0s-.33.5-.23.54,7,.18,7.06.07A.61.61,0,0,0,181.92,65.77Z" transform="translate(-0.16 -0.51)"/><path class="cls-21" d="M182.21,65.73l-.24,0c-.72-.07-6.33,0-6.5,0h0a1.06,1.06,0,0,0-.35,0c-.12,0-.57.57-.34.8s1.76-.26.44-.27c-.06,0,.12-.41.25-.44h.06c.83,0,6.19,0,6.26,0h0l0,0c.05,0,.29.4.19.41-1.32.09.36.49.49.24A1,1,0,0,0,182.21,65.73Z" transform="translate(-0.16 -0.51)"/><path class="cls-22" d="M175.12,66.33c.12.35.2,3.52.61,3.62a43.21,43.21,0,0,0,5.69,0c.37-.16.81-3.62.67-3.62C181.73,66.34,175.59,66.33,175.12,66.33Z" transform="translate(-0.16 -0.51)"/><path class="cls-21" d="M174.78,66.55a26.41,26.41,0,0,0,4,.06c1.94,0,3.59.15,3.72-.1s-.39-.25-.49-.24c-1.32.09-5.47,0-6.79,0C175.16,66.28,174.55,66.32,174.78,66.55Z" transform="translate(-0.16 -0.51)"/><path class="cls-23" d="M179.36,69.29a1.72,1.72,0,0,1-1.51-.13c-1-.67-.56-1.91.63-2.1A1.2,1.2,0,0,1,179.36,69.29Z" transform="translate(-0.16 -0.51)"/><polygon class="cls-24" points="177.28 68.05 178.08 68.66 179.64 67.24 179.22 67.02 178.09 68.44 177.6 67.78 177.28 68.05"/><path class="cls-20" d="M181.92,49.77c-.17-.1-6.37,0-6.57,0s-.33.5-.23.53,7,.19,7.06.08A.62.62,0,0,0,181.92,49.77Z" transform="translate(-0.16 -0.51)"/><path class="cls-21" d="M182.21,49.74l-.24,0c-.72-.06-6.33,0-6.5,0h0a1.44,1.44,0,0,0-.35,0c-.12,0-.57.58-.34.81s1.76-.26.44-.27c-.06,0,.12-.42.25-.44h.06c.83,0,6.19,0,6.26,0h0l0,0c.05.05.29.4.19.4-1.32.1.36.5.49.24A1,1,0,0,0,182.21,49.74Z" transform="translate(-0.16 -0.51)"/><path class="cls-22" d="M175.12,50.34c.12.35.2,3.51.61,3.61a40,40,0,0,0,5.69,0c.37-.15.81-3.61.67-3.61C181.73,50.34,175.59,50.33,175.12,50.34Z" transform="translate(-0.16 -0.51)"/><path class="cls-21" d="M174.78,50.56a29,29,0,0,0,4,0c1.94,0,3.59.16,3.72-.1s-.39-.24-.49-.24c-1.32.1-5.47,0-6.79,0C175.16,50.29,174.55,50.33,174.78,50.56Z" transform="translate(-0.16 -0.51)"/><path class="cls-23" d="M179.36,53.3a1.72,1.72,0,0,1-1.51-.13c-1-.67-.56-1.92.63-2.11A1.21,1.21,0,0,1,179.36,53.3Z" transform="translate(-0.16 -0.51)"/><polygon class="cls-24" points="177.28 52.06 178.08 52.67 179.64 51.25 179.22 51.03 178.09 52.45 177.6 51.79 177.28 52.06"/><path class="cls-20" d="M164.09,44.44c-.16-.1-6.37,0-6.57,0s-.33.5-.22.54,7,.19,7.06.08A.65.65,0,0,0,164.09,44.44Z" transform="translate(-0.16 -0.51)"/><path class="cls-21" d="M164.38,44.41l-.23,0c-.73-.06-6.33,0-6.51,0h0a1.3,1.3,0,0,0-.34,0c-.12,0-.58.58-.34.8s1.75-.25.43-.26c-.06,0,.12-.42.26-.44h0c.83,0,6.2,0,6.26,0h0l0,0c.05,0,.28.4.18.4-1.32.1.37.5.5.24A1,1,0,0,0,164.38,44.41Z" transform="translate(-0.16 -0.51)"/><path class="cls-22" d="M157.3,45c.11.35.2,3.51.6,3.61a41.7,41.7,0,0,0,5.7,0c.37-.15.8-3.61.66-3.61Z" transform="translate(-0.16 -0.51)"/><path class="cls-21" d="M157,45.22a26.24,26.24,0,0,0,4,.06c1.94,0,3.6.16,3.73-.1s-.4-.24-.5-.24c-1.32.1-5.47,0-6.79,0C157.33,45,156.72,45,157,45.22Z" transform="translate(-0.16 -0.51)"/><path class="cls-23" d="M161.54,48a1.74,1.74,0,0,1-1.52-.13c-1-.68-.56-1.92.63-2.11A1.21,1.21,0,0,1,161.54,48Z" transform="translate(-0.16 -0.51)"/><polygon class="cls-24" points="159.45 46.72 160.26 47.34 161.81 45.92 161.39 45.69 160.26 47.12 159.78 46.46 159.45 46.72"/><path class="cls-20" d="M128.44,43.68c-.16-.1-6.37,0-6.57,0s-.33.5-.23.54,7,.18,7.06.07A.61.61,0,0,0,128.44,43.68Z" transform="translate(-0.16 -0.51)"/><path class="cls-21" d="M128.73,43.65a.59.59,0,0,0-.24,0c-.72-.06-6.33,0-6.5,0h0a1.06,1.06,0,0,0-.35,0c-.12.05-.57.58-.34.8s1.76-.26.44-.26c-.06,0,.12-.42.26-.44h0c.83,0,6.19,0,6.26,0h0l0,0c.06,0,.29.4.19.41-1.32.1.36.49.5.24A1,1,0,0,0,128.73,43.65Z" transform="translate(-0.16 -0.51)"/><path class="cls-22" d="M121.64,44.25c.12.35.2,3.51.61,3.61a41.56,41.56,0,0,0,5.69,0c.38-.16.81-3.61.67-3.61Z" transform="translate(-0.16 -0.51)"/><path class="cls-21" d="M121.3,44.46a26.48,26.48,0,0,0,4,.06c1.94,0,3.59.15,3.73-.1s-.4-.25-.5-.24c-1.32.1-5.47,0-6.79,0C121.68,44.19,121.07,44.24,121.3,44.46Z" transform="translate(-0.16 -0.51)"/><path class="cls-23" d="M125.88,47.21a1.76,1.76,0,0,1-1.51-.13c-1-.68-.56-1.92.63-2.11A1.21,1.21,0,0,1,125.88,47.21Z" transform="translate(-0.16 -0.51)"/><polygon class="cls-24" points="123.8 45.96 124.6 46.58 126.16 45.16 125.74 44.93 124.61 46.35 124.12 45.7 123.8 45.96"/><path class="cls-20" d="M101.5,43.33c-.16-.1-6.37,0-6.57,0s-.33.5-.23.54,7,.18,7.07.07A.64.64,0,0,0,101.5,43.33Z" transform="translate(-0.16 -0.51)"/><path class="cls-21" d="M101.79,43.3a.59.59,0,0,0-.24,0c-.72-.06-6.33,0-6.5,0h0a1.06,1.06,0,0,0-.35,0c-.12,0-.57.58-.34.8s1.76-.26.44-.27c-.06,0,.12-.41.26-.43h0c.83,0,6.19,0,6.26,0h0l0,0c.06,0,.29.4.19.41-1.32.1.36.49.5.24A1,1,0,0,0,101.79,43.3Z" transform="translate(-0.16 -0.51)"/><path class="cls-22" d="M94.7,43.9c.12.35.2,3.51.61,3.61a41.56,41.56,0,0,0,5.69,0c.38-.16.81-3.61.67-3.61Z" transform="translate(-0.16 -0.51)"/><path class="cls-21" d="M94.36,44.11a26.48,26.48,0,0,0,4,.06c1.94,0,3.59.15,3.73-.1s-.4-.25-.5-.24c-1.32.1-5.47,0-6.79,0C94.74,43.84,94.13,43.89,94.36,44.11Z" transform="translate(-0.16 -0.51)"/><path class="cls-23" d="M98.94,46.86a1.76,1.76,0,0,1-1.51-.13c-1-.68-.56-1.92.63-2.11A1.21,1.21,0,0,1,98.94,46.86Z" transform="translate(-0.16 -0.51)"/><polygon class="cls-24" points="96.86 45.61 97.66 46.23 99.22 44.81 98.8 44.58 97.67 46 97.18 45.35 96.86 45.61"/><path class="cls-20" d="M89,1.44c-.16-.11-6.37,0-6.57,0s-.33.5-.23.54,7,.18,7.07.07A.64.64,0,0,0,89,1.44Z" transform="translate(-0.16 -0.51)"/><path class="cls-21" d="M89.31,1.41a.56.56,0,0,0-.23,0c-.73-.07-6.33,0-6.51,0h0a1.06,1.06,0,0,0-.35,0c-.11.05-.57.58-.33.8S83.64,2,82.32,2c-.06,0,.12-.41.26-.43h0c.83,0,6.19,0,6.26,0h0l0,0c0,.05.28.4.18.41-1.32.1.37.49.5.24A1,1,0,0,0,89.31,1.41Z" transform="translate(-0.16 -0.51)"/><path class="cls-22" d="M82.22,2c.12.35.21,3.51.61,3.61a41.7,41.7,0,0,0,5.7,0c.37-.16.8-3.62.66-3.61Z" transform="translate(-0.16 -0.51)"/><path class="cls-21" d="M81.89,2.22a26.24,26.24,0,0,0,4,.06c1.94,0,3.6.15,3.73-.1s-.4-.25-.5-.24c-1.32.1-5.47,0-6.79,0C82.26,2,81.65,2,81.89,2.22Z" transform="translate(-0.16 -0.51)"/><path class="cls-23" d="M86.47,5A1.71,1.71,0,0,1,85,4.83c-1-.67-.56-1.91.63-2.1C87.17,2.48,87.76,4.42,86.47,5Z" transform="translate(-0.16 -0.51)"/><polygon class="cls-24" points="84.38 3.72 85.19 4.34 86.74 2.92 86.32 2.69 85.19 4.11 84.7 3.46 84.38 3.72"/><path class="cls-20" d="M27.72,116c-.16-.11-6.37,0-6.57,0s-.33.5-.22.53,7,.19,7.06.08A.64.64,0,0,0,27.72,116Z" transform="translate(-0.16 -0.51)"/><path class="cls-21" d="M28,116l-.23,0c-.73-.06-6.33,0-6.51,0h0a1.43,1.43,0,0,0-.34,0c-.12.06-.58.58-.34.81s1.75-.26.43-.27c-.06,0,.12-.41.26-.44h0c.83,0,6.19,0,6.26,0h0a.05.05,0,0,1,0,0c.05.05.28.4.18.41-1.32.09.37.49.5.23A1,1,0,0,0,28,116Z" transform="translate(-0.16 -0.51)"/><path class="cls-22" d="M20.93,116.6c.11.35.2,3.52.6,3.62a43.37,43.37,0,0,0,5.7,0c.37-.16.8-3.62.66-3.62C27.53,116.61,21.39,116.6,20.93,116.6Z" transform="translate(-0.16 -0.51)"/><path class="cls-21" d="M20.59,116.82a27.06,27.06,0,0,0,4,.05c1.94,0,3.6.16,3.73-.1s-.4-.24-.5-.23c-1.32.09-5.47,0-6.79,0C21,116.55,20.35,116.59,20.59,116.82Z" transform="translate(-0.16 -0.51)"/><path class="cls-23" d="M25.17,119.56a1.74,1.74,0,0,1-1.52-.13c-1-.67-.56-1.91.63-2.1C25.87,117.08,26.46,119,25.17,119.56Z" transform="translate(-0.16 -0.51)"/><polygon class="cls-24" points="23.08 118.32 23.89 118.93 25.44 117.51 25.02 117.29 23.89 118.71 23.41 118.05 23.08 118.32"/><path class="cls-20" d="M27.72,93.19c-.16-.11-6.37,0-6.57,0s-.33.5-.22.53,7,.19,7.06.08A.64.64,0,0,0,27.72,93.19Z" transform="translate(-0.16 -0.51)"/><path class="cls-21" d="M28,93.15l-.23,0c-.73-.07-6.33,0-6.51,0h0a1,1,0,0,0-.34,0c-.12,0-.58.57-.34.8s1.75-.26.43-.27c-.06,0,.12-.41.26-.44h0c.83,0,6.19,0,6.26,0h0l0,0c.05,0,.28.4.18.41-1.32.09.37.49.5.23A1,1,0,0,0,28,93.15Z" transform="translate(-0.16 -0.51)"/><path class="cls-22" d="M20.93,93.75c.11.35.2,3.52.6,3.62a43.37,43.37,0,0,0,5.7,0c.37-.16.8-3.62.66-3.62C27.53,93.76,21.39,93.75,20.93,93.75Z" transform="translate(-0.16 -0.51)"/><path class="cls-21" d="M20.59,94a27.06,27.06,0,0,0,4,0c1.94,0,3.6.16,3.73-.1s-.4-.24-.5-.23c-1.32.09-5.47,0-6.79,0C21,93.7,20.35,93.74,20.59,94Z" transform="translate(-0.16 -0.51)"/><path class="cls-23" d="M25.17,96.71a1.74,1.74,0,0,1-1.52-.13c-1-.67-.56-1.91.63-2.1C25.87,94.23,26.46,96.16,25.17,96.71Z" transform="translate(-0.16 -0.51)"/><polygon class="cls-24" points="23.08 95.47 23.89 96.08 25.44 94.66 25.02 94.44 23.89 95.86 23.41 95.2 23.08 95.47"/><path class="cls-20" d="M27.72,68.82c-.16-.11-6.37,0-6.57,0s-.33.5-.22.53,7,.19,7.06.08A.63.63,0,0,0,27.72,68.82Z" transform="translate(-0.16 -0.51)"/><path class="cls-21" d="M28,68.78l-.23,0c-.73-.06-6.33,0-6.51,0h0a1,1,0,0,0-.34,0c-.12,0-.58.58-.34.81s1.75-.26.43-.27c-.06,0,.12-.41.26-.44h0c.83,0,6.19,0,6.26,0h0a.05.05,0,0,1,0,0c.05,0,.28.4.18.41-1.32.09.37.49.5.23A1,1,0,0,0,28,68.78Z" transform="translate(-0.16 -0.51)"/><path class="cls-22" d="M20.93,69.38c.11.35.2,3.51.6,3.62a43.37,43.37,0,0,0,5.7,0c.37-.16.8-3.62.66-3.62Z" transform="translate(-0.16 -0.51)"/><path class="cls-21" d="M20.59,69.6a27.06,27.06,0,0,0,4,.05c1.94,0,3.6.16,3.73-.1s-.4-.24-.5-.23c-1.32.09-5.47,0-6.79,0C21,69.33,20.35,69.37,20.59,69.6Z" transform="translate(-0.16 -0.51)"/><path class="cls-23" d="M25.17,72.34a1.74,1.74,0,0,1-1.52-.13c-1-.67-.56-1.92.63-2.1A1.2,1.2,0,0,1,25.17,72.34Z" transform="translate(-0.16 -0.51)"/><polygon class="cls-24" points="23.08 71.1 23.89 71.71 25.44 70.29 25.02 70.07 23.89 71.49 23.41 70.83 23.08 71.1"/><path class="cls-20" d="M27.72,49.77c-.16-.1-6.37,0-6.57,0s-.33.5-.22.53,7,.19,7.06.08A.65.65,0,0,0,27.72,49.77Z" transform="translate(-0.16 -0.51)"/><path class="cls-21" d="M28,49.74l-.23,0c-.73-.06-6.33,0-6.51,0h0a1.3,1.3,0,0,0-.34,0c-.12,0-.58.58-.34.81s1.75-.26.43-.27c-.06,0,.12-.42.26-.44h0c.83,0,6.19,0,6.26,0h0l0,0c.05.05.28.4.18.4-1.32.1.37.5.5.24A1,1,0,0,0,28,49.74Z" transform="translate(-0.16 -0.51)"/><path class="cls-22" d="M20.93,50.34c.11.35.2,3.51.6,3.61a40.16,40.16,0,0,0,5.7,0c.37-.15.8-3.61.66-3.61C27.53,50.34,21.39,50.33,20.93,50.34Z" transform="translate(-0.16 -0.51)"/><path class="cls-21" d="M20.59,50.56a28.79,28.79,0,0,0,4,0c1.94,0,3.6.16,3.73-.1s-.4-.24-.5-.24c-1.32.1-5.47,0-6.79,0C21,50.29,20.35,50.33,20.59,50.56Z" transform="translate(-0.16 -0.51)"/><path class="cls-23" d="M25.17,53.3a1.74,1.74,0,0,1-1.52-.13c-1-.67-.56-1.92.63-2.11A1.21,1.21,0,0,1,25.17,53.3Z" transform="translate(-0.16 -0.51)"/><polygon class="cls-24" points="23.08 52.06 23.89 52.67 25.44 51.25 25.02 51.03 23.89 52.45 23.41 51.79 23.08 52.06"/><path class="cls-20" d="M27.72,34.54c-.16-.1-6.37,0-6.57,0s-.33.5-.22.54,7,.18,7.06.07A.64.64,0,0,0,27.72,34.54Z" transform="translate(-0.16 -0.51)"/><path class="cls-21" d="M28,34.51a.56.56,0,0,0-.23,0c-.73-.06-6.33,0-6.51,0h0a1,1,0,0,0-.34,0c-.12,0-.58.58-.34.8s1.75-.26.43-.26c-.06,0,.12-.42.26-.44h0c.83,0,6.19,0,6.26,0h0l0,0c.05,0,.28.41.18.41-1.32.1.37.49.5.24A1,1,0,0,0,28,34.51Z" transform="translate(-0.16 -0.51)"/><path class="cls-22" d="M20.93,35.11c.11.35.2,3.51.6,3.61a41.7,41.7,0,0,0,5.7,0c.37-.16.8-3.61.66-3.61Z" transform="translate(-0.16 -0.51)"/><path class="cls-21" d="M20.59,35.32a26.24,26.24,0,0,0,4,.06c1.94,0,3.6.15,3.73-.1s-.4-.24-.5-.24c-1.32.1-5.47,0-6.79,0C21,35.05,20.35,35.1,20.59,35.32Z" transform="translate(-0.16 -0.51)"/><path class="cls-23" d="M25.17,38.07a1.78,1.78,0,0,1-1.52-.13c-1-.68-.56-1.92.63-2.11A1.21,1.21,0,0,1,25.17,38.07Z" transform="translate(-0.16 -0.51)"/><polygon class="cls-24" points="23.08 36.82 23.89 37.44 25.44 36.02 25.02 35.79 23.89 37.22 23.41 36.56 23.08 36.82"/><path class="cls-20" d="M27.72,4.08c-.16-.11-6.37,0-6.57,0s-.33.5-.22.53,7,.19,7.06.08A.63.63,0,0,0,27.72,4.08Z" transform="translate(-0.16 -0.51)"/><path class="cls-21" d="M28,4l-.23,0c-.73-.06-6.33,0-6.51,0h0a1,1,0,0,0-.34,0c-.12,0-.58.58-.34.81s1.75-.26.43-.27c-.06,0,.12-.41.26-.44h0c.83,0,6.19,0,6.26,0h0l0,0c.05,0,.28.4.18.41-1.32.09.37.49.5.23A1,1,0,0,0,28,4Z" transform="translate(-0.16 -0.51)"/><path class="cls-22" d="M20.93,4.64c.11.35.2,3.51.6,3.62a43.37,43.37,0,0,0,5.7,0c.37-.16.8-3.62.66-3.62Z" transform="translate(-0.16 -0.51)"/><path class="cls-21" d="M20.59,4.86a27.06,27.06,0,0,0,4,0c1.94,0,3.6.16,3.73-.1s-.4-.24-.5-.23c-1.32.09-5.47,0-6.79,0C21,4.59,20.35,4.63,20.59,4.86Z" transform="translate(-0.16 -0.51)"/><path class="cls-23" d="M25.17,7.6a1.74,1.74,0,0,1-1.52-.13c-1-.67-.56-1.92.63-2.1A1.2,1.2,0,0,1,25.17,7.6Z" transform="translate(-0.16 -0.51)"/><polygon class="cls-24" points="23.08 6.36 23.89 6.97 25.44 5.55 25.02 5.33 23.89 6.75 23.41 6.09 23.08 6.36"/><path class="cls-25" d="M100.81,173.92c-.17-.1-6.37,0-6.57,0s-.33.5-.23.54,7,.19,7.06.08A.62.62,0,0,0,100.81,173.92Z" transform="translate(-0.16 -0.51)"/><path class="cls-26" d="M101.1,173.89l-.24,0c-.72-.06-6.33,0-6.5,0h0a1.44,1.44,0,0,0-.35,0c-.12,0-.57.58-.34.8s1.76-.25.44-.26c-.06,0,.12-.42.26-.44h0c.83,0,6.19,0,6.26,0h0l0,0c.05,0,.29.4.19.4-1.32.1.36.5.5.24A1,1,0,0,0,101.1,173.89Z" transform="translate(-0.16 -0.51)"/><path class="cls-27" d="M94,174.49c.12.35.2,3.51.61,3.61a41.56,41.56,0,0,0,5.69,0c.38-.15.81-3.61.67-3.61C100.62,174.49,94.48,174.48,94,174.49Z" transform="translate(-0.16 -0.51)"/><path class="cls-26" d="M93.67,174.7a26.48,26.48,0,0,0,4,.06c1.94,0,3.59.16,3.73-.1s-.4-.24-.5-.24c-1.32.1-5.47,0-6.79,0C94.05,174.44,93.44,174.48,93.67,174.7Z" transform="translate(-0.16 -0.51)"/><path class="cls-23" d="M98.25,177.45a1.72,1.72,0,0,1-1.51-.13c-1-.68-.56-1.92.63-2.11A1.21,1.21,0,0,1,98.25,177.45Z" transform="translate(-0.16 -0.51)"/><polygon class="cls-28" points="96.45 175.37 96.87 175.06 98.3 176.65 98.24 176.7 96.45 175.37"/><polygon class="cls-28" points="98.05 175.05 98.42 175.4 96.6 176.66 96.54 176.61 98.05 175.05"/><path class="cls-25" d="M154.29,116c-.17-.11-6.37,0-6.57,0s-.33.5-.23.53,7,.19,7.06.08A.62.62,0,0,0,154.29,116Z" transform="translate(-0.16 -0.51)"/><path class="cls-26" d="M154.58,116l-.24,0c-.72-.06-6.33,0-6.5,0h0a1.58,1.58,0,0,0-.35,0c-.12.06-.57.58-.34.81s1.76-.26.43-.27c-.05,0,.13-.41.26-.44h.06c.83,0,6.19,0,6.26,0h0l0,0c.05.05.29.4.19.41-1.32.09.36.49.49.23A1,1,0,0,0,154.58,116Z" transform="translate(-0.16 -0.51)"/><path class="cls-27" d="M147.49,116.6c.12.35.2,3.52.6,3.62a43.37,43.37,0,0,0,5.7,0c.37-.16.81-3.62.67-3.62C154.09,116.61,148,116.6,147.49,116.6Z" transform="translate(-0.16 -0.51)"/><path class="cls-26" d="M147.15,116.82a27.23,27.23,0,0,0,4,.05c1.94,0,3.59.16,3.72-.1s-.39-.24-.49-.23c-1.32.09-5.47,0-6.8,0C147.53,116.55,146.92,116.59,147.15,116.82Z" transform="translate(-0.16 -0.51)"/><path class="cls-23" d="M151.73,119.56a1.72,1.72,0,0,1-1.51-.13c-1-.67-.56-1.91.63-2.1A1.2,1.2,0,0,1,151.73,119.56Z" transform="translate(-0.16 -0.51)"/><polygon class="cls-28" points="149.93 117.48 150.34 117.18 151.77 118.76 151.72 118.81 149.93 117.48"/><polygon class="cls-28" points="151.53 117.17 151.9 117.52 150.08 118.78 150.02 118.73 151.53 117.17"/><path class="cls-25" d="M113.29,65.77c-.17-.11-6.37,0-6.58,0s-.32.5-.22.54,7,.18,7.06.07A.62.62,0,0,0,113.29,65.77Z" transform="translate(-0.16 -0.51)"/><path class="cls-26" d="M113.58,65.73l-.24,0c-.72-.07-6.33,0-6.5,0h0a1.06,1.06,0,0,0-.35,0c-.12,0-.57.57-.34.8s1.76-.26.43-.27c0,0,.13-.41.26-.44h.06c.83,0,6.19,0,6.26,0h0l0,0s.29.4.19.41c-1.32.09.36.49.49.24A1,1,0,0,0,113.58,65.73Z" transform="translate(-0.16 -0.51)"/><path class="cls-27" d="M106.49,66.33c.12.35.2,3.52.6,3.62a43.37,43.37,0,0,0,5.7,0c.37-.16.81-3.62.67-3.62C113.09,66.34,107,66.33,106.49,66.33Z" transform="translate(-0.16 -0.51)"/><path class="cls-26" d="M106.15,66.55a26.41,26.41,0,0,0,4,.06c1.94,0,3.59.15,3.72-.1s-.39-.25-.49-.24c-1.32.09-5.47,0-6.8,0C106.53,66.28,105.92,66.32,106.15,66.55Z" transform="translate(-0.16 -0.51)"/><path class="cls-23" d="M110.73,69.29a1.72,1.72,0,0,1-1.51-.13c-1-.67-.56-1.91.63-2.1A1.2,1.2,0,0,1,110.73,69.29Z" transform="translate(-0.16 -0.51)"/><polygon class="cls-28" points="108.93 67.22 109.34 66.91 110.77 68.49 110.72 68.54 108.93 67.22"/><polygon class="cls-28" points="110.53 66.9 110.9 67.25 109.08 68.51 109.02 68.46 110.53 66.9"/><path class="cls-25" d="M90.12,27.69c-.17-.11-6.38,0-6.58,0s-.33.5-.22.53,7,.19,7.06.08A.64.64,0,0,0,90.12,27.69Z" transform="translate(-0.16 -0.51)"/><path class="cls-26" d="M90.4,27.65l-.23,0c-.73-.06-6.33,0-6.51,0h0a1,1,0,0,0-.34,0c-.12.06-.58.58-.34.81s1.75-.26.43-.27c-.06,0,.13-.41.26-.44h.06c.83,0,6.19,0,6.25,0h0a.05.05,0,0,1,0,0s.28.4.19.41c-1.33.09.36.49.49.23A1,1,0,0,0,90.4,27.65Z" transform="translate(-0.16 -0.51)"/><path class="cls-27" d="M83.32,28.25c.12.35.2,3.52.6,3.62a43.37,43.37,0,0,0,5.7,0c.37-.16.8-3.62.66-3.62Z" transform="translate(-0.16 -0.51)"/><path class="cls-26" d="M83,28.47a27.06,27.06,0,0,0,4,.05c1.94,0,3.6.16,3.73-.1s-.4-.24-.49-.23c-1.33.09-5.48,0-6.8,0C83.35,28.2,82.74,28.24,83,28.47Z" transform="translate(-0.16 -0.51)"/><path class="cls-23" d="M87.56,31.21A1.74,1.74,0,0,1,86,31.08c-1-.67-.56-1.91.64-2.1A1.2,1.2,0,0,1,87.56,31.21Z" transform="translate(-0.16 -0.51)"/><polygon class="cls-28" points="85.75 29.13 86.17 28.82 87.6 30.41 87.54 30.46 85.75 29.13"/><polygon class="cls-28" points="87.35 28.82 87.72 29.17 85.9 30.43 85.84 30.38 87.35 28.82"/><path class="cls-25" d="M27.72,87.86c-.16-.11-6.37,0-6.57,0s-.33.5-.22.53,7,.19,7.06.08A.63.63,0,0,0,27.72,87.86Z" transform="translate(-0.16 -0.51)"/><path class="cls-26" d="M28,87.82l-.23,0c-.73-.06-6.33,0-6.51,0h0a1,1,0,0,0-.34,0c-.12.06-.58.58-.34.81s1.75-.26.43-.27c-.06,0,.12-.41.26-.44h0c.83,0,6.19,0,6.26,0h0l0,0c.05,0,.28.4.18.41-1.32.09.37.49.5.23A1,1,0,0,0,28,87.82Z" transform="translate(-0.16 -0.51)"/><path class="cls-27" d="M20.93,88.42c.11.35.2,3.52.6,3.62a43.37,43.37,0,0,0,5.7,0c.37-.16.8-3.62.66-3.62Z" transform="translate(-0.16 -0.51)"/><path class="cls-26" d="M20.59,88.64a27.06,27.06,0,0,0,4,0c1.94,0,3.6.16,3.73-.1s-.4-.24-.5-.23c-1.32.09-5.47,0-6.79,0C21,88.37,20.35,88.41,20.59,88.64Z" transform="translate(-0.16 -0.51)"/><path class="cls-23" d="M25.17,91.38a1.74,1.74,0,0,1-1.52-.13c-1-.67-.56-1.91.63-2.1C25.87,88.9,26.46,90.83,25.17,91.38Z" transform="translate(-0.16 -0.51)"/><polygon class="cls-28" points="23.36 89.3 23.78 89 25.21 90.58 25.15 90.63 23.36 89.3"/><polygon class="cls-28" points="24.96 88.99 25.33 89.34 23.51 90.59 23.45 90.55 24.96 88.99"/><path class="cls-25" d="M27.72,17.79c-.16-.11-6.37,0-6.57,0s-.33.5-.22.53,7,.19,7.06.08A.63.63,0,0,0,27.72,17.79Z" transform="translate(-0.16 -0.51)"/><path class="cls-26" d="M28,17.75l-.23,0c-.73-.06-6.33,0-6.51,0h0a1.3,1.3,0,0,0-.34,0c-.12,0-.58.58-.34.81s1.75-.26.43-.27c-.06,0,.12-.41.26-.44h0c.83,0,6.19,0,6.26,0h0l0,0c.05.05.28.4.18.41-1.32.09.37.49.5.23A1,1,0,0,0,28,17.75Z" transform="translate(-0.16 -0.51)"/><path class="cls-27" d="M20.93,18.35c.11.35.2,3.51.6,3.61a40.16,40.16,0,0,0,5.7,0c.37-.15.8-3.61.66-3.61C27.53,18.35,21.39,18.34,20.93,18.35Z" transform="translate(-0.16 -0.51)"/><path class="cls-26" d="M20.59,18.57a28.79,28.79,0,0,0,4,.05c1.94,0,3.6.16,3.73-.1s-.4-.24-.5-.23c-1.32.09-5.47,0-6.79,0C21,18.3,20.35,18.34,20.59,18.57Z" transform="translate(-0.16 -0.51)"/><path class="cls-23" d="M25.17,21.31a1.74,1.74,0,0,1-1.52-.13c-1-.67-.56-1.92.63-2.1A1.2,1.2,0,0,1,25.17,21.31Z" transform="translate(-0.16 -0.51)"/><polygon class="cls-28" points="23.36 19.23 23.78 18.92 25.21 20.51 25.15 20.56 23.36 19.23"/><polygon class="cls-28" points="24.96 18.92 25.33 19.27 23.51 20.52 23.45 20.48 24.96 18.92"/></g></g></svg>