<?xml version="1.0" encoding="utf-8"?>
<!-- Generator: Adobe Illustrator 24.0.0, SVG Export Plug-In . SVG Version: 6.00 Build 0)  -->
<svg version="1.1" id="suivi" xmlns="http://www.w3.org/2000/svg" xmlns:xlink="http://www.w3.org/1999/xlink" x="0px" y="0px"
	 viewBox="0 0 738.4 537.7" style="enable-background:new 0 0 738.4 537.7;" xml:space="preserve">
<style type="text/css">
	.st0{fill:#FAFAFA;}
	.st1{fill:#E0E0E0;}
	.st2{fill:#EBEBEB;}
	.st3{fill:#FFFFFF;}
	.st4{fill:#52C1DE;}
	.st5{fill:#263238;}
	.st6{fill:#371450;}
	.st7{fill:#92D205;}
	.st8{fill:#848484;}
	.st9{fill:#F5F5F5;}
	.st10{fill:none;stroke:#92D205;stroke-width:0.75;stroke-miterlimit:10;}
	.st11{fill:none;stroke:#371450;stroke-width:0.75;stroke-miterlimit:10;}
	.st12{fill:none;stroke:#371450;stroke-width:0.75;stroke-miterlimit:10;stroke-dasharray:3.04,3.04;}
	.st13{fill:none;stroke:#371450;stroke-width:0.75;stroke-miterlimit:10;stroke-dasharray:3.05,3.05;}
	.st14{fill:none;stroke:#371450;stroke-width:0.75;stroke-miterlimit:10;stroke-dasharray:2.76,2.76;}
	.st15{fill:none;stroke:#371450;stroke-width:0.75;stroke-miterlimit:10;stroke-dasharray:2.91,2.91;}
	.st16{fill:none;stroke:#371450;stroke-width:0.75;stroke-miterlimit:10;stroke-dasharray:3,3;}
	.st17{fill:none;stroke:#371450;stroke-width:0.75;stroke-miterlimit:10;stroke-dasharray:2.9,2.9;}
	.st18{fill:none;stroke:#371450;stroke-width:0.75;stroke-miterlimit:10;stroke-dasharray:2.96,2.96;}
	.st19{fill:none;stroke:#371450;stroke-width:0.75;stroke-miterlimit:10;stroke-dasharray:3.38,3.38;}
	.st20{fill:none;stroke:#371450;stroke-width:0.75;stroke-miterlimit:10;stroke-dasharray:2.98,2.98;}
	.st21{fill:none;stroke:#371450;stroke-width:0.75;stroke-miterlimit:10;stroke-dasharray:3.03,3.03;}
	.st22{fill:none;stroke:#371450;stroke-width:0.75;stroke-miterlimit:10;stroke-dasharray:2.94,2.94;}
	.st23{fill:#838035;}
	.st24{fill:#908E3C;}
	.st25{fill:#A5A544;}
	.st26{fill:#F5F5EC;}
	.st27{fill:#629F35;}
	.st28{fill:#931F1F;}
	.st29{fill:#AD3A3A;}
	.st30{fill:#D34444;}
	.st31{fill:#BF2222;}
</style>
<title>img-suivi</title>
<g id="Calque_11">
	<rect x="25" y="22.5" class="st0" width="96.1" height="85.9"/>
	<path class="st1" d="M121,108.4c0,0,0-0.6,0-1.6s0-2.6,0-4.6c0-4,0-9.9-0.1-17.4c0-15-0.1-36.5-0.1-62.3l0.2,0.2h-96l0,0l0.3-0.3
		c0,31.3,0,60.7,0,85.9l-0.4-0.2l69.5,0.1l19.6,0.1h5.2h1.3L121,108.4l-1.8,0h-5.1l-19.5,0.1L25,108.6h-0.2v-0.2
		c0-25.3,0-54.7,0-85.9v-0.2H25h96h0.2v0.2c-0.1,25.9-0.1,47.4-0.1,62.4c0,7.5-0.1,13.4-0.1,17.4c0,2,0,3.5,0,4.6
		S121,108.4,121,108.4z"/>
	<path class="st1" d="M61.8,37.8c0,0.1-5.1,0.3-11.3,0.3s-11.3-0.1-11.3-0.3s5-0.3,11.3-0.3S61.8,37.6,61.8,37.8z"/>
	<path class="st1" d="M102.5,44.3c0,0.2-13.9,0.3-31,0.3s-31-0.1-31-0.3s13.9-0.3,31-0.3S102.5,44.1,102.5,44.3z"/>
	<rect x="39.4" y="55.2" class="st1" width="4" height="4"/>
	<rect x="49.3" y="55.2" class="st1" width="4" height="4"/>
	<rect x="59.5" y="55" class="st1" width="4" height="4"/>
	<rect x="69.3" y="55.2" class="st1" width="4.1" height="4"/>
	<rect x="79.2" y="55.2" class="st1" width="4.1" height="4"/>
	<rect x="89.2" y="55.2" class="st1" width="4.1" height="4"/>
	<rect x="99.2" y="55.2" class="st2" width="4.1" height="4"/>
	<rect x="39.4" y="63.8" class="st2" width="4" height="4"/>
	<rect x="49.3" y="63.8" class="st1" width="4" height="4"/>
	<rect x="59.3" y="63.8" class="st2" width="4" height="4"/>
	<rect x="69.3" y="63.8" class="st1" width="4.1" height="4"/>
	<rect x="79.2" y="63.8" class="st1" width="4.1" height="4"/>
	<rect x="89.4" y="63.6" class="st1" width="4.1" height="4.1"/>
	<rect x="99.2" y="63.8" class="st1" width="4.1" height="4"/>
	<rect x="39.4" y="72.4" class="st1" width="4" height="4.1"/>
	<rect x="49.5" y="72.2" class="st1" width="4" height="4.1"/>
	<rect x="59.3" y="72.4" class="st1" width="4" height="4.1"/>
	<rect x="69.3" y="72.4" class="st2" width="4.1" height="4.1"/>
	<rect x="79.2" y="72.4" class="st1" width="4.1" height="4.1"/>
	<rect x="89.2" y="72.4" class="st1" width="4.1" height="4.1"/>
	<rect x="99.2" y="72.4" class="st1" width="4.1" height="4.1"/>
	<rect x="39.4" y="81" class="st1" width="4" height="4.1"/>
	<rect x="49.3" y="81" class="st1" width="4" height="4.1"/>
	<rect x="59.3" y="81" class="st1" width="4" height="4.1"/>
	<rect x="69.5" y="80.8" class="st1" width="4.1" height="4.1"/>
	<rect x="79.2" y="81" class="st1" width="4.1" height="4.1"/>
	<rect x="89.2" y="81" class="st2" width="4.1" height="4.1"/>
	<rect x="99.2" y="81" class="st1" width="4.1" height="4.1"/>
	<rect x="39.4" y="89.6" class="st1" width="4" height="4.1"/>
	<rect x="49.3" y="89.6" class="st2" width="4" height="4.1"/>
	<rect x="59.3" y="89.6" class="st1" width="4" height="4.1"/>
	<rect x="69.3" y="89.6" class="st1" width="4.1" height="4.1"/>
	<rect x="79.2" y="89.6" class="st1" width="4.1" height="4.1"/>
	<rect x="89.4" y="89.4" class="st1" width="4.1" height="4.1"/>
	<rect x="99.2" y="89.6" class="st1" width="4.1" height="4.1"/>
	<rect x="655.5" y="0.3" class="st3" width="68" height="68"/>
	<path class="st1" d="M723.6,68.3c0,0,0-0.1,0-0.3s0-0.5,0-1c0-0.8,0-2.1,0-3.7c0-3.2,0-7.9-0.1-13.8c0-11.9-0.1-28.9-0.1-49.3
		l0.2,0.2h-68l0,0l0.3-0.3c0,24.9,0,48.3,0,68l-0.2-0.2l49.3,0.1l13.8,0.1h3.7h1.3h-0.3h-0.9h-3.6l-13.8,0.1l-49.4,0.1h-0.2v-0.2
		c0-19.8,0-43.1,0-68v-0.3h0.3h68h0.2v0.4c0,20.4-0.1,37.5-0.1,49.4c0,5.9,0,10.6-0.1,13.8c0,1.6,0,2.8,0,3.6c0,0.4,0,0.7,0,0.9
		S723.6,68.3,723.6,68.3z"/>
	<path class="st1" d="M723.3,17.7c0,0.1-15.2,0.3-33.9,0.3s-33.9-0.1-33.9-0.3s15.2-0.3,33.9-0.3S723.3,17.5,723.3,17.7z"/>
	<circle class="st1" cx="662.2" cy="8.6" r="1.9"/>
	<circle class="st1" cx="668" cy="8.6" r="1.9"/>
	<path class="st1" d="M675.9,8.6c0,1.1-0.9,1.9-1.9,1.9c-1.1,0-1.9-0.9-1.9-1.9c0-1.1,0.9-1.9,1.9-1.9c0,0,0,0,0,0
		C675,6.7,675.9,7.5,675.9,8.6z"/>
	<circle class="st2" cx="669.3" cy="32.2" r="5.5"/>
	<path class="st2" d="M674.9,52.5c0,3.1-2.5,5.5-5.5,5.5c-3.1,0-5.5-2.5-5.5-5.5c0-3.1,2.5-5.5,5.5-5.5
		C672.4,46.9,674.9,49.4,674.9,52.5C674.9,52.4,674.9,52.5,674.9,52.5z"/>
	<path class="st1" d="M713.4,31.7c0,0.2-7.6,0.3-16.9,0.3s-16.9-0.1-16.9-0.3s7.6-0.3,16.9-0.3S713.4,31.6,713.4,31.7z"/>
	<path class="st1" d="M691.8,52.4c-4,0.3-8,0.3-12,0C683.8,52,687.8,52,691.8,52.4z"/>
	<circle class="st4" cx="713.4" cy="57.2" r="21.5"/>
	<rect x="713.4" y="49.1" class="st3" width="2" height="15.9"/>
	<rect x="706.5" y="56" class="st3" width="15.9" height="2"/>
</g>
<g id="Calque_9">
	<path class="st5" d="M738.4,487.3c0,0.2-165.3,0.3-369.2,0.3S0,487.5,0,487.3s165.3-0.3,369.2-0.3S738.4,487.1,738.4,487.3z"/>
	<path class="st1" d="M624.7,36.9H113.6c-8.8,0-16,7.1-16,16v361c0,8.8,7.2,16,16,16h196.2c0,0,12.5,38.6-26.2,58.5H467
		c0,0-43.7-15-32.4-58.5h190.2c8.8,0,16-7.1,16-16v-361C640.7,44,633.5,36.9,624.7,36.9z"/>
	<path class="st6" d="M376,391.8c7,9.9-3.9,20.8-13.9,13.9c-0.3-0.2-0.6-0.5-0.9-0.9c-6.9-9.9,3.9-20.8,13.9-13.9
		C375.5,391.2,375.8,391.5,376,391.8z"/>
	<path class="st3" d="M116.2,43.5h506c5.4,0,9.7,4.3,9.7,9.7c0,0,0,0,0,0v310.5l0,0H106.5l0,0V53.2
		C106.5,47.8,110.8,43.5,116.2,43.5L116.2,43.5z"/>
	<path class="st7" d="M115.7,43.5h508.7c4.1,0,7.5,3.4,7.5,7.5v19.1l0,0H106.5l0,0V52.6C106.5,47.6,110.6,43.5,115.7,43.5z"/>
	<circle class="st3" cx="123.2" cy="57.3" r="3.7"/>
	<circle class="st3" cx="134.2" cy="57.3" r="3.7"/>
	<circle class="st3" cx="144.7" cy="57.3" r="3.7"/>
	<path class="st8" d="M533.4,429.8c0,0.2-72.7,0.3-162.4,0.3s-162.4-0.1-162.4-0.3s72.7-0.3,162.4-0.3S533.4,429.7,533.4,429.8z"/>
</g>
<g id="Calque_10">
	<path class="st5" d="M623.7,347.8c0-1.7,0-103-0.1-264.6l0.1,0.2H349.6l0,0l0.2-0.3c0,93.9,0,183.4,0,264.6l-0.2-0.2L623.7,347.8
		L349.6,348h-0.2v-0.2c0-81.2,0-170.6,0-264.6v-0.3h0.2l274.1,0.1h0.1v0.2C623.8,244.8,623.7,346.1,623.7,347.8z"/>
	<rect x="361" y="96.5" class="st1" width="63.4" height="13.4"/>
	<rect x="361" y="120.4" class="st9" width="127.1" height="13.4"/>
	<rect x="432.6" y="139" class="st9" width="127.1" height="13.4"/>
	<rect x="361" y="138.8" class="st9" width="60.5" height="13.4"/>
	<rect x="499.8" y="120" class="st9" width="60.5" height="13.4"/>
	<rect x="567" y="120" class="st9" width="46" height="13.4"/>
	<rect x="567" y="139" class="st9" width="46" height="13.4"/>
	<rect x="361" y="162.4" class="st1" width="250.8" height="15.3"/>
	<path class="st5" d="M608.2,328.3c0,0,0-0.8,0-2.4s0-4,0-7.1c0-6.3,0-15.5,0-27.5c0-24-0.1-59-0.1-103.3l0.2,0.4l-246.9,0.3l0,0
		l0.3-0.6c0,48.3,0,95.3,0,140.3l-0.3-0.6l176.3,0.3l51.8,0.2l13.9,0.1h3.6c0.8,0,1.2,0,1.2,0s-0.4,0-1.2,0h-3.6l-13.9,0.1
		l-51.7,0.2l-176.5,0.3h-0.3v-0.6c0-45,0-92,0-140.3v-0.6h0.3l246.9,0.2h0.2v0.4c0,44.4-0.1,79.5-0.1,103.5c0,12,0,21.2,0,27.4
		c0,3.1,0,5.4,0,7S608.2,328.3,608.2,328.3z"/>
	<path class="st5" d="M608.2,205.5c0,0.2-55.1,0.3-123.1,0.3S362,205.7,362,205.5s55.1-0.3,123.1-0.3S608.2,205.3,608.2,205.5z"/>
	<path class="st5" d="M608.2,223.1c0,0.2-55.1,0.3-123.1,0.3S362,223.3,362,223.1s55.1-0.3,123.1-0.3S608.2,222.9,608.2,223.1z"/>
	<path class="st5" d="M608.2,240.9c0,0.2-55.1,0.3-123.1,0.3S362,241.1,362,240.9s55.1-0.3,123.1-0.3S608.2,240.7,608.2,240.9z"/>
	<path class="st5" d="M390,259.1c-0.2,0-0.3-16-0.3-35.8s0.1-35.8,0.3-35.8s0.3,16,0.3,35.8S390.1,259.1,390,259.1z"/>
	<path class="st5" d="M473.5,257c-0.2,0-0.3-15.3-0.3-34.2s0.1-34.2,0.3-34.2s0.3,15.3,0.3,34.2S473.6,257,473.5,257z"/>
	<path class="st5" d="M561.5,258.3c-0.2,0-0.3-15.8-0.3-35.3s0.1-35.2,0.3-35.2s0.3,5.1,0.3,35.2
		C561.8,242.4,561.6,258.3,561.5,258.3z"/>
	<path class="st5" d="M608.2,258.1c0,0.2-55.1,0.3-123.1,0.3S362,258.3,362,258.1s55.1-0.3,123.1-0.3S608.2,257.9,608.2,258.1z"/>
	<path class="st5" d="M608.2,275.9c0,0.2-55.1,0.3-123.1,0.3S362,276,362,275.9s55.1-0.3,123.1-0.3S608.2,275.7,608.2,275.9z"/>
	<path class="st5" d="M390,294.1c-0.2,0-0.3-16-0.3-35.8s0.1-35.8,0.3-35.8s0.3,16,0.3,35.8S390.1,294.1,390,294.1z"/>
	<path class="st5" d="M473.5,292c-0.2,0-0.3-15.3-0.3-34.2s0.1-34.2,0.3-34.2s0.3,15.3,0.3,34.2S473.6,292,473.5,292z"/>
	<path class="st5" d="M561.5,295.3c-0.2,0-0.3-15.8-0.3-35.3s0.1-35.2,0.3-35.2s0.3,15.8,0.3,35.2S561.6,295.3,561.5,295.3z"/>
	<path class="st5" d="M608.2,293.1c0,0.2-55.1,0.3-123.1,0.3S362,293.3,362,293.1s55.1-0.3,123.1-0.3S608.2,292.9,608.2,293.1z"/>
	<path class="st5" d="M608.2,310.9c0,0.2-55.1,0.3-123.1,0.3S362,311,362,310.9s55.1-0.3,123.1-0.3S608.2,310.7,608.2,310.9z"/>
	<path class="st5" d="M390,328.1c-0.2,0-0.3-16-0.3-35.8s0.1-35.8,0.3-35.8s0.3,16,0.3,35.8S390.1,328.1,390,328.1z"/>
	<path class="st5" d="M473.5,327c-0.2,0-0.3-15.3-0.3-34.2s0.1-34.2,0.3-34.2s0.3,15.3,0.3,34.2S473.6,327,473.5,327z"/>
	<path class="st5" d="M561.5,328.3c-0.2,0-0.3-15.8-0.3-35.3s0.1-35.2,0.3-35.2s0.3,15.8,0.3,35.2S561.6,328.3,561.5,328.3z"/>
	<path class="st5" d="M605.5,102c0,0.2-37.7,0.3-84.2,0.3s-84.2-0.1-84.2-0.3s37.7-0.3,84.2-0.3S605.5,101.8,605.5,102z"/>
	<path class="st5" d="M486.6,108c0,0.2-11.1,0.3-24.7,0.3s-24.7-0.1-24.7-0.3s11.1-0.3,24.7-0.3S486.6,107.8,486.6,108z"/>
</g>
<g id="Calque_14">
	<g id="Calque_12">
		<path class="st5" d="M337.6,347.8c0-1.7,0-103-0.1-264.6l0.1,0.2h-223l0,0l0.1-0.3c0,93.9,0,183.4,0,264.6l-0.1-0.2L337.6,347.8
			l-223,0.2h-0.1v-0.2c0-81.2,0-170.6,0-264.6v-0.3h0.2l223,0.1h0.1v0.2C337.6,244.8,337.6,346.1,337.6,347.8z"/>
	</g>
	<rect x="114.8" y="83.4" class="st9" width="222.5" height="263.9"/>
	<path class="st2" d="M247.7,98.9h36.8v-0.2c0-0.6,0-1.2-0.1-1.9h-36.7V98.9z"/>
	<path class="st2" d="M337.3,147.5v-7l-20.1-0.2v-25h-3.6v25l-19-0.3l-50.3-27.5l0.1-13.8c0-0.4-0.1-0.7-0.3-1
		c-0.8-1.3-3-2.2-5.5-2.2c-1.4,0-2.8,0.3-4.1,0.9c-0.9,0.4-1.6,1.2-1.7,2.3l-0.2,40.4l-14.8-0.2l-2-47.4h116.9
		c-0.8-0.7-1.7-1.4-2.7-2H215.7l-0.3-6h-12.7l0.6,13.9h-52.9l0.1-13.9h-4.8c-0.6,0-1.2,0-1.9,0h-0.5l-1.4,0.1c-0.1,0-0.3,0-0.5,0
		l-1.6,0.2h-0.2l-1.9,0.2l-0.2,15.7l-22.9,12.6v2.8l22.8-12.5l-0.4,35.2l-22.5-0.3v7l22.4,0.3l-0.3,24.8h-22.1v2h22.1l-0.3,23.8
		h-21.9v2h21.8l-0.3,29.6l-21.5-11.8v2.8l21.5,11.8l-0.1,12.3l-18.6-0.8l-2.8-16.9v23.7l21.3,0.9l-0.3,26.5l-21,1.5v7l23.3-1.6v15.9
		l-23.3,1.3v2l23.3-1.3v14.6l-23.3,1.4v7l30.6-1.8l-3.8,25.9c0.6,0,1.2,0.1,1.9,0.1h0.2c0.7,0,1.3,0,2,0h7.6l1.5-10.4l48.8-3
		l1.4,13.5h3.7l-1.4-13.7l25.6-1.6l3.2,15.3h11.6c0-0.1,0-0.3,0-0.4l-6.5-31.2l9.7-0.6l3.1,16.2c0,0.2,0.1,0.5,0.3,0.7
		c0.8,1.3,3,2.2,5.5,2.2l21.1,0.2l2.2,13h11.7l-2.8-16.4c0-0.3-0.1-0.5-0.3-0.7c-0.8-1.3-3-2.2-5.5-2.2L265,328l-2.5-13.4l23.4-1.4
		l28.8,16.2l-9.5,18.1h1.3c0.9,0,1.7,0,2.6-0.1l19.2-36.6l4.6-0.3l3,25.3c0.5-0.8,0.9-1.7,1.1-2.5c0,0,0,0,0,0
		c0.1-0.4,0.2-0.8,0.3-1.2c0-0.1,0-0.2,0-0.2c0.1-0.4,0.1-0.8,0.1-1.3v-32.8l-3.4,5.7l-42.5,2.5v-15.1l39.3-0.3l6.6,5.6v-12.9
		l-6.9-5.8l6.9-26v-48.6l-18.5-0.6l0.9-24.6h17.6v-2h-17.6l0.6-18h16.9v-2h-16.8l0.3-8.3L337.3,147.5z M309.2,147.1l-0.7,18.6h-40.2
		l-0.9-19.2L309.2,147.1z M235.6,271.3c0.8,1.3,3.2,2.2,5.7,2.2l37.4-0.7v10l-54.1,18.8l-2.3-54.3h34.5l1,19.5l-16.9,0.3
		c-3.2,0-5.7,1.5-5.6,3.3C235.3,270.7,235.4,271,235.6,271.3z M260.4,247.3h18.2v19.2l-17.2,0.3L260.4,247.3z M278.7,285.3l0,21.5
		l-53.9,3l-0.2-5.9L278.7,285.3z M278.6,245.3h-56.4l-0.3-10.4l57,0.2L278.6,245.3z M254.5,229.5l-0.7-22.5l24.7,0.9l0,21.8
		L254.5,229.5z M264.7,167.8l1,19.9h-20.2l-0.4-19.9H264.7z M245,165.8l-0.4-19.5l19.1,0.3l0.9,19.3L245,165.8z M265.8,189.6
		l0.5,10.8l-20.5-0.7l-0.2-10.1H265.8z M244.3,115.2l45,24.7l-45.1-0.6L244.3,115.2z M233.1,203c0,0.4,0.1,0.7,0.3,1.1
		c0.8,1.4,3,2.3,5.6,2.4l11.1,0.4l0.7,22.7l-29.4-0.1l-2.6-61.6h13.4L233.1,203z M231.9,146l0.4,19.7h-13.4l-0.8-19.9L231.9,146z
		 M212.2,310.5l-13.6,0.8c-0.2-4.1-0.5-10.8-0.8-18.6h13.7L212.2,310.5z M211.4,290.7h-13.7c-0.3-7-0.6-14.8-1-22.5h13.7
		L211.4,290.7z M207.3,192.7l-26.2,0.2l-1.3-5.8H207L207.3,192.7z M206.9,185.1h-27.7l-1.1-5l6.7-7.1h21.6L206.9,185.1z
		 M177.4,176.5l-3.7-16.6H193L177.4,176.5z M206.4,170.9h-19.7l10.4-11.1h8.8L206.4,170.9z M205.8,157.8h-32.6l-2.9-12.7l34.9,0.5
		L205.8,157.8z M150.4,99.4h53l1.6,39.3l-55.1-0.8L150.4,99.4z M149.9,144.9l16.8,0.2l2.9,12.7h-19.8L149.9,144.9z M149.7,159.9H170
		l4.4,19.8l-0.1,0.1h0.1l1.2,5.3h-26.2L149.7,159.9z M149.4,187.1h26.6l1.3,5.9l-28,0.2L149.4,187.1z M149.3,199.5l58.2-0.4
		l0.4,10.1h-58.8L149.3,199.5z M149.2,211.3H208l2.3,55h-13.7c-0.9-20.7-1.7-40.1-1.7-40.4c0-0.3-0.1-0.6-0.3-0.9
		c-0.8-1.4-3.1-2.2-5.7-2.2c-3.2,0-5.7,1.5-5.7,3.3c0,0,0.5,11.6,1.1,25.6L149,232.2L149.2,211.3z M186.2,295.5L161,297v-16.2
		l24.4-1.7C185.8,284.8,186,290.4,186.2,295.5L186.2,295.5z M148.9,234.9l35.5,19.5c0.2,5.8,0.5,11.9,0.7,17.6l0,0l-36.4-20
		L148.9,234.9z M148.7,254.9l31.9,17.5l-32.1,2.3L148.7,254.9z M141.7,282.2l15.7-1.1v16.1l-15.7,0.9V282.2z M141.7,300.1l44.6-2.6
		c0.3,6.1,0.5,11.2,0.7,14.5l-45.2,2.6V300.1z M155,335.1l2.1-14.3l44.8-2.6l1.4,13.9L155,335.1z M207,331.9l-1.4-13.9l24-1.4
		l2.9,13.6L207,331.9z M315.8,327.3l-25.3-14.2l33.8-2L315.8,327.3z M291.4,288.9l-0.1-36.3l13,0.9l0.9,35.3L291.4,288.9z
		 M304.3,247.1l-13-0.9v-16l14.4,0.4L304.3,247.1z M305.9,228.4l-14.6-0.4v-11.2l15.6,0.3L305.9,228.4z M307,215.2l-15.8-0.3v-6.6
		l16.3,0.6L307,215.2z M307.2,201.8l-21.6-0.8l22.3-17.1L307.2,201.8z M281.3,200.9l-11.4-0.4l-1.6-32.8h40.1l-0.5,12.7L281.3,200.9
		z M308.9,288.7l-0.9-35l15.6,1.1l-6.1,23.1c-0.1,0.5,0,1.1,0.3,1.6c0.2,0.3,0.4,0.6,0.7,0.8l9.9,8.3L308.9,288.7z M325.3,248.4
		l-17.3-1.2l1.4-16.7l20.5,0.5L325.3,248.4z M330.4,229.1l-20.8-0.5l1-11.3l22.9,0.4L330.4,229.1z M335.4,209.8l-1.6,5.9l-23.2-0.5
		l0.5-6.3L335.4,209.8z"/>
</g>
<g id="Calque_15">
	<polyline class="st10" points="143.8,83.5 141.6,278.1 190.3,275.2 192.5,314.1 285.6,310 284.6,232 215,231.8 212.6,166.7 
		239.3,166.5 240.7,202.3 313.4,204.2 314.6,143.2 211.4,142.3 207.8,83.5 	"/>
	<line class="st11" x1="143.8" y1="83.5" x2="143.8" y2="85"/>
	<line class="st12" x1="143.8" y1="88.1" x2="141.6" y2="275.1"/>
	<polyline class="st11" points="141.6,276.6 141.6,278.1 143.1,278 	"/>
	<line class="st13" x1="146.1" y1="277.8" x2="187.3" y2="275.4"/>
	<polyline class="st11" points="188.8,275.3 190.3,275.2 190.4,276.7 	"/>
	<line class="st14" x1="190.6" y1="279.5" x2="192.3" y2="311.2"/>
	<polyline class="st11" points="192.4,312.6 192.5,314.1 194,314 	"/>
	<line class="st15" x1="196.9" y1="313.9" x2="282.6" y2="310.1"/>
	<polyline class="st11" points="284.1,310.1 285.6,310 285.6,308.5 	"/>
	<line class="st16" x1="285.5" y1="305.5" x2="284.7" y2="235"/>
	<polyline class="st11" points="284.7,233.5 284.6,232 283.1,232 	"/>
	<line class="st17" x1="280.2" y1="232" x2="218" y2="231.8"/>
	<polyline class="st11" points="216.5,231.8 215,231.8 215,230.3 	"/>
	<line class="st18" x1="214.9" y1="227.3" x2="212.8" y2="169.7"/>
	<polyline class="st11" points="212.7,168.2 212.6,166.7 214.1,166.7 	"/>
	<line class="st19" x1="217.5" y1="166.7" x2="236.1" y2="166.5"/>
	<polyline class="st11" points="237.8,166.5 239.3,166.5 239.3,168 	"/>
	<line class="st20" x1="239.5" y1="171" x2="240.6" y2="199.3"/>
	<polyline class="st11" points="240.7,200.8 240.7,202.3 242.2,202.3 	"/>
	<line class="st21" x1="245.3" y1="202.4" x2="310.4" y2="204.1"/>
	<polyline class="st11" points="311.9,204.1 313.4,204.2 313.5,202.7 	"/>
	<line class="st13" x1="313.5" y1="199.6" x2="314.6" y2="146.3"/>
	<polyline class="st11" points="314.6,144.7 314.6,143.2 313.1,143.2 	"/>
	<line class="st12" x1="310.1" y1="143.2" x2="214.5" y2="142.3"/>
	<polyline class="st11" points="212.9,142.3 211.4,142.3 211.4,140.8 	"/>
	<line class="st22" x1="211.2" y1="137.8" x2="208" y2="86.4"/>
	<line class="st11" x1="207.9" y1="85" x2="207.8" y2="83.5"/>
</g>
<g id="Calque_16">
	<path class="st23" d="M145.3,269.1c-0.2-0.1-7.1,0-7.4,0s-0.4,0.7-0.3,0.7s7.9,0.2,7.9,0.1C145.6,269.6,145.5,269.3,145.3,269.1z"
		/>
	<path class="st24" d="M145.6,269.1c-0.1,0-0.2,0-0.3,0c-0.8-0.1-7.1,0-7.3,0l0,0c-0.1,0-0.3,0-0.4,0c-0.1,0.1-0.6,0.8-0.4,1.1
		s2-0.3,0.5-0.4c-0.1,0,0.1-0.5,0.3-0.6h0.1c0.9,0,6.9,0,7,0l0,0l0,0c0.1,0.1,0.3,0.5,0.2,0.5c-1.5,0.1,0.4,0.6,0.6,0.3
		C145.9,269.7,145.8,269.4,145.6,269.1z"/>
	<path class="st25" d="M137.6,269.9c0.1,0.5,0.2,4.6,0.7,4.8c2.1,0.2,4.3,0.2,6.4,0c0.4-0.2,0.9-4.8,0.8-4.8H137.6z"/>
	<path class="st24" d="M137.2,270.1c0.2,0.2,2,0.1,4.5,0.1c2.2,0,4,0.2,4.2-0.1s-0.4-0.3-0.6-0.3c-1.5,0.1-6.1,0-7.6,0
		C137.7,269.8,137,269.8,137.2,270.1z"/>
	<path class="st26" d="M142.4,273.7c-0.6,0.3-1.2,0.2-1.7-0.2c-0.7-0.5-0.8-1.5-0.3-2.2c0.2-0.3,0.6-0.5,1-0.6
		c0.9-0.1,1.7,0.5,1.8,1.4C143.2,272.8,142.9,273.4,142.4,273.7z"/>
	<g id="Calque_17">
		<polygon class="st27" points="140.2,272.8 141.1,273.6 142.9,271.7 142.4,271.4 141.1,273.3 140.6,272.4 		"/>
	</g>
</g>
<g id="Calque_16_-_copie_9">
	<path class="st23" d="M177.3,274.1c-0.2-0.1-7.1,0-7.4,0s-0.4,0.7-0.3,0.7s7.9,0.2,7.9,0.1C177.6,274.6,177.5,274.3,177.3,274.1z"
		/>
	<path class="st24" d="M177.6,274.1c-0.1,0-0.2,0-0.3,0c-0.8-0.1-7.1,0-7.3,0l0,0c-0.1,0-0.3,0-0.4,0c-0.1,0.1-0.6,0.8-0.4,1.1
		s2-0.3,0.5-0.4c-0.1,0,0.1-0.5,0.3-0.6h0.1c0.9,0,6.9,0,7,0l0,0l0,0c0.1,0.1,0.3,0.5,0.2,0.5c-1.5,0.1,0.4,0.6,0.6,0.3
		C177.9,274.7,177.8,274.4,177.6,274.1z"/>
	<path class="st25" d="M169.6,274.9c0.1,0.5,0.2,4.6,0.7,4.8c2.1,0.2,4.3,0.2,6.4,0c0.4-0.2,0.9-4.8,0.8-4.8H169.6z"/>
	<path class="st24" d="M169.2,275.1c0.2,0.2,2,0.1,4.5,0.1c2.2,0,4,0.2,4.2-0.1s-0.4-0.3-0.6-0.3c-1.5,0.1-6.1,0-7.6,0
		C169.7,274.8,169,274.8,169.2,275.1z"/>
	<path class="st26" d="M174.4,278.7c-0.6,0.3-1.2,0.2-1.7-0.2c-0.7-0.5-0.8-1.5-0.3-2.2c0.2-0.3,0.6-0.5,1-0.6
		c0.9-0.1,1.7,0.5,1.8,1.4C175.2,277.8,174.9,278.4,174.4,278.7z"/>
	<g id="Calque_17_-_copie_9">
		<polygon class="st27" points="172.2,277.8 173.1,278.6 174.9,276.7 174.4,276.4 173.1,278.3 172.6,277.4 		"/>
	</g>
</g>
<g id="Calque_16_-_copie_10">
	<path class="st23" d="M194.3,288.1c-0.2-0.1-7.1,0-7.4,0s-0.4,0.7-0.3,0.7s7.9,0.2,7.9,0.1C194.6,288.6,194.5,288.3,194.3,288.1z"
		/>
	<path class="st24" d="M194.6,288.1c-0.1,0-0.2,0-0.3,0c-0.8-0.1-7.1,0-7.3,0l0,0c-0.1,0-0.3,0-0.4,0c-0.1,0.1-0.6,0.8-0.4,1.1
		s2-0.3,0.5-0.4c-0.1,0,0.1-0.5,0.3-0.6h0.1c0.9,0,6.9,0,7,0l0,0l0,0c0.1,0.1,0.3,0.5,0.2,0.5c-1.5,0.1,0.4,0.6,0.6,0.3
		C194.9,288.7,194.8,288.4,194.6,288.1z"/>
	<path class="st25" d="M186.6,288.9c0.1,0.5,0.2,4.6,0.7,4.8c2.1,0.2,4.3,0.2,6.4,0c0.4-0.2,0.9-4.8,0.8-4.8H186.6z"/>
	<path class="st24" d="M186.2,289.1c0.2,0.2,2,0.1,4.5,0.1c2.2,0,4,0.2,4.2-0.1s-0.4-0.3-0.6-0.3c-1.5,0.1-6.1,0-7.6,0
		C186.7,288.8,186,288.8,186.2,289.1z"/>
	<path class="st26" d="M191.4,292.7c-0.6,0.3-1.2,0.2-1.7-0.2c-0.7-0.5-0.8-1.5-0.3-2.2c0.2-0.3,0.6-0.5,1-0.6
		c0.9-0.1,1.7,0.5,1.8,1.4C192.2,291.8,191.9,292.4,191.4,292.7z"/>
	<g id="Calque_17_-_copie_10">
		<polygon class="st27" points="189.2,291.8 190.1,292.6 191.9,290.7 191.4,290.4 190.1,292.3 189.6,291.4 		"/>
	</g>
</g>
<g id="Calque_16_-_copie_12">
	<path class="st23" d="M281.3,308.1c-0.2-0.1-7.1,0-7.4,0s-0.4,0.7-0.3,0.7s7.9,0.2,7.9,0.1C281.6,308.6,281.5,308.3,281.3,308.1z"
		/>
	<path class="st24" d="M281.6,308.1c-0.1,0-0.2,0-0.3,0c-0.8-0.1-7.1,0-7.3,0l0,0c-0.1,0-0.3,0-0.4,0c-0.1,0.1-0.6,0.8-0.4,1.1
		s2-0.3,0.5-0.4c-0.1,0,0.1-0.5,0.3-0.6h0.1c0.9,0,6.9,0,7,0l0,0l0,0c0.1,0.1,0.3,0.5,0.2,0.5c-1.5,0.1,0.4,0.6,0.5,0.3
		C281.9,308.7,281.8,308.4,281.6,308.1z"/>
	<path class="st25" d="M273.6,308.9c0.1,0.5,0.2,4.6,0.7,4.7c2.1,0.2,4.3,0.2,6.4,0c0.4-0.2,0.9-4.8,0.8-4.7H273.6z"/>
	<path class="st24" d="M273.2,309.1c0.2,0.2,2,0.1,4.5,0.1c2.2,0,4,0.2,4.2-0.1s-0.4-0.3-0.5-0.3c-1.5,0.1-6.1,0-7.6,0
		C273.7,308.8,273,308.8,273.2,309.1z"/>
	<path class="st26" d="M278.4,312.7c-0.6,0.3-1.2,0.2-1.7-0.2c-0.7-0.5-0.8-1.5-0.3-2.2c0.2-0.3,0.6-0.5,1-0.6
		c0.9-0.1,1.7,0.5,1.8,1.4C279.2,311.8,278.9,312.4,278.4,312.7z"/>
	<g id="Calque_17_-_copie_12">
		<polygon class="st27" points="276.2,311.8 277.1,312.6 278.9,310.7 278.4,310.4 277.1,312.3 276.6,311.4 		"/>
	</g>
</g>
<g id="Calque_16_-_copie_13">
	<path class="st23" d="M287.3,285.1c-0.2-0.1-7.1,0-7.4,0s-0.4,0.7-0.3,0.7s7.9,0.2,7.9,0.1C287.6,285.6,287.5,285.3,287.3,285.1z"
		/>
	<path class="st24" d="M287.6,285.1c-0.1,0-0.2,0-0.3,0c-0.8-0.1-7.1,0-7.3,0l0,0c-0.1,0-0.3,0-0.4,0c-0.1,0.1-0.6,0.8-0.4,1.1
		s2-0.3,0.5-0.4c-0.1,0,0.1-0.5,0.3-0.6h0.1c0.9,0,6.9,0,7,0l0,0l0,0c0.1,0.1,0.3,0.5,0.2,0.5c-1.5,0.1,0.4,0.6,0.5,0.3
		C287.9,285.7,287.8,285.4,287.6,285.1z"/>
	<path class="st25" d="M279.6,285.9c0.1,0.5,0.2,4.6,0.7,4.8c2.1,0.2,4.3,0.2,6.4,0c0.4-0.2,0.9-4.8,0.8-4.8H279.6z"/>
	<path class="st24" d="M279.2,286.1c0.2,0.2,2,0.1,4.5,0.1c2.2,0,4,0.2,4.2-0.1s-0.4-0.3-0.5-0.3c-1.5,0.1-6.1,0-7.6,0
		C279.7,285.8,279,285.8,279.2,286.1z"/>
	<path class="st26" d="M284.4,289.7c-0.6,0.3-1.2,0.2-1.7-0.2c-0.7-0.5-0.8-1.5-0.3-2.2c0.2-0.3,0.6-0.5,1-0.6
		c0.9-0.1,1.7,0.5,1.8,1.4C285.2,288.8,284.9,289.4,284.4,289.7z"/>
	<g id="Calque_17_-_copie_13">
		<polygon class="st27" points="282.2,288.8 283.1,289.6 284.9,287.7 284.4,287.4 283.1,289.3 282.6,288.4 		"/>
	</g>
</g>
<g id="Calque_16_-_copie_14">
	<path class="st23" d="M287.3,258.1c-0.2-0.1-7.1,0-7.4,0s-0.4,0.7-0.3,0.7s7.9,0.2,7.9,0.1C287.6,258.6,287.5,258.3,287.3,258.1z"
		/>
	<path class="st24" d="M287.6,258.1c-0.1,0-0.2,0-0.3,0c-0.8-0.1-7.1,0-7.3,0l0,0c-0.1,0-0.3,0-0.4,0c-0.1,0.1-0.6,0.8-0.4,1.1
		s2-0.3,0.5-0.4c-0.1,0,0.1-0.5,0.3-0.6h0.1c0.9,0,6.9,0,7,0l0,0l0,0c0.1,0.1,0.3,0.5,0.2,0.5c-1.5,0.1,0.4,0.6,0.5,0.3
		C287.9,258.7,287.8,258.4,287.6,258.1z"/>
	<path class="st25" d="M279.6,258.9c0.1,0.5,0.2,4.6,0.7,4.8c2.1,0.2,4.3,0.2,6.4,0c0.4-0.2,0.9-4.8,0.8-4.8H279.6z"/>
	<path class="st24" d="M279.2,259.1c0.2,0.2,2,0.1,4.5,0.1c2.2,0,4,0.2,4.2-0.1s-0.4-0.3-0.5-0.3c-1.5,0.1-6.1,0-7.6,0
		C279.7,258.8,279,258.8,279.2,259.1z"/>
	<path class="st26" d="M284.4,262.7c-0.6,0.3-1.2,0.2-1.7-0.2c-0.7-0.5-0.8-1.5-0.3-2.2c0.2-0.3,0.6-0.5,1-0.6
		c0.9-0.1,1.7,0.5,1.8,1.4C285.2,261.8,284.9,262.4,284.4,262.7z"/>
	<g id="Calque_17_-_copie_14">
		<polygon class="st27" points="282.2,261.8 283.1,262.6 284.9,260.7 284.4,260.4 283.1,262.3 282.6,261.4 		"/>
	</g>
</g>
<g id="Calque_16_-_copie_16">
	<path class="st23" d="M261.3,229.1c-0.2-0.1-7.1,0-7.4,0s-0.4,0.7-0.3,0.7s7.9,0.2,7.9,0.1C261.6,229.6,261.5,229.3,261.3,229.1z"
		/>
	<path class="st24" d="M261.6,229.1c-0.1,0-0.2,0-0.3,0c-0.8-0.1-7.1,0-7.3,0l0,0c-0.1,0-0.3,0-0.4,0c-0.1,0.1-0.6,0.8-0.4,1.1
		s2-0.3,0.5-0.4c-0.1,0,0.1-0.6,0.3-0.6h0.1c0.9-0.1,6.9,0,7,0l0,0l0,0c0.1,0.1,0.3,0.5,0.2,0.5c-1.5,0.1,0.4,0.6,0.5,0.3
		C261.9,229.7,261.8,229.4,261.6,229.1z"/>
	<path class="st25" d="M253.6,229.9c0.1,0.5,0.2,4.6,0.7,4.8c2.1,0.2,4.3,0.2,6.4,0c0.4-0.2,0.9-4.8,0.8-4.8
		C261,229.9,254.1,229.9,253.6,229.9z"/>
	<path class="st24" d="M253.2,230.1c0.2,0.2,2,0.1,4.5,0.1c2.2,0,4,0.2,4.2-0.1s-0.4-0.3-0.5-0.3c-1.5,0.1-6.1,0-7.6,0
		C253.7,229.8,253,229.8,253.2,230.1z"/>
	<path class="st26" d="M258.4,233.7c-0.6,0.3-1.2,0.2-1.7-0.2c-0.7-0.5-0.8-1.5-0.3-2.2c0.2-0.3,0.6-0.5,1-0.6
		c0.9-0.1,1.7,0.5,1.8,1.4C259.2,232.8,258.9,233.4,258.4,233.7z"/>
	<g id="Calque_17_-_copie_16">
		<polygon class="st27" points="256.2,232.8 257.1,233.6 258.9,231.7 258.4,231.4 257.1,233.3 256.6,232.4 		"/>
	</g>
</g>
<g id="Calque_16_-_copie_17">
	<path class="st23" d="M220.3,222.1c-0.2-0.1-7.1,0-7.4,0s-0.4,0.7-0.3,0.7s7.9,0.2,7.9,0.1C220.6,222.6,220.5,222.3,220.3,222.1z"
		/>
	<path class="st24" d="M220.6,222.1c-0.1,0-0.2,0-0.3,0c-0.8-0.1-7.1,0-7.3,0l0,0c-0.1,0-0.3,0-0.4,0c-0.1,0.1-0.6,0.8-0.4,1.1
		s2-0.3,0.5-0.4c-0.1,0,0.1-0.6,0.3-0.6h0.1c0.9-0.1,6.9,0,7,0l0,0l0,0c0.1,0.1,0.3,0.5,0.2,0.5c-1.5,0.1,0.4,0.6,0.6,0.3
		C220.9,222.7,220.8,222.4,220.6,222.1z"/>
	<path class="st25" d="M212.6,222.9c0.1,0.5,0.2,4.6,0.7,4.8c2.1,0.2,4.3,0.2,6.4,0c0.4-0.2,0.9-4.8,0.8-4.8
		C220,222.9,213.2,222.9,212.6,222.9z"/>
	<path class="st24" d="M212.2,223.1c0.2,0.2,2,0.1,4.5,0.1c2.2,0,4,0.2,4.2-0.1s-0.4-0.3-0.6-0.3c-1.5,0.1-6.1,0-7.6,0
		C212.7,222.8,212,222.8,212.2,223.1z"/>
	<path class="st26" d="M217.4,226.7c-0.6,0.3-1.2,0.2-1.7-0.2c-0.7-0.5-0.8-1.5-0.3-2.2c0.2-0.3,0.6-0.5,1-0.6
		c0.9-0.1,1.7,0.5,1.8,1.4C218.2,225.8,217.9,226.4,217.4,226.7z"/>
	<g id="Calque_17_-_copie_17">
		<polygon class="st27" points="215.2,225.8 216.1,226.6 217.9,224.7 217.4,224.4 216.1,226.3 215.6,225.4 		"/>
	</g>
</g>
<g id="Calque_16_-_copie_18">
	<path class="st23" d="M219.3,194.1c-0.2-0.1-7.1,0-7.4,0s-0.4,0.7-0.3,0.7s7.9,0.2,7.9,0.1C219.6,194.6,219.5,194.3,219.3,194.1z"
		/>
	<path class="st24" d="M219.6,194.1c-0.1,0-0.2,0-0.3,0c-0.8-0.1-7.1,0-7.3,0l0,0c-0.1,0-0.3,0-0.4,0c-0.1,0.1-0.6,0.8-0.4,1.1
		s2-0.3,0.5-0.4c-0.1,0,0.1-0.6,0.3-0.6h0.1c0.9-0.1,6.9,0,7,0l0,0l0,0c0.1,0.1,0.3,0.5,0.2,0.5c-1.5,0.1,0.4,0.6,0.6,0.3
		C219.9,194.7,219.8,194.4,219.6,194.1z"/>
	<path class="st25" d="M211.6,194.9c0.1,0.5,0.2,4.6,0.7,4.8c2.1,0.2,4.3,0.2,6.4,0c0.4-0.2,0.9-4.8,0.8-4.8
		C219,194.9,212.2,194.9,211.6,194.9z"/>
	<path class="st24" d="M211.2,195.1c0.2,0.2,2,0.1,4.5,0.1c2.2,0,4,0.2,4.2-0.1s-0.4-0.3-0.6-0.3c-1.5,0.1-6.1,0-7.6,0
		C211.7,194.8,211,194.8,211.2,195.1z"/>
	<path class="st26" d="M216.4,198.7c-0.6,0.3-1.2,0.2-1.7-0.2c-0.7-0.5-0.8-1.5-0.3-2.2c0.2-0.3,0.6-0.5,1-0.6
		c0.9-0.1,1.7,0.5,1.8,1.4C217.2,197.8,216.9,198.4,216.4,198.7z"/>
	<g id="Calque_17_-_copie_18">
		<polygon class="st27" points="214.2,197.8 215.1,198.6 216.9,196.7 216.4,196.4 215.1,198.3 214.6,197.4 		"/>
	</g>
</g>
<g id="Calque_16_-_copie_19">
	<path class="st23" d="M217.3,169.1c-0.2-0.1-7.1,0-7.4,0s-0.4,0.7-0.3,0.7s7.9,0.2,7.9,0.1C217.6,169.6,217.5,169.3,217.3,169.1z"
		/>
	<path class="st24" d="M217.6,169.1c-0.1,0-0.2,0-0.3,0c-0.8-0.1-7.1,0-7.3,0l0,0c-0.1,0-0.3,0-0.4,0c-0.1,0.1-0.6,0.8-0.4,1.1
		s2-0.3,0.5-0.4c-0.1,0,0.1-0.6,0.3-0.6h0.1c0.9-0.1,6.9,0,7,0l0,0l0,0c0.1,0.1,0.3,0.5,0.2,0.5c-1.5,0.1,0.4,0.6,0.6,0.3
		C217.9,169.7,217.8,169.4,217.6,169.1z"/>
	<path class="st25" d="M209.6,169.9c0.1,0.5,0.2,4.6,0.7,4.8c2.1,0.2,4.3,0.2,6.4,0c0.4-0.2,0.9-4.8,0.8-4.8
		C217,169.9,210.2,169.9,209.6,169.9z"/>
	<path class="st24" d="M209.2,170.1c0.2,0.2,2,0.1,4.5,0.1c2.2,0,4,0.2,4.2-0.1s-0.4-0.3-0.6-0.3c-1.5,0.1-6.1,0-7.6,0
		C209.7,169.8,209,169.8,209.2,170.1z"/>
	<path class="st26" d="M214.4,173.7c-0.6,0.3-1.2,0.2-1.7-0.2c-0.7-0.5-0.8-1.5-0.3-2.2c0.2-0.3,0.6-0.5,1-0.6
		c0.9-0.1,1.7,0.5,1.8,1.4C215.2,172.8,214.9,173.4,214.4,173.7z"/>
	<g id="Calque_17_-_copie_19">
		<polygon class="st27" points="212.2,172.8 213.1,173.6 214.9,171.7 214.4,171.4 213.1,173.3 212.6,172.4 		"/>
	</g>
</g>
<g id="Calque_16_-_copie_21">
	<path class="st23" d="M244.3,193.1c-0.2-0.1-7.1,0-7.4,0s-0.4,0.7-0.3,0.7s7.9,0.2,7.9,0.1C244.6,193.6,244.5,193.3,244.3,193.1z"
		/>
	<path class="st24" d="M244.6,193.1c-0.1,0-0.2,0-0.3,0c-0.8-0.1-7.1,0-7.3,0l0,0c-0.1,0-0.3,0-0.4,0c-0.1,0.1-0.6,0.8-0.4,1.1
		s2-0.3,0.5-0.4c-0.1,0,0.1-0.6,0.3-0.6h0.1c0.9-0.1,6.9,0,7,0l0,0l0,0c0.1,0.1,0.3,0.5,0.2,0.5c-1.5,0.1,0.4,0.6,0.6,0.3
		C244.9,193.7,244.8,193.4,244.6,193.1z"/>
	<path class="st25" d="M236.6,193.9c0.1,0.5,0.2,4.6,0.7,4.8c2.1,0.2,4.3,0.2,6.4,0c0.4-0.2,0.9-4.8,0.8-4.8
		C244,193.9,237.2,193.9,236.6,193.9z"/>
	<path class="st24" d="M236.2,194.1c0.2,0.2,2,0.1,4.5,0.1c2.2,0,4,0.2,4.2-0.1s-0.4-0.3-0.6-0.3c-1.5,0.1-6.1,0-7.6,0
		C236.7,193.8,236,193.8,236.2,194.1z"/>
	<path class="st26" d="M241.4,197.7c-0.6,0.3-1.2,0.2-1.7-0.2c-0.7-0.5-0.8-1.5-0.3-2.2c0.2-0.3,0.6-0.5,1-0.6
		c0.9-0.1,1.7,0.5,1.8,1.4C242.2,196.8,241.9,197.4,241.4,197.7z"/>
	<g id="Calque_17_-_copie_21">
		<polygon class="st27" points="239.2,196.8 240.1,197.6 241.9,195.7 241.4,195.4 240.1,197.3 239.6,196.4 		"/>
	</g>
</g>
<g id="Calque_16_-_copie_22">
	<path class="st23" d="M266.3,201.1c-0.2-0.1-7.1,0-7.4,0s-0.4,0.7-0.3,0.7s7.9,0.2,7.9,0.1C266.6,201.6,266.5,201.3,266.3,201.1z"
		/>
	<path class="st24" d="M266.6,201.1c-0.1,0-0.2,0-0.3,0c-0.8-0.1-7.1,0-7.3,0l0,0c-0.1,0-0.3,0-0.4,0c-0.1,0.1-0.6,0.8-0.4,1.1
		s2-0.3,0.5-0.4c-0.1,0,0.1-0.6,0.3-0.6h0.1c0.9-0.1,6.9,0,7,0l0,0l0,0c0.1,0.1,0.3,0.5,0.2,0.5c-1.5,0.1,0.4,0.6,0.5,0.3
		C266.9,201.7,266.8,201.4,266.6,201.1z"/>
	<path class="st25" d="M258.6,201.9c0.1,0.5,0.2,4.6,0.7,4.8c2.1,0.2,4.3,0.2,6.4,0c0.4-0.2,0.9-4.8,0.8-4.8
		C266,201.9,259.1,201.9,258.6,201.9z"/>
	<path class="st24" d="M258.2,202.1c0.2,0.2,2,0.1,4.5,0.1c2.2,0,4,0.2,4.2-0.1s-0.4-0.3-0.5-0.3c-1.5,0.1-6.1,0-7.6,0
		C258.7,201.8,258,201.8,258.2,202.1z"/>
	<path class="st26" d="M263.4,205.7c-0.6,0.3-1.2,0.2-1.7-0.2c-0.7-0.5-0.8-1.5-0.3-2.2c0.2-0.3,0.6-0.5,1-0.6
		c0.9-0.1,1.7,0.5,1.8,1.4C264.2,204.8,263.9,205.4,263.4,205.7z"/>
	<g id="Calque_17_-_copie_22">
		<polygon class="st27" points="261.2,204.8 262.1,205.6 263.9,203.7 263.4,203.4 262.1,205.3 261.6,204.4 		"/>
	</g>
</g>
<g id="Calque_16_-_copie_23">
	<path class="st23" d="M299.3,202.1c-0.2-0.1-7.1,0-7.4,0s-0.4,0.7-0.3,0.7s7.9,0.2,7.9,0.1C299.6,202.6,299.5,202.3,299.3,202.1z"
		/>
	<path class="st24" d="M299.6,202.1c-0.1,0-0.2,0-0.3,0c-0.8-0.1-7.1,0-7.3,0l0,0c-0.1,0-0.3,0-0.4,0c-0.1,0.1-0.6,0.8-0.4,1.1
		s2-0.3,0.5-0.4c-0.1,0,0.1-0.6,0.3-0.6h0.1c0.9-0.1,6.9,0,7,0l0,0l0,0c0.1,0.1,0.3,0.5,0.2,0.5c-1.5,0.1,0.4,0.6,0.5,0.3
		C299.9,202.7,299.8,202.4,299.6,202.1z"/>
	<path class="st25" d="M291.6,202.9c0.1,0.5,0.2,4.6,0.7,4.8c2.1,0.2,4.3,0.2,6.4,0c0.4-0.2,0.9-4.8,0.8-4.8
		C299,202.9,292.1,202.9,291.6,202.9z"/>
	<path class="st24" d="M291.2,203.1c0.2,0.2,2,0.1,4.5,0.1c2.2,0,4,0.2,4.2-0.1s-0.4-0.3-0.5-0.3c-1.5,0.1-6.1,0-7.6,0
		C291.7,202.8,291,202.8,291.2,203.1z"/>
	<path class="st26" d="M296.4,206.7c-0.6,0.3-1.2,0.2-1.7-0.2c-0.7-0.5-0.8-1.5-0.3-2.2c0.2-0.3,0.6-0.5,1-0.6
		c0.9-0.1,1.7,0.5,1.8,1.4C297.2,205.8,296.9,206.4,296.4,206.7z"/>
	<g id="Calque_17_-_copie_23">
		<polygon class="st27" points="294.2,205.8 295.1,206.6 296.9,204.7 296.4,204.4 295.1,206.3 294.6,205.4 		"/>
	</g>
</g>
<g id="Calque_16_-_copie_24">
	<path class="st23" d="M318.3,192.1c-0.2-0.1-7.1,0-7.4,0s-0.4,0.7-0.3,0.7s7.9,0.2,7.9,0.1C318.6,192.6,318.5,192.3,318.3,192.1z"
		/>
	<path class="st24" d="M318.6,192.1c-0.1,0-0.2,0-0.3,0c-0.8-0.1-7.1,0-7.3,0l0,0c-0.1,0-0.3,0-0.4,0c-0.1,0.1-0.6,0.8-0.4,1.1
		s2-0.3,0.5-0.4c-0.1,0,0.1-0.6,0.3-0.6h0.1c0.9-0.1,6.9,0,7,0l0,0l0,0c0.1,0.1,0.3,0.5,0.2,0.5c-1.5,0.1,0.4,0.6,0.5,0.3
		C318.9,192.7,318.8,192.4,318.6,192.1z"/>
	<path class="st25" d="M310.6,192.9c0.1,0.5,0.2,4.6,0.7,4.8c2.1,0.2,4.3,0.2,6.4,0c0.4-0.2,0.9-4.8,0.8-4.8
		C318,192.9,311.1,192.9,310.6,192.9z"/>
	<path class="st24" d="M310.2,193.1c0.2,0.2,2,0.1,4.5,0.1c2.2,0,4,0.2,4.2-0.1s-0.4-0.3-0.5-0.3c-1.5,0.1-6.1,0-7.6,0
		C310.7,192.8,310,192.8,310.2,193.1z"/>
	<path class="st26" d="M315.4,196.7c-0.6,0.3-1.2,0.2-1.7-0.2c-0.7-0.5-0.8-1.5-0.3-2.2c0.2-0.3,0.6-0.5,1-0.6
		c0.9-0.1,1.7,0.5,1.8,1.4C316.2,195.8,315.9,196.4,315.4,196.7z"/>
	<g id="Calque_17_-_copie_24">
		<polygon class="st27" points="313.2,195.8 314.1,196.6 315.9,194.7 315.4,194.4 314.1,196.3 313.6,195.4 		"/>
	</g>
</g>
<g id="Calque_16_-_copie_25">
	<path class="st23" d="M318.3,169.1c-0.2-0.1-7.1,0-7.4,0s-0.4,0.7-0.3,0.7s7.9,0.2,7.9,0.1C318.6,169.6,318.5,169.3,318.3,169.1z"
		/>
	<path class="st24" d="M318.6,169.1c-0.1,0-0.2,0-0.3,0c-0.8-0.1-7.1,0-7.3,0l0,0c-0.1,0-0.3,0-0.4,0c-0.1,0.1-0.6,0.8-0.4,1.1
		s2-0.3,0.5-0.4c-0.1,0,0.1-0.6,0.3-0.6h0.1c0.9-0.1,6.9,0,7,0l0,0l0,0c0.1,0.1,0.3,0.5,0.2,0.5c-1.5,0.1,0.4,0.6,0.5,0.3
		C318.9,169.7,318.8,169.4,318.6,169.1z"/>
	<path class="st25" d="M310.6,169.9c0.1,0.5,0.2,4.6,0.7,4.8c2.1,0.2,4.3,0.2,6.4,0c0.4-0.2,0.9-4.8,0.8-4.8
		C318,169.9,311.1,169.9,310.6,169.9z"/>
	<path class="st24" d="M310.2,170.1c0.2,0.2,2,0.1,4.5,0.1c2.2,0,4,0.2,4.2-0.1s-0.4-0.3-0.5-0.3c-1.5,0.1-6.1,0-7.6,0
		C310.7,169.8,310,169.8,310.2,170.1z"/>
	<path class="st26" d="M315.4,173.7c-0.6,0.3-1.2,0.2-1.7-0.2c-0.7-0.5-0.8-1.5-0.3-2.2c0.2-0.3,0.6-0.5,1-0.6
		c0.9-0.1,1.7,0.5,1.8,1.4C316.2,172.8,315.9,173.4,315.4,173.7z"/>
	<g id="Calque_17_-_copie_25">
		<polygon class="st27" points="313.2,172.8 314.1,173.6 315.9,171.7 315.4,171.4 314.1,173.3 313.6,172.4 		"/>
	</g>
</g>
<g id="Calque_16_-_copie_26">
	<path class="st23" d="M318.3,148.1c-0.2-0.1-7.1,0-7.4,0s-0.4,0.7-0.3,0.7s7.9,0.2,7.9,0.1C318.6,148.6,318.5,148.3,318.3,148.1z"
		/>
	<path class="st24" d="M318.6,148.1c-0.1,0-0.2,0-0.3,0c-0.8-0.1-7.1,0-7.3,0l0,0c-0.1,0-0.3,0-0.4,0c-0.1,0.1-0.6,0.8-0.4,1.1
		s2-0.3,0.5-0.4c-0.1,0,0.1-0.6,0.3-0.6h0.1c0.9-0.1,6.9,0,7,0l0,0l0,0c0.1,0.1,0.3,0.5,0.2,0.5c-1.5,0.1,0.4,0.6,0.5,0.3
		C318.9,148.7,318.8,148.4,318.6,148.1z"/>
	<path class="st25" d="M310.6,148.9c0.1,0.5,0.2,4.6,0.7,4.8c2.1,0.2,4.3,0.2,6.4,0c0.4-0.2,0.9-4.8,0.8-4.8
		C318,148.9,311.1,148.9,310.6,148.9z"/>
	<path class="st24" d="M310.2,149.1c0.2,0.2,2,0.1,4.5,0.1c2.2,0,4,0.2,4.2-0.1s-0.4-0.3-0.5-0.3c-1.5,0.1-6.1,0-7.6,0
		C310.7,148.8,310,148.8,310.2,149.1z"/>
	<path class="st26" d="M315.4,152.7c-0.6,0.3-1.2,0.2-1.7-0.2c-0.7-0.5-0.8-1.5-0.3-2.2c0.2-0.3,0.6-0.5,1-0.6
		c0.9-0.1,1.7,0.5,1.8,1.4C316.2,151.8,315.9,152.4,315.4,152.7z"/>
	<g id="Calque_17_-_copie_26">
		<polygon class="st27" points="313.2,151.8 314.1,152.6 315.9,150.7 315.4,150.4 314.1,152.3 313.6,151.4 		"/>
	</g>
</g>
<g id="Calque_16_-_copie_27">
	<path class="st23" d="M298.3,141.1c-0.2-0.1-7.1,0-7.4,0s-0.4,0.7-0.3,0.7s7.9,0.2,7.9,0.1C298.6,141.6,298.5,141.3,298.3,141.1z"
		/>
	<path class="st24" d="M298.6,141.1c-0.1,0-0.2,0-0.3,0c-0.8-0.1-7.1,0-7.3,0l0,0c-0.1,0-0.3,0-0.4,0c-0.1,0.1-0.6,0.8-0.4,1.1
		s2-0.3,0.5-0.4c-0.1,0,0.1-0.6,0.3-0.6h0.1c0.9-0.1,6.9,0,7,0l0,0l0,0c0.1,0.1,0.3,0.5,0.2,0.5c-1.5,0.1,0.4,0.6,0.5,0.3
		C298.9,141.7,298.8,141.4,298.6,141.1z"/>
	<path class="st25" d="M290.6,141.9c0.1,0.5,0.2,4.6,0.7,4.8c2.1,0.2,4.3,0.2,6.4,0c0.4-0.2,0.9-4.8,0.8-4.8
		C298,141.9,291.1,141.9,290.6,141.9z"/>
	<path class="st24" d="M290.2,142.1c0.2,0.2,2,0.1,4.5,0.1c2.2,0,4,0.2,4.2-0.1s-0.4-0.3-0.5-0.3c-1.5,0.1-6.1,0-7.6,0
		C290.7,141.8,290,141.8,290.2,142.1z"/>
	<path class="st26" d="M295.4,145.7c-0.6,0.3-1.2,0.2-1.7-0.2c-0.7-0.5-0.8-1.5-0.3-2.2c0.2-0.3,0.6-0.5,1-0.6
		c0.9-0.1,1.7,0.5,1.8,1.4C296.2,144.8,295.9,145.4,295.4,145.7z"/>
	<g id="Calque_17_-_copie_27">
		<polygon class="st27" points="293.2,144.8 294.1,145.6 295.9,143.7 295.4,143.4 294.1,145.3 293.6,144.4 		"/>
	</g>
</g>
<g id="Calque_16_-_copie_28">
	<path class="st23" d="M258.3,140.1c-0.2-0.1-7.1,0-7.4,0s-0.4,0.7-0.3,0.7s7.9,0.2,7.9,0.1C258.6,140.6,258.5,140.3,258.3,140.1z"
		/>
	<path class="st24" d="M258.6,140.1c-0.1,0-0.2,0-0.3,0c-0.8-0.1-7.1,0-7.3,0l0,0c-0.1,0-0.3,0-0.4,0c-0.1,0.1-0.6,0.8-0.4,1.1
		s2-0.3,0.5-0.4c-0.1,0,0.1-0.6,0.3-0.6h0.1c0.9-0.1,6.9,0,7,0l0,0l0,0c0.1,0.1,0.3,0.5,0.2,0.5c-1.5,0.1,0.4,0.6,0.5,0.3
		C258.9,140.7,258.8,140.4,258.6,140.1z"/>
	<path class="st25" d="M250.6,140.9c0.1,0.5,0.2,4.6,0.7,4.8c2.1,0.2,4.3,0.2,6.4,0c0.4-0.2,0.9-4.8,0.8-4.8
		C258,140.9,251.2,140.9,250.6,140.9z"/>
	<path class="st24" d="M250.2,141.1c0.2,0.2,2,0.1,4.5,0.1c2.2,0,4,0.2,4.2-0.1s-0.4-0.3-0.5-0.3c-1.5,0.1-6.1,0-7.6,0
		C250.7,140.8,250,140.8,250.2,141.1z"/>
	<path class="st26" d="M255.4,144.7c-0.6,0.3-1.2,0.2-1.7-0.2c-0.7-0.5-0.8-1.5-0.3-2.2c0.2-0.3,0.6-0.5,1-0.6
		c0.9-0.1,1.7,0.5,1.8,1.4C256.2,143.8,255.9,144.4,255.4,144.7z"/>
	<g id="Calque_17_-_copie_28">
		<polygon class="st27" points="253.2,143.8 254.1,144.6 255.9,142.7 255.4,142.4 254.1,144.3 253.6,143.4 		"/>
	</g>
</g>
<g id="Calque_16_-_copie_29">
	<path class="st23" d="M228,139.6c-0.2-0.1-7.1,0-7.4,0s-0.4,0.7-0.3,0.7s7.9,0.2,7.9,0.1C228.4,140.2,228.2,139.9,228,139.6z"/>
	<path class="st24" d="M228.3,139.6c-0.1,0-0.2,0-0.3,0c-0.8-0.1-7.1,0-7.3,0l0,0c-0.1,0-0.3,0-0.4,0c-0.1,0.1-0.6,0.8-0.4,1.1
		s2-0.3,0.5-0.4c-0.1,0,0.1-0.6,0.3-0.6h0.1c0.9-0.1,6.9,0,7,0l0,0l0,0c0.1,0.1,0.3,0.5,0.2,0.5c-1.5,0.1,0.4,0.6,0.6,0.3
		C228.7,140.2,228.6,139.9,228.3,139.6z"/>
	<path class="st25" d="M220.4,140.4c0.1,0.5,0.2,4.6,0.7,4.8c2.1,0.2,4.3,0.2,6.4,0c0.4-0.2,0.9-4.8,0.8-4.8
		C227.8,140.4,220.9,140.4,220.4,140.4z"/>
	<path class="st24" d="M220,140.7c0.2,0.2,2,0.1,4.5,0.1c2.2,0,4,0.2,4.2-0.1s-0.4-0.3-0.6-0.3c-1.5,0.1-6.1,0-7.6,0
		C220.4,140.3,219.8,140.4,220,140.7z"/>
	<path class="st26" d="M225.2,144.3c-0.6,0.3-1.2,0.2-1.7-0.2c-0.7-0.5-0.8-1.5-0.3-2.2c0.2-0.3,0.6-0.5,1-0.6
		c0.9-0.1,1.7,0.5,1.8,1.3C226,143.3,225.7,143.9,225.2,144.3z"/>
	<g id="Calque_17_-_copie_29">
		<polygon class="st27" points="223,143.3 223.9,144.1 225.6,142.3 225.2,142 223.9,143.8 223.4,143 		"/>
	</g>
</g>
<g id="Calque_16_-_copie_31">
	<path class="st23" d="M214,84.7c-0.2-0.1-7.1,0-7.4,0s-0.4,0.7-0.3,0.7s7.9,0.2,7.9,0.1C214.4,85.2,214.2,84.9,214,84.7z"/>
	<path class="st24" d="M214.3,84.6c-0.1,0-0.2,0-0.3,0c-0.8-0.1-7.1,0-7.3,0l0,0c-0.1,0-0.3,0-0.4,0c-0.1,0.1-0.6,0.8-0.4,1.1
		s2-0.3,0.5-0.3c-0.1,0,0.1-0.6,0.3-0.6h0.1c0.9,0,6.9,0,7,0l0,0l0,0c0.1,0.1,0.3,0.5,0.2,0.5c-1.5,0.1,0.4,0.7,0.6,0.3
		C214.7,85.2,214.6,84.9,214.3,84.6z"/>
	<path class="st25" d="M206.4,85.4c0.1,0.5,0.2,4.6,0.7,4.8c2.1,0.2,4.3,0.2,6.4,0c0.4-0.2,0.9-4.8,0.8-4.8
		C213.8,85.4,206.9,85.4,206.4,85.4z"/>
	<path class="st24" d="M206,85.7c0.2,0.2,2,0.1,4.5,0.1c2.2,0,4,0.2,4.2-0.1s-0.4-0.3-0.6-0.3c-1.5,0.1-6.1,0-7.6,0
		C206.4,85.3,205.8,85.4,206,85.7z"/>
	<path class="st26" d="M211.2,89.3c-0.6,0.3-1.2,0.2-1.7-0.2c-0.7-0.5-0.8-1.5-0.3-2.2c0.2-0.3,0.6-0.5,1-0.6
		c0.9-0.1,1.7,0.5,1.8,1.4C212,88.3,211.7,88.9,211.2,89.3z"/>
	<g id="Calque_17_-_copie_31">
		<polygon class="st27" points="209,88.3 209.9,89.1 211.6,87.3 211.2,87 209.9,88.8 209.4,88 		"/>
	</g>
</g>
<g id="Calque_16_-_copie_2">
	<path class="st23" d="M145.3,235.1c-0.2-0.1-7.1,0-7.4,0s-0.4,0.7-0.3,0.7s7.9,0.2,7.9,0.1C145.6,235.6,145.5,235.3,145.3,235.1z"
		/>
	<path class="st24" d="M145.6,235.1c-0.1,0-0.2,0-0.3,0c-0.8-0.1-7.1,0-7.3,0l0,0c-0.1,0-0.3,0-0.4,0c-0.1,0.1-0.6,0.8-0.4,1.1
		s2-0.3,0.5-0.4c-0.1,0,0.1-0.6,0.3-0.6h0.1c0.9-0.1,6.9,0,7,0l0,0l0,0c0.1,0.1,0.3,0.5,0.2,0.5c-1.5,0.1,0.4,0.6,0.6,0.3
		C145.9,235.7,145.8,235.4,145.6,235.1z"/>
	<path class="st25" d="M137.6,235.9c0.1,0.5,0.2,4.6,0.7,4.8c2.1,0.2,4.3,0.2,6.4,0c0.4-0.2,0.9-4.8,0.8-4.8
		C145,235.9,138.2,235.9,137.6,235.9z"/>
	<path class="st24" d="M137.2,236.1c0.2,0.2,2,0.1,4.5,0.1c2.2,0,4,0.2,4.2-0.1s-0.4-0.3-0.6-0.3c-1.5,0.1-6.1,0-7.6,0
		C137.7,235.8,137,235.8,137.2,236.1z"/>
	<path class="st26" d="M142.4,239.7c-0.6,0.3-1.2,0.2-1.7-0.2c-0.7-0.5-0.8-1.5-0.3-2.2c0.2-0.3,0.6-0.5,1-0.6
		c0.9-0.1,1.7,0.5,1.8,1.4C143.2,238.8,142.9,239.4,142.4,239.7z"/>
	<g id="Calque_17_-_copie_2">
		<polygon class="st27" points="140.2,238.8 141.1,239.6 142.9,237.7 142.4,237.4 141.1,239.3 140.6,238.4 		"/>
	</g>
</g>
<g id="Calque_16_-_copie_3">
	<path class="st23" d="M145.3,205.1c-0.2-0.1-7.1,0-7.4,0s-0.4,0.7-0.3,0.7s7.9,0.2,7.9,0.1C145.6,205.6,145.5,205.3,145.3,205.1z"
		/>
	<path class="st24" d="M145.6,205.1c-0.1,0-0.2,0-0.3,0c-0.8-0.1-7.1,0-7.3,0l0,0c-0.1,0-0.3,0-0.4,0c-0.1,0.1-0.6,0.8-0.4,1.1
		s2-0.3,0.5-0.4c-0.1,0,0.1-0.6,0.3-0.6h0.1c0.9-0.1,6.9,0,7,0l0,0l0,0c0.1,0.1,0.3,0.5,0.2,0.5c-1.5,0.1,0.4,0.6,0.6,0.3
		C145.9,205.7,145.8,205.4,145.6,205.1z"/>
	<path class="st25" d="M137.6,205.9c0.1,0.5,0.2,4.6,0.7,4.8c2.1,0.2,4.3,0.2,6.4,0c0.4-0.2,0.9-4.8,0.8-4.8
		C145,205.9,138.2,205.9,137.6,205.9z"/>
	<path class="st24" d="M137.2,206.1c0.2,0.2,2,0.1,4.5,0.1c2.2,0,4,0.2,4.2-0.1s-0.4-0.3-0.6-0.3c-1.5,0.1-6.1,0-7.6,0
		C137.7,205.8,137,205.8,137.2,206.1z"/>
	<path class="st26" d="M142.4,209.7c-0.6,0.3-1.2,0.2-1.7-0.2c-0.7-0.5-0.8-1.5-0.3-2.2c0.2-0.3,0.6-0.5,1-0.6
		c0.9-0.1,1.7,0.5,1.8,1.4C143.2,208.8,142.9,209.4,142.4,209.7z"/>
	<g id="Calque_17_-_copie_3">
		<polygon class="st27" points="140.2,208.8 141.1,209.6 142.9,207.7 142.4,207.4 141.1,209.3 140.6,208.4 		"/>
	</g>
</g>
<g id="Calque_16_-_copie_4">
	<path class="st23" d="M145.3,173.1c-0.2-0.1-7.1,0-7.4,0s-0.4,0.7-0.3,0.7s7.9,0.2,7.9,0.1C145.6,173.6,145.5,173.3,145.3,173.1z"
		/>
	<path class="st24" d="M145.6,173.1c-0.1,0-0.2,0-0.3,0c-0.8-0.1-7.1,0-7.3,0l0,0c-0.1,0-0.3,0-0.4,0c-0.1,0.1-0.6,0.8-0.4,1.1
		s2-0.3,0.5-0.4c-0.1,0,0.1-0.6,0.3-0.6h0.1c0.9-0.1,6.9,0,7,0l0,0l0,0c0.1,0.1,0.3,0.5,0.2,0.5c-1.5,0.1,0.4,0.6,0.6,0.3
		C145.9,173.7,145.8,173.4,145.6,173.1z"/>
	<path class="st25" d="M137.6,173.9c0.1,0.5,0.2,4.6,0.7,4.8c2.1,0.2,4.3,0.2,6.4,0c0.4-0.2,0.9-4.8,0.8-4.8
		C145,173.9,138.2,173.9,137.6,173.9z"/>
	<path class="st24" d="M137.2,174.1c0.2,0.2,2,0.1,4.5,0.1c2.2,0,4,0.2,4.2-0.1s-0.4-0.3-0.6-0.3c-1.5,0.1-6.1,0-7.6,0
		C137.7,173.8,137,173.8,137.2,174.1z"/>
	<path class="st26" d="M142.4,177.7c-0.6,0.3-1.2,0.2-1.7-0.2c-0.7-0.5-0.8-1.5-0.3-2.2c0.2-0.3,0.6-0.5,1-0.6
		c0.9-0.1,1.7,0.5,1.8,1.4C143.2,176.8,142.9,177.4,142.4,177.7z"/>
	<g id="Calque_17_-_copie_4">
		<polygon class="st27" points="140.2,176.8 141.1,177.6 142.9,175.7 142.4,175.4 141.1,177.3 140.6,176.4 		"/>
	</g>
</g>
<g id="Calque_16_-_copie_5">
	<path class="st23" d="M145.3,148.1c-0.2-0.1-7.1,0-7.4,0s-0.4,0.7-0.3,0.7s7.9,0.2,7.9,0.1C145.6,148.6,145.5,148.3,145.3,148.1z"
		/>
	<path class="st24" d="M145.6,148.1c-0.1,0-0.2,0-0.3,0c-0.8-0.1-7.1,0-7.3,0l0,0c-0.1,0-0.3,0-0.4,0c-0.1,0.1-0.6,0.8-0.4,1.1
		s2-0.3,0.5-0.4c-0.1,0,0.1-0.6,0.3-0.6h0.1c0.9-0.1,6.9,0,7,0l0,0l0,0c0.1,0.1,0.3,0.5,0.2,0.5c-1.5,0.1,0.4,0.6,0.6,0.3
		C145.9,148.7,145.8,148.4,145.6,148.1z"/>
	<path class="st25" d="M137.6,148.9c0.1,0.5,0.2,4.6,0.7,4.8c2.1,0.2,4.3,0.2,6.4,0c0.4-0.2,0.9-4.8,0.8-4.8
		C145,148.9,138.2,148.9,137.6,148.9z"/>
	<path class="st24" d="M137.2,149.1c0.2,0.2,2,0.1,4.5,0.1c2.2,0,4,0.2,4.2-0.1s-0.4-0.3-0.6-0.3c-1.5,0.1-6.1,0-7.6,0
		C137.7,148.8,137,148.8,137.2,149.1z"/>
	<path class="st26" d="M142.4,152.7c-0.6,0.3-1.2,0.2-1.7-0.2c-0.7-0.5-0.8-1.5-0.3-2.2c0.2-0.3,0.6-0.5,1-0.6
		c0.9-0.1,1.7,0.5,1.8,1.4C143.2,151.8,142.9,152.4,142.4,152.7z"/>
	<g id="Calque_17_-_copie_5">
		<polygon class="st27" points="140.2,151.8 141.1,152.6 142.9,150.7 142.4,150.4 141.1,152.3 140.6,151.4 		"/>
	</g>
</g>
<g id="Calque_16_-_copie_6">
	<path class="st23" d="M145.3,128.1c-0.2-0.1-7.1,0-7.4,0s-0.4,0.7-0.3,0.7s7.9,0.2,7.9,0.1C145.6,128.6,145.5,128.3,145.3,128.1z"
		/>
	<path class="st24" d="M145.6,128.1c-0.1,0-0.2,0-0.3,0c-0.8-0.1-7.1,0-7.3,0l0,0c-0.1,0-0.3,0-0.4,0c-0.1,0.1-0.6,0.8-0.4,1.1
		s2-0.3,0.5-0.4c-0.1,0,0.1-0.6,0.3-0.6h0.1c0.9-0.1,6.9,0,7,0l0,0l0,0c0.1,0.1,0.3,0.5,0.2,0.5c-1.5,0.1,0.4,0.6,0.6,0.3
		C145.9,128.7,145.8,128.4,145.6,128.1z"/>
	<path class="st25" d="M137.6,128.9c0.1,0.5,0.2,4.6,0.7,4.8c2.1,0.2,4.3,0.2,6.4,0c0.4-0.2,0.9-4.8,0.8-4.8
		C145,128.9,138.2,128.9,137.6,128.9z"/>
	<path class="st24" d="M137.2,129.1c0.2,0.2,2,0.1,4.5,0.1c2.2,0,4,0.2,4.2-0.1s-0.4-0.3-0.6-0.3c-1.5,0.1-6.1,0-7.6,0
		C137.7,128.8,137,128.8,137.2,129.1z"/>
	<path class="st26" d="M142.4,132.7c-0.6,0.3-1.2,0.2-1.7-0.2c-0.7-0.5-0.8-1.5-0.3-2.2c0.2-0.3,0.6-0.5,1-0.6
		c0.9-0.1,1.7,0.5,1.8,1.4C143.2,131.8,142.9,132.4,142.4,132.7z"/>
	<g id="Calque_17_-_copie_6">
		<polygon class="st27" points="140.2,131.8 141.1,132.6 142.9,130.7 142.4,130.4 141.1,132.3 140.6,131.4 		"/>
	</g>
</g>
<g id="Calque_16_-_copie_7">
	<path class="st23" d="M145.3,88.1c-0.2-0.1-7.1,0-7.4,0s-0.4,0.7-0.3,0.7s7.9,0.2,7.9,0.1C145.6,88.6,145.5,88.3,145.3,88.1z"/>
	<path class="st24" d="M145.6,88.1c-0.1,0-0.2,0-0.3,0c-0.8-0.1-7.1,0-7.3,0l0,0c-0.1,0-0.3,0-0.4,0c-0.1,0.1-0.6,0.8-0.4,1.1
		s2-0.3,0.5-0.3c-0.1,0,0.1-0.6,0.3-0.6h0.1c0.9,0,6.9,0,7,0l0,0l0,0c0.1,0.1,0.3,0.5,0.2,0.5c-1.5,0.1,0.4,0.7,0.6,0.3
		C145.9,88.7,145.8,88.4,145.6,88.1z"/>
	<path class="st25" d="M137.6,88.8c0.1,0.5,0.2,4.6,0.7,4.8c2.1,0.2,4.3,0.2,6.4,0c0.4-0.2,0.9-4.8,0.8-4.8
		C145,88.9,138.2,88.8,137.6,88.8z"/>
	<path class="st24" d="M137.2,89.1c0.2,0.2,2,0.1,4.5,0.1c2.2,0,4,0.2,4.2-0.1s-0.4-0.3-0.6-0.3c-1.5,0.1-6.1,0-7.6,0
		C137.7,88.8,137,88.8,137.2,89.1z"/>
	<path class="st26" d="M142.4,92.7c-0.6,0.3-1.2,0.2-1.7-0.2c-0.7-0.5-0.8-1.5-0.3-2.2c0.2-0.3,0.6-0.5,1-0.6
		c0.9-0.1,1.7,0.5,1.8,1.4C143.3,91.8,142.9,92.4,142.4,92.7z"/>
	<g id="Calque_17_-_copie_7">
		<polygon class="st27" points="140.2,91.8 141.1,92.6 142.9,90.7 142.4,90.4 141.1,92.3 140.6,91.4 		"/>
	</g>
</g>
<g id="Calque_16_-_copie">
	<path class="st28" d="M227.3,311.1c-0.2-0.1-7.1,0-7.4,0s-0.4,0.7-0.3,0.7s7.9,0.2,7.9,0.1C227.6,311.6,227.5,311.3,227.3,311.1z"
		/>
	<path class="st29" d="M227.6,311.1c-0.1,0-0.2,0-0.3,0c-0.8-0.1-7.1,0-7.3,0l0,0c-0.1,0-0.3,0-0.4,0c-0.1,0.1-0.6,0.8-0.4,1.1
		s2-0.3,0.5-0.4c-0.1,0,0.1-0.5,0.3-0.6h0.1c0.9,0,6.9,0,7,0l0,0l0,0c0.1,0.1,0.3,0.5,0.2,0.5c-1.5,0.1,0.4,0.6,0.6,0.3
		C227.9,311.7,227.8,311.4,227.6,311.1z"/>
	<path class="st30" d="M219.6,311.9c0.1,0.5,0.2,4.6,0.7,4.7c2.1,0.2,4.3,0.2,6.4,0c0.4-0.2,0.9-4.8,0.8-4.7H219.6z"/>
	<path class="st29" d="M219.2,312.1c0.2,0.2,2,0.1,4.5,0.1c2.2,0,4,0.2,4.2-0.1s-0.4-0.3-0.6-0.3c-1.5,0.1-6.1,0-7.6,0
		C219.7,311.8,219,311.8,219.2,312.1z"/>
	<path class="st26" d="M224.4,315.7c-0.6,0.3-1.2,0.2-1.7-0.2c-0.7-0.5-0.8-1.5-0.3-2.2c0.2-0.3,0.6-0.5,1-0.6
		c0.9-0.1,1.7,0.5,1.8,1.4C225.2,314.8,224.9,315.4,224.4,315.7z"/>
	<g id="Calque_17_-_copie">
		<polygon class="st31" points="222.5,313.7 223,313.3 224.6,315.4 224.5,315.4 		"/>
		<polygon class="st31" points="224.3,313.3 224.7,313.7 222.7,315.4 222.6,315.3 		"/>
	</g>
</g>
<g id="Calque_16_-_copie_15">
	<path class="st28" d="M287.3,235.1c-0.2-0.1-7.1,0-7.4,0s-0.4,0.7-0.3,0.7s7.9,0.2,7.9,0.1C287.6,235.6,287.5,235.3,287.3,235.1z"
		/>
	<path class="st29" d="M287.6,235.1c-0.1,0-0.2,0-0.3,0c-0.8-0.1-7.1,0-7.3,0l0,0c-0.1,0-0.3,0-0.4,0c-0.1,0.1-0.6,0.8-0.4,1.1
		s2-0.3,0.5-0.4c-0.1,0,0.1-0.6,0.3-0.6h0.1c0.9-0.1,6.9,0,7,0l0,0l0,0c0.1,0.1,0.3,0.5,0.2,0.5c-1.5,0.1,0.4,0.6,0.5,0.3
		C287.9,235.7,287.8,235.4,287.6,235.1z"/>
	<path class="st30" d="M279.6,235.9c0.1,0.5,0.2,4.6,0.7,4.8c2.1,0.2,4.3,0.2,6.4,0c0.4-0.2,0.9-4.8,0.8-4.8
		C287,235.9,280.1,235.9,279.6,235.9z"/>
	<path class="st29" d="M279.2,236.1c0.2,0.2,2,0.1,4.5,0.1c2.2,0,4,0.2,4.2-0.1s-0.4-0.3-0.5-0.3c-1.5,0.1-6.1,0-7.6,0
		C279.7,235.8,279,235.8,279.2,236.1z"/>
	<path class="st26" d="M284.4,239.7c-0.6,0.3-1.2,0.2-1.7-0.2c-0.7-0.5-0.8-1.5-0.3-2.2c0.2-0.3,0.6-0.5,1-0.6
		c0.9-0.1,1.7,0.5,1.8,1.4C285.2,238.8,284.9,239.4,284.4,239.7z"/>
	<g id="Calque_17_-_copie_15">
		<polygon class="st31" points="282.5,237.7 283,237.3 284.6,239.4 284.5,239.4 		"/>
		<polygon class="st31" points="284.3,237.3 284.7,237.7 282.7,239.4 282.6,239.3 		"/>
	</g>
</g>
<g id="Calque_16_-_copie_20">
	<path class="st28" d="M241.3,169.1c-0.2-0.1-7.1,0-7.4,0s-0.4,0.7-0.3,0.7s7.9,0.2,7.9,0.1C241.6,169.6,241.5,169.3,241.3,169.1z"
		/>
	<path class="st29" d="M241.6,169.1c-0.1,0-0.2,0-0.3,0c-0.8-0.1-7.1,0-7.3,0l0,0c-0.1,0-0.3,0-0.4,0c-0.1,0.1-0.6,0.8-0.4,1.1
		s2-0.3,0.5-0.4c-0.1,0,0.1-0.6,0.3-0.6h0.1c0.9-0.1,6.9,0,7,0l0,0l0,0c0.1,0.1,0.3,0.5,0.2,0.5c-1.5,0.1,0.4,0.6,0.6,0.3
		C241.9,169.7,241.8,169.4,241.6,169.1z"/>
	<path class="st30" d="M233.6,169.9c0.1,0.5,0.2,4.6,0.7,4.8c2.1,0.2,4.3,0.2,6.4,0c0.4-0.2,0.9-4.8,0.8-4.8
		C241,169.9,234.2,169.9,233.6,169.9z"/>
	<path class="st29" d="M233.2,170.1c0.2,0.2,2,0.1,4.5,0.1c2.2,0,4,0.2,4.2-0.1s-0.4-0.3-0.6-0.3c-1.5,0.1-6.1,0-7.6,0
		C233.7,169.8,233,169.8,233.2,170.1z"/>
	<path class="st26" d="M238.4,173.7c-0.6,0.3-1.2,0.2-1.7-0.2c-0.7-0.5-0.8-1.5-0.3-2.2c0.2-0.3,0.6-0.5,1-0.6
		c0.9-0.1,1.7,0.5,1.8,1.4C239.2,172.8,238.9,173.4,238.4,173.7z"/>
	<g id="Calque_17_-_copie_20">
		<polygon class="st31" points="236.5,171.7 237,171.3 238.6,173.4 238.5,173.4 		"/>
		<polygon class="st31" points="238.3,171.3 238.7,171.7 236.7,173.4 236.6,173.3 		"/>
	</g>
</g>
<g id="Calque_16_-_copie_30">
	<path class="st28" d="M215.3,119.1c-0.2-0.1-7.1,0-7.4,0s-0.4,0.7-0.3,0.7s7.9,0.2,7.9,0.1C215.6,119.6,215.5,119.3,215.3,119.1z"
		/>
	<path class="st29" d="M215.6,119.1c-0.1,0-0.2,0-0.3,0c-0.8-0.1-7.1,0-7.3,0l0,0c-0.1,0-0.3,0-0.4,0c-0.1,0.1-0.6,0.8-0.4,1.1
		s2-0.3,0.5-0.4c-0.1,0,0.1-0.6,0.3-0.6h0.1c0.9-0.1,6.9,0,7,0l0,0l0,0c0.1,0.1,0.3,0.5,0.2,0.5c-1.5,0.1,0.4,0.6,0.6,0.3
		C215.9,119.7,215.8,119.4,215.6,119.1z"/>
	<path class="st30" d="M207.6,119.9c0.1,0.5,0.2,4.6,0.7,4.8c2.1,0.2,4.3,0.2,6.4,0c0.4-0.2,0.9-4.8,0.8-4.8
		C215,119.9,208.2,119.9,207.6,119.9z"/>
	<path class="st29" d="M207.2,120.1c0.2,0.2,2,0.1,4.5,0.1c2.2,0,4,0.2,4.2-0.1s-0.4-0.3-0.6-0.3c-1.5,0.1-6.1,0-7.6,0
		C207.7,119.8,207,119.8,207.2,120.1z"/>
	<path class="st26" d="M212.4,123.7c-0.6,0.3-1.2,0.2-1.7-0.2c-0.7-0.5-0.8-1.5-0.3-2.2c0.2-0.3,0.6-0.5,1-0.6
		c0.9-0.1,1.7,0.5,1.8,1.4C213.2,122.8,212.9,123.4,212.4,123.7z"/>
	<g id="Calque_17_-_copie_30">
		<polygon class="st31" points="210.5,121.7 211,121.3 212.6,123.4 212.5,123.4 		"/>
		<polygon class="st31" points="212.3,121.3 212.7,121.7 210.7,123.4 210.6,123.3 		"/>
	</g>
</g>
<g id="Calque_16_-_copie_11">
	<path class="st28" d="M145.3,198.1c-0.2-0.1-7.1,0-7.4,0s-0.4,0.7-0.3,0.7s7.9,0.2,7.9,0.1C145.6,198.6,145.5,198.3,145.3,198.1z"
		/>
	<path class="st29" d="M145.6,198.1c-0.1,0-0.2,0-0.3,0c-0.8-0.1-7.1,0-7.3,0l0,0c-0.1,0-0.3,0-0.4,0c-0.1,0.1-0.6,0.8-0.4,1.1
		s2-0.3,0.5-0.4c-0.1,0,0.1-0.6,0.3-0.6h0.1c0.9-0.1,6.9,0,7,0l0,0l0,0c0.1,0.1,0.3,0.5,0.2,0.5c-1.5,0.1,0.4,0.6,0.6,0.3
		C145.9,198.7,145.8,198.4,145.6,198.1z"/>
	<path class="st30" d="M137.6,198.9c0.1,0.5,0.2,4.6,0.7,4.8c2.1,0.2,4.3,0.2,6.4,0c0.4-0.2,0.9-4.8,0.8-4.8
		C145,198.9,138.2,198.9,137.6,198.9z"/>
	<path class="st29" d="M137.2,199.1c0.2,0.2,2,0.1,4.5,0.1c2.2,0,4,0.2,4.2-0.1s-0.4-0.3-0.6-0.3c-1.5,0.1-6.1,0-7.6,0
		C137.7,198.8,137,198.8,137.2,199.1z"/>
	<path class="st26" d="M142.4,202.7c-0.6,0.3-1.2,0.2-1.7-0.2c-0.7-0.5-0.8-1.5-0.3-2.2c0.2-0.3,0.6-0.5,1-0.6
		c0.9-0.1,1.7,0.5,1.8,1.4C143.2,201.8,142.9,202.4,142.4,202.7z"/>
	<g id="Calque_17_-_copie_11">
		<polygon class="st31" points="140.5,200.7 141,200.3 142.6,202.4 142.5,202.4 		"/>
		<polygon class="st31" points="142.3,200.3 142.7,200.7 140.7,202.4 140.6,202.3 		"/>
	</g>
</g>
<g id="Calque_16_-_copie_8">
	<path class="st28" d="M145.3,106.1c-0.2-0.1-7.1,0-7.4,0s-0.4,0.7-0.3,0.7s7.9,0.2,7.9,0.1C145.6,106.6,145.5,106.3,145.3,106.1z"
		/>
	<path class="st29" d="M145.6,106.1c-0.1,0-0.2,0-0.3,0c-0.8-0.1-7.1,0-7.3,0l0,0c-0.1,0-0.3,0-0.4,0c-0.1,0.1-0.6,0.8-0.4,1.1
		s2-0.3,0.5-0.3c-0.1,0,0.1-0.6,0.3-0.6h0.1c0.9,0,6.9,0,7,0l0,0l0,0c0.1,0.1,0.3,0.5,0.2,0.5c-1.5,0.1,0.4,0.7,0.6,0.3
		C145.9,106.7,145.8,106.4,145.6,106.1z"/>
	<path class="st30" d="M137.6,106.8c0.1,0.5,0.2,4.6,0.7,4.8c2.1,0.2,4.3,0.2,6.4,0c0.4-0.2,0.9-4.8,0.8-4.8
		C145,106.9,138.2,106.8,137.6,106.8z"/>
	<path class="st29" d="M137.2,107.1c0.2,0.2,2,0.1,4.5,0.1c2.2,0,4,0.2,4.2-0.1s-0.4-0.3-0.6-0.3c-1.5,0.1-6.1,0-7.6,0
		C137.7,106.8,137,106.8,137.2,107.1z"/>
	<path class="st26" d="M142.4,110.7c-0.6,0.3-1.2,0.2-1.7-0.2c-0.7-0.5-0.8-1.5-0.3-2.2c0.2-0.3,0.6-0.5,1-0.6
		c0.9-0.1,1.7,0.5,1.8,1.4C143.2,109.8,142.9,110.4,142.4,110.7z"/>
	<g id="Calque_17_-_copie_8">
		<polygon class="st31" points="140.5,108.7 141,108.3 142.6,110.4 142.5,110.4 		"/>
		<polygon class="st31" points="142.3,108.3 142.7,108.7 140.7,110.4 140.6,110.3 		"/>
	</g>
</g>
</svg>
