<?xml version="1.0" encoding="utf-8"?>
<!-- Generator: Adobe Illustrator 24.0.0, SVG Export Plug-In . SVG Version: 6.00 Build 0)  -->
<svg version="1.1" id="Layer_2" xmlns="http://www.w3.org/2000/svg" xmlns:xlink="http://www.w3.org/1999/xlink" x="0px" y="0px"
	 viewBox="0 0 512 512" style="enable-background:new 0 0 512 512;" xml:space="preserve">
<style type="text/css">
	.st0{fill:url(#SVGID_1_);}
	.st1{display:none;}
	.st2{display:inline;fill:url(#SVGID_2_);}
	.st3{display:inline;fill:url(#SVGID_3_);}
	.st4{display:none;fill:url(#SVGID_4_);}
	.st5{display:inline;fill:url(#SVGID_5_);}
	.st6{display:inline;fill:url(#SVGID_6_);}
	.st7{display:inline;fill:url(#SVGID_7_);}
	.st8{display:inline;fill:url(#SVGID_8_);}
	.st9{display:none;fill:url(#SVGID_9_);}
	.st10{display:none;fill:url(#SVGID_10_);}
	.st11{fill:url(#SVGID_11_);}
	.st12{fill:url(#SVGID_12_);}
	.st13{fill:url(#SVGID_13_);}
	.st14{fill:url(#SVGID_14_);}
	.st15{fill:url(#SVGID_15_);}
	.st16{fill:url(#SVGID_16_);}
	.st17{fill:url(#SVGID_17_);}
</style>
<g id="Icon">
	<g id="_60">
		
			<linearGradient id="SVGID_1_" gradientUnits="userSpaceOnUse" x1="29.3" y1="359.3" x2="482.7" y2="812.7" gradientTransform="matrix(1 0 0 1 0 -330)">
			<stop  offset="0.1" style="stop-color:#FFF1AB"/>
			<stop  offset="0.4" style="stop-color:#FFDA24"/>
			<stop  offset="0.51" style="stop-color:#FFC81D"/>
			<stop  offset="0.74" style="stop-color:#FF9A0C"/>
			<stop  offset="0.9" style="stop-color:#FF7700"/>
		</linearGradient>
		<path class="st0" d="M100,0h312c55.2,0,100,44.8,100,100v312c0,55.2-44.8,100-100,100H100C44.8,512,0,467.2,0,412V100
			C0,44.8,44.8,0,100,0z"/>
		<g id="Eyebrows" class="st1">
			
				<linearGradient id="SVGID_2_" gradientUnits="userSpaceOnUse" x1="359.1937" y1="526.2189" x2="359.1937" y2="460.4523" gradientTransform="matrix(1 0 0 1 0 -330)">
				<stop  offset="0" style="stop-color:#3B2828"/>
				<stop  offset="1" style="stop-color:#705454"/>
			</linearGradient>
			<path class="st2" d="M301.5,141.9c4.1-11.6,18.6-15.3,27.7-7.1c8.3,7.5,19.3,15.3,32.6,20s26.8,5.5,37.9,4.9
				C412,159,421,171,416.9,182.6c-1.9,5.3-6.2,9.4-11.6,10.9c-10.7,2.9-30.3,5.5-55.9-3.5c-25.5-9-39.3-23.3-45.8-32.3
				C300.4,153.1,299.6,147.2,301.5,141.9L301.5,141.9z"/>
			
				<linearGradient id="SVGID_3_" gradientUnits="userSpaceOnUse" x1="152.7063" y1="526.2189" x2="152.7063" y2="460.4523" gradientTransform="matrix(1 0 0 1 0 -330)">
				<stop  offset="0" style="stop-color:#3B2828"/>
				<stop  offset="1" style="stop-color:#705454"/>
			</linearGradient>
			<path class="st3" d="M210.4,141.9c-4.1-11.6-18.6-15.3-27.7-7.1c-8.3,7.5-19.3,15.3-32.6,20s-26.8,5.5-37.9,4.9
				C99.9,159,90.9,171,95,182.6c1.9,5.3,6.2,9.4,11.6,10.9c10.7,2.9,30.3,5.5,55.9-3.5s39.3-23.3,45.8-32.3
				C211.5,153.1,212.3,147.2,210.4,141.9L210.4,141.9z"/>
		</g>
		
			<radialGradient id="SVGID_4_" cx="255.9933" cy="720.1254" r="51.1511" gradientTransform="matrix(1 0 0 1 0 -330)" gradientUnits="userSpaceOnUse">
			<stop  offset="0" style="stop-color:#614444"/>
			<stop  offset="0.38" style="stop-color:#583C3C"/>
			<stop  offset="1" style="stop-color:#402828"/>
		</radialGradient>
		<path class="st4" d="M187.6,403.9c0.6-8.4,20.8-37.2,68.4-37.2s67.8,28.9,68.4,37.2c0.5,7.5-4.6,10.6-10.9,9.4
			c-6.3-1.3-21.8-15.9-57.5-15.9s-51.2,14.6-57.5,15.9C192.2,414.5,187,411.4,187.6,403.9L187.6,403.9z"/>
		<g id="Eyes" class="st1">
			
				<radialGradient id="SVGID_5_" cx="345.9" cy="602.9" r="61.1" gradientTransform="matrix(1 0 0 1 0 -330)" gradientUnits="userSpaceOnUse">
				<stop  offset="0.75" style="stop-color:#FFFFFF"/>
				<stop  offset="0.82" style="stop-color:#FAFAFA"/>
				<stop  offset="0.89" style="stop-color:#EEEEEE"/>
				<stop  offset="0.96" style="stop-color:#D9D9D9"/>
				<stop  offset="1" style="stop-color:#CCCCCC"/>
			</radialGradient>
			<circle class="st5" cx="345.9" cy="272.9" r="61.1"/>
			
				<radialGradient id="SVGID_6_" cx="345.9" cy="589.2" r="47.5" gradientTransform="matrix(1 0 0 1 0 -330)" gradientUnits="userSpaceOnUse">
				<stop  offset="0" style="stop-color:#705454"/>
				<stop  offset="0.27" style="stop-color:#674C4C"/>
				<stop  offset="0.71" style="stop-color:#4E3838"/>
				<stop  offset="1" style="stop-color:#3B2828"/>
			</radialGradient>
			<path class="st6" d="M393.4,259.2c0,26.2-21.3,47.5-47.5,47.5s-47.5-21.3-47.5-47.5s21.3-47.5,47.5-47.5c4.7,0,9.2,0.7,13.4,1.9
				c-8.8,3.7-14.9,12.4-14.9,22.6c0,13.5,11,24.5,24.5,24.5c10.2,0,18.9-6.2,22.6-14.9C392.7,250.1,393.3,254.6,393.4,259.2
				L393.4,259.2z"/>
			
				<radialGradient id="SVGID_7_" cx="166.1" cy="602.9" r="61.1" gradientTransform="matrix(1 0 0 1 0 -330)" gradientUnits="userSpaceOnUse">
				<stop  offset="0.75" style="stop-color:#FFFFFF"/>
				<stop  offset="0.82" style="stop-color:#FAFAFA"/>
				<stop  offset="0.89" style="stop-color:#EEEEEE"/>
				<stop  offset="0.96" style="stop-color:#D9D9D9"/>
				<stop  offset="1" style="stop-color:#CCCCCC"/>
			</radialGradient>
			<circle class="st7" cx="166.1" cy="272.9" r="61.1"/>
			
				<radialGradient id="SVGID_8_" cx="166.1" cy="589.2" r="47.5" gradientTransform="matrix(1 0 0 1 0 -330)" gradientUnits="userSpaceOnUse">
				<stop  offset="0" style="stop-color:#705454"/>
				<stop  offset="0.27" style="stop-color:#674C4C"/>
				<stop  offset="0.71" style="stop-color:#4E3838"/>
				<stop  offset="1" style="stop-color:#3B2828"/>
			</radialGradient>
			<path class="st8" d="M213.6,259.2c0,26.2-21.3,47.5-47.5,47.5s-47.5-21.3-47.5-47.5s21.3-47.5,47.5-47.5c4.7,0,9.2,0.7,13.4,1.9
				c-8.8,3.7-14.9,12.4-14.9,22.6c0,13.5,11,24.5,24.5,24.5c10.1,0,18.8-6.2,22.6-14.9C213,250.1,213.6,254.6,213.6,259.2z"/>
		</g>
	</g>
</g>
<linearGradient id="SVGID_9_" gradientUnits="userSpaceOnUse" x1="339.7" y1="334.9898" x2="339.7" y2="305.9898" gradientTransform="matrix(1 0 0 -1 0 511.8898)">
	<stop  offset="0" style="stop-color:#3B2828"/>
	<stop  offset="1" style="stop-color:#705454"/>
</linearGradient>
<path class="st9" d="M367.9,205.9h-56.4c-8,0-14.5-6.5-14.5-14.5l0,0c0-8,6.5-14.5,14.5-14.5h56.4c8,0,14.5,6.5,14.5,14.5l0,0
	C382.4,199.4,375.9,205.9,367.9,205.9z"/>
<linearGradient id="SVGID_10_" gradientUnits="userSpaceOnUse" x1="159.7" y1="334.9898" x2="159.7" y2="305.9898" gradientTransform="matrix(1 0 0 -1 0 511.8898)">
	<stop  offset="0" style="stop-color:#3B2828"/>
	<stop  offset="1" style="stop-color:#705454"/>
</linearGradient>
<path class="st10" d="M187.9,205.9h-56.4c-8,0-14.5-6.5-14.5-14.5l0,0c0-8,6.5-14.5,14.5-14.5h56.4c8,0,14.5,6.5,14.5,14.5l0,0
	C202.4,199.4,195.9,205.9,187.9,205.9z"/>
<linearGradient id="SVGID_11_" gradientUnits="userSpaceOnUse" x1="256" y1="140.9898" x2="256" y2="111.9898" gradientTransform="matrix(1 0 0 -1 0 511.8898)">
	<stop  offset="0" style="stop-color:#3B2828"/>
	<stop  offset="1" style="stop-color:#705454"/>
</linearGradient>
<path class="st11" d="M340.5,399.9h-169c-8,0-14.5-6.5-14.5-14.5l0,0c0-8,6.5-14.5,14.5-14.5h169c8,0,14.5,6.5,14.5,14.5l0,0
	C355,393.4,348.5,399.9,340.5,399.9z"/>
<g id="Eyebrows_1_">
	
		<linearGradient id="SVGID_12_" gradientUnits="userSpaceOnUse" x1="326.5001" y1="442.2416" x2="441.5001" y2="442.2416" gradientTransform="matrix(1 0 0 1 0 -330)">
		<stop  offset="0" style="stop-color:#3B2828"/>
		<stop  offset="1" style="stop-color:#705454"/>
	</linearGradient>
	<path class="st12" d="M441.5,117.9c0,11.5-11.7,19.4-22.4,14.9c-9.7-4.1-21.9-7.5-35.1-7.5s-25.4,3.5-35.1,7.5
		c-10.6,4.4-22.4-3.4-22.4-14.9c0-5.3,2.5-10.2,6.9-13.2c8.5-5.9,25.2-14.3,50.6-14.3s42.1,8.4,50.6,14.3
		C438.9,107.6,441.5,112.6,441.5,117.9L441.5,117.9z"/>
	
		<linearGradient id="SVGID_13_" gradientUnits="userSpaceOnUse" x1="73.0001" y1="442.2416" x2="188.0001" y2="442.2416" gradientTransform="matrix(1 0 0 1 0 -330)">
		<stop  offset="0" style="stop-color:#3B2828"/>
		<stop  offset="1" style="stop-color:#705454"/>
	</linearGradient>
	<path class="st13" d="M73,117.9c0,11.5,11.7,19.4,22.4,14.9c9.7-4.1,21.9-7.5,35.1-7.5s25.4,3.5,35.1,7.5
		c10.6,4.4,22.4-3.4,22.4-14.9c0-5.3-2.6-10.2-6.9-13.2c-8.5-5.9-25.2-14.3-50.6-14.3s-42.1,8.4-50.6,14.3
		C75.6,107.6,73,112.6,73,117.9z"/>
</g>
<g id="Eyes_1_">
	
		<radialGradient id="SVGID_14_" cx="343.8499" cy="281" r="61.13" gradientTransform="matrix(1 0 0 -1 0 511.8898)" gradientUnits="userSpaceOnUse">
		<stop  offset="0.75" style="stop-color:#FFFFFF"/>
		<stop  offset="0.82" style="stop-color:#FAFAFA"/>
		<stop  offset="0.89" style="stop-color:#EEEEEE"/>
		<stop  offset="0.96" style="stop-color:#D9D9D9"/>
		<stop  offset="1" style="stop-color:#CCCCCC"/>
	</radialGradient>
	<circle class="st14" cx="343.8" cy="230.9" r="61.1"/>
	
		<radialGradient id="SVGID_15_" cx="343.8499" cy="280.6399" r="47.5" gradientTransform="matrix(1 0 0 -1 0 511.8898)" gradientUnits="userSpaceOnUse">
		<stop  offset="0" style="stop-color:#705454"/>
		<stop  offset="0.27" style="stop-color:#674C4C"/>
		<stop  offset="0.71" style="stop-color:#4E3838"/>
		<stop  offset="1" style="stop-color:#3B2828"/>
	</radialGradient>
	<path class="st15" d="M391.3,231.3c0,26.2-21.3,47.5-47.5,47.5s-47.5-21.3-47.5-47.5s21.3-47.5,47.5-47.5c4.7,0,9.2,0.7,13.4,1.9
		c-8.8,3.7-14.9,12.4-14.9,22.6c0,13.5,11,24.5,24.5,24.5c10.2,0,18.9-6.2,22.6-14.9C390.7,222.1,391.3,226.6,391.3,231.3
		L391.3,231.3z"/>
	
		<radialGradient id="SVGID_16_" cx="164.1499" cy="281" r="61.13" gradientTransform="matrix(1 0 0 -1 0 511.8898)" gradientUnits="userSpaceOnUse">
		<stop  offset="0.75" style="stop-color:#FFFFFF"/>
		<stop  offset="0.82" style="stop-color:#FAFAFA"/>
		<stop  offset="0.89" style="stop-color:#EEEEEE"/>
		<stop  offset="0.96" style="stop-color:#D9D9D9"/>
		<stop  offset="1" style="stop-color:#CCCCCC"/>
	</radialGradient>
	<circle class="st16" cx="164.1" cy="230.9" r="61.1"/>
	
		<radialGradient id="SVGID_17_" cx="164.1499" cy="280.6399" r="47.5" gradientTransform="matrix(1 0 0 -1 0 511.8898)" gradientUnits="userSpaceOnUse">
		<stop  offset="0" style="stop-color:#705454"/>
		<stop  offset="0.27" style="stop-color:#674C4C"/>
		<stop  offset="0.71" style="stop-color:#4E3838"/>
		<stop  offset="1" style="stop-color:#3B2828"/>
	</radialGradient>
	<path class="st17" d="M211.6,231.3c0,26.2-21.3,47.5-47.5,47.5s-47.5-21.3-47.5-47.5s21.3-47.5,47.5-47.5c4.7,0,9.2,0.7,13.4,1.9
		c-8.8,3.7-14.9,12.4-14.9,22.6c0,13.5,11,24.5,24.5,24.5c10.1,0,18.8-6.2,22.6-14.9C211,222.1,211.6,226.6,211.6,231.3z"/>
</g>
</svg>
