<svg id="Layer_2" viewBox="0 0 512 512" xmlns="http://www.w3.org/2000/svg" xmlns:xlink="http://www.w3.org/1999/xlink" data-name="Layer 2"><linearGradient id="linear-gradient" gradientUnits="userSpaceOnUse" x1="29.29" x2="482.71" y1="29.29" y2="482.71"><stop offset=".1" stop-color="#fff1ab"/><stop offset=".4" stop-color="#ffda24"/><stop offset=".51" stop-color="#ffc81d"/><stop offset=".74" stop-color="#ff9a0c"/><stop offset=".9" stop-color="#f70"/></linearGradient><linearGradient id="linear-gradient-2" gradientUnits="userSpaceOnUse" x1="359.23" x2="359.23" y1="196.19" y2="130.42"><stop offset="0" stop-color="#3b2828"/><stop offset="1" stop-color="#705454"/></linearGradient><linearGradient id="linear-gradient-3" x1="152.71" x2="152.71" xlink:href="#linear-gradient-2" y1="196.19" y2="130.42"/><radialGradient id="radial-gradient" cx="255.97" cy="390.08" gradientUnits="userSpaceOnUse" r="51.16"><stop offset="0" stop-color="#614444"/><stop offset=".38" stop-color="#583c3c"/><stop offset="1" stop-color="#402828"/></radialGradient><radialGradient id="radial-gradient-2" cx="345.85" cy="272.86" fx="345.85" fy="272.86" gradientUnits="userSpaceOnUse" r="61.13"><stop offset=".75" stop-color="#fff"/><stop offset=".82" stop-color="#fafafa"/><stop offset=".89" stop-color="#eee"/><stop offset=".96" stop-color="#d9d9d9"/><stop offset="1" stop-color="#ccc"/></radialGradient><radialGradient id="radial-gradient-3" cx="345.85" cy="259.22" fx="345.85" fy="259.22" gradientUnits="userSpaceOnUse" r="47.5"><stop offset="0" stop-color="#705454"/><stop offset=".27" stop-color="#674c4c"/><stop offset=".71" stop-color="#4e3838"/><stop offset="1" stop-color="#3b2828"/></radialGradient><radialGradient id="radial-gradient-4" cx="166.15" fx="166.15" r="61.13" xlink:href="#radial-gradient-2"/><radialGradient id="radial-gradient-5" cx="166.15" cy="259.22" fx="166.15" fy="259.22" xlink:href="#radial-gradient-3"/><g id="Icon"><g id="_60" data-name="60"><rect fill="url(#linear-gradient)" height="512" rx="100" width="512"/><g id="Eyebrows"><path d="m301.49 141.93c4.08-11.57 18.62-15.31 27.73-7.1 8.31 7.49 19.32 15.28 32.63 19.97s26.77 5.52 37.94 4.9c12.25-.69 21.23 11.34 17.15 22.91-1.87 5.3-6.19 9.38-11.6 10.86-10.67 2.91-30.33 5.48-55.88-3.53-25.55-9-39.26-23.33-45.75-32.28-3.29-4.55-4.1-10.44-2.23-15.73z" fill="url(#linear-gradient-2)"/><path d="m210.44 141.93c-4.08-11.57-18.62-15.31-27.73-7.1-8.31 7.49-19.32 15.28-32.63 19.97s-26.77 5.52-37.94 4.9c-12.25-.69-21.23 11.34-17.15 22.91 1.87 5.3 6.19 9.38 11.6 10.86 10.67 2.91 30.33 5.48 55.88-3.53 25.55-9 39.26-23.33 45.75-32.28 3.29-4.55 4.1-10.44 2.23-15.73z" fill="url(#linear-gradient-3)"/></g><path d="m187.55 403.88c.58-8.35 20.81-37.23 68.41-37.23s67.83 28.88 68.41 37.23c.52 7.49-4.62 10.64-10.94 9.35-6.3-1.29-21.83-15.87-57.48-15.87s-51.17 14.58-57.48 15.87c-6.3 1.29-11.46-1.86-10.94-9.35z" fill="url(#radial-gradient)"/><g id="Eyes"><circle cx="345.85" cy="272.86" fill="url(#radial-gradient-2)" r="61.13"/><path d="m393.35 259.23c0 26.22-21.27 47.49-47.51 47.49s-47.49-21.27-47.49-47.49 21.26-47.51 47.49-47.51c4.67 0 9.18.67 13.43 1.94-8.78 3.72-14.94 12.43-14.94 22.56 0 13.54 10.97 24.51 24.5 24.51 10.16 0 18.85-6.16 22.57-14.95 1.27 4.27 1.94 8.78 1.94 13.45z" fill="url(#radial-gradient-3)"/><circle cx="166.15" cy="272.86" fill="url(#radial-gradient-4)" r="61.13"/><path d="m213.65 259.23c0 26.22-21.26 47.49-47.49 47.49s-47.51-21.27-47.51-47.49 21.27-47.51 47.51-47.51c4.67 0 9.18.67 13.43 1.94-8.78 3.72-14.94 12.43-14.94 22.56 0 13.54 10.97 24.51 24.5 24.51 10.14 0 18.84-6.16 22.56-14.95 1.27 4.27 1.94 8.78 1.94 13.45z" fill="url(#radial-gradient-5)"/></g></g></g></svg>