<svg id="Calque_3_-_copie" data-name="Calque 3 - copie" xmlns="http://www.w3.org/2000/svg" xmlns:xlink="http://www.w3.org/1999/xlink" viewBox="0 0 192.29 191.94"><defs><style>.cls-1{fill:none;}.cls-2{clip-path:url(#clip-path);}.cls-3{fill:#93c020;}.cls-4{fill:#70942c;}.cls-5{fill:#f5e266;}.cls-6{fill:#fcc152;}.cls-7{fill:#dd636f;}.cls-8{fill:#cc586a;}.cls-9{fill:#82a8c7;}.cls-10{fill:#427194;}</style><clipPath id="clip-path" transform="translate(-5.64 -7.56)"><rect class="cls-1" x="-0.12" y="0.12" width="200.24" height="200.17" rx="15"/></clipPath></defs><title>img-dashboard-2</title><g class="cls-2"><path class="cls-3" d="M84.35,140.42A66.43,66.43,0,1,0,17.92,74H84.35Z" transform="translate(-5.64 -7.56)"/><path class="cls-3" d="M109.51,163.52H90.29a5.89,5.89,0,0,0-5.89,5.89V199.5h31V169.41a5.89,5.89,0,0,0-5.89-5.89Z" transform="translate(-5.64 -7.56)"/><path class="cls-4" d="M100.11,163.53a5.88,5.88,0,0,0-5.89,5.89V199.5H84.4V169.42a5.89,5.89,0,0,1,5.89-5.89Z" transform="translate(-5.64 -7.56)"/><path class="cls-5" d="M150.77,87.7H131.56a5.89,5.89,0,0,0-5.89,5.9V199.5h31V93.6a5.89,5.89,0,0,0-5.89-5.9Z" transform="translate(-5.64 -7.56)"/><path class="cls-6" d="M141.37,87.71a5.89,5.89,0,0,0-5.89,5.89V199.5h-9.81V93.59a5.88,5.88,0,0,1,5.89-5.88Z" transform="translate(-5.64 -7.56)"/><path class="cls-7" d="M192,131.62H172.82a5.89,5.89,0,0,0-5.89,5.89v62h31v-62A5.89,5.89,0,0,0,192,131.62Z" transform="translate(-5.64 -7.56)"/><path class="cls-8" d="M182.64,131.62a5.89,5.89,0,0,0-5.89,5.89v62h-9.82v-62a5.89,5.89,0,0,1,5.89-5.89Z" transform="translate(-5.64 -7.56)"/><path class="cls-7" d="M72.07,152.71V86.27H5.64A66.44,66.44,0,0,0,72.07,152.71Z" transform="translate(-5.64 -7.56)"/><path class="cls-9" d="M42.66,174.81H9.58a2.9,2.9,0,0,1,0-5.8H40.8l14.36-31.14a2.9,2.9,0,1,1,5.27,2.43L45.3,173.13a2.93,2.93,0,0,1-2.64,1.68Z" transform="translate(-5.64 -7.56)"/><path class="cls-10" d="M33.69,162.32H9.58a2.9,2.9,0,0,1,0-5.8H33.69a2.9,2.9,0,1,1,0,5.8Z" transform="translate(-5.64 -7.56)"/><path class="cls-9" d="M125,60.2a2.9,2.9,0,0,1-2.53-4.32L141.7,21.56a2.9,2.9,0,0,1,2.53-1.48h40.94a2.9,2.9,0,1,1,0,5.8H145.92L127.5,58.72A2.89,2.89,0,0,1,125,60.2Z" transform="translate(-5.64 -7.56)"/><path class="cls-10" d="M185.17,14.33H156.59a2.9,2.9,0,1,1,0-5.8h28.58a2.9,2.9,0,1,1,0,5.8Z" transform="translate(-5.64 -7.56)"/><path class="cls-10" d="M192.12,75.65H171a2.9,2.9,0,1,1,0-5.8h21.08a2.9,2.9,0,0,1,0,5.8Z" transform="translate(-5.64 -7.56)"/><path class="cls-10" d="M192.12,88.16H171a2.9,2.9,0,0,1,0-5.8h21.08a2.9,2.9,0,1,1,0,5.8Z" transform="translate(-5.64 -7.56)"/><path class="cls-10" d="M192.12,100.66H171a2.9,2.9,0,0,1,0-5.8h21.08a2.9,2.9,0,1,1,0,5.8Z" transform="translate(-5.64 -7.56)"/></g></svg>