<?xml version="1.0" encoding="utf-8"?>
<!-- Generator: Adobe Illustrator 24.0.0, SVG Export Plug-In . SVG Version: 6.00 Build 0)  -->
<svg version="1.1" id="Calque_1" xmlns="http://www.w3.org/2000/svg" xmlns:xlink="http://www.w3.org/1999/xlink" x="0px" y="0px"
	 viewBox="0 0 703.9 514.9" style="enable-background:new 0 0 703.9 514.9;" xml:space="preserve">
<style type="text/css">
	.st0{fill:#F5F5F5;}
	.st1{fill:#E0E0E0;}
	.st2{fill:#EBEBEB;}
	.st3{fill:#FFFFFF;}
	.st4{fill:#263238;}
	.st5{clip-path:url(#SVGID_2_);}
	.st6{fill:#92D205;}
	.st7{fill:#5E7F03;}
	.st8{fill:#371450;}
	.st9{fill:#FF725E;}
	.st10{fill:#52C1DE;}
</style>
<title>img-admin</title>
<g id="Background_Complete">
	<rect x="474" y="325.8" class="st0" width="180.3" height="83.1"/>
	<path class="st1" d="M649.9,405H478.1v-74.8h171.8V405z M479.2,403.8h169.6v-72.6H479.2V403.8z"/>
	<rect x="654.2" y="325.8" class="st1" width="44" height="83.1"/>
	<path class="st1" d="M478.7,353.3h170.7c0.1,0,0.2-0.1,0.2-0.3c0-0.1-0.1-0.2-0.2-0.2H478.7c-0.1,0-0.2,0.1-0.2,0.3
		C478.5,353.2,478.6,353.3,478.7,353.3z"/>
	<path class="st1" d="M564.6,353.1c0.5-7.5,0.5-15.1,0-22.6c0-0.1-0.1-0.2-0.2-0.2c-0.1,0-0.2,0.1-0.2,0.2
		c-0.4,7.5-0.4,15.1,0.1,22.6c0,0.1,0.1,0.2,0.2,0.1C564.5,353.2,564.5,353.1,564.6,353.1L564.6,353.1z"/>
	<path class="st1" d="M610.5,341.7c0,1.3-1,2.3-2.3,2.3s-2.3-1-2.3-2.3s1-2.3,2.3-2.3C609.5,339.4,610.5,340.4,610.5,341.7
		L610.5,341.7z"/>
	<path class="st1" d="M520.9,341.7c0,1.3-1,2.3-2.3,2.3s-2.3-1-2.3-2.3s1-2.3,2.3-2.3l0,0C519.9,339.4,520.9,340.4,520.9,341.7
		L520.9,341.7z"/>
	<path class="st1" d="M566.3,367.5c0,1.3-1,2.3-2.3,2.3s-2.3-1-2.3-2.3s1-2.3,2.3-2.3l0,0C565.3,365.2,566.3,366.3,566.3,367.5
		L566.3,367.5z"/>
	<polygon class="st1" points="495.5,408.9 486.2,461.1 491.5,461.1 508.6,408.9 	"/>
	<polygon class="st1" points="641.5,408.9 649.2,461.2 644,461.2 628.4,408.9 	"/>
	<polygon class="st1" points="676.3,408.9 685.1,461.2 679.9,461.2 663.3,408.9 	"/>
	<path class="st1" d="M566.2,391.1c0,1.3-1,2.3-2.3,2.3s-2.3-1-2.3-2.3s1-2.3,2.3-2.3C565.1,388.7,566.2,389.8,566.2,391.1
		L566.2,391.1z"/>
	<path class="st1" d="M478.7,379h170.7c0.1,0,0.2-0.1,0.2-0.2s-0.1-0.2-0.2-0.2H478.7c-0.1,0-0.2,0.1-0.2,0.2S478.6,379,478.7,379z"
		/>
	
		<rect x="545.3" y="286.6" transform="matrix(1 -5.235945e-03 5.235945e-03 1 -1.5219 3.0019)" class="st1" width="54.5" height="11.1"/>
	
		<rect x="545.5" y="308.4" transform="matrix(1 -5.235945e-03 5.235945e-03 1 -1.6519 3.0198)" class="st0" width="60.8" height="17.2"/>
	<path class="st1" d="M594.7,325.4c-0.3-2.9-0.4-5.7-0.3-8.6c-0.1-2.9,0-5.8,0.3-8.6c0.3,2.9,0.4,5.7,0.3,8.6
		C595.1,319.7,595,322.5,594.7,325.4z"/>
	<path class="st1" d="M597.2,325.4c-0.3-2.9-0.4-5.7-0.3-8.6c-0.1-2.9,0-5.8,0.3-8.6c0.3,2.9,0.4,5.7,0.3,8.6
		C597.6,319.7,597.5,322.5,597.2,325.4z"/>
	<path class="st1" d="M554.8,325.4c-0.2,0-0.3-3.9-0.3-8.6s0.1-8.6,0.3-8.6c0.3,2.9,0.4,5.7,0.3,8.6
		C555.1,319.7,555,322.5,554.8,325.4z"/>
	<path class="st1" d="M557.3,325.4c-0.3-2.9-0.4-5.7-0.3-8.6c-0.1-2.9,0-5.8,0.3-8.6c0.3,2.9,0.4,5.7,0.3,8.6
		C557.7,319.7,557.6,322.5,557.3,325.4z"/>
	<path class="st1" d="M562.9,317.1c0-0.2,6.1-0.3,13.7-0.3s13.7,0.1,13.7,0.3s-6.1,0.3-13.7,0.3S562.9,317.2,562.9,317.1z"/>
	
		<rect x="554.2" y="297.3" transform="matrix(1 -5.235945e-03 5.235945e-03 1 -1.5776 3.1023)" class="st2" width="75" height="11.1"/>
	<path class="st1" d="M618.4,306.8c-2,0-3.6-1.6-3.6-3.5c0-2,1.6-3.6,3.5-3.6c2,0,3.6,1.6,3.6,3.5l0,0
		C622,305.2,620.4,306.8,618.4,306.8z"/>
	<rect x="558.5" y="302.1" class="st1" width="50.2" height="2.2"/>
	<path class="st2" d="M42.8,93.9c0,0-6.4,4.9-0.3,11.3c0.1,0.1,0.2,0.2,0.4,0.2l55.7-0.3c0,0,4.8-5.3,0.8-11.5L42.8,93.9z"/>
	<path class="st1" d="M86.4,99c0,0.1-6.9,0.1-15.5,0.1s-15.5,0-15.5-0.1s6.9-0.1,15.5-0.1S86.4,98.9,86.4,99z"/>
	<path class="st1" d="M77.7,101c0,0.1-3.3,0.1-7.3,0.1s-7.3,0-7.3-0.1s3.3-0.1,7.3-0.1S77.7,100.9,77.7,101z"/>
	<path class="st1" d="M92.1,104.9c0,0,0.1-0.6,0.3-1.7c0.2-1.3,0.3-2.7,0.3-4.1s-0.1-2.7-0.4-4.1c-0.2-1-0.4-1.7-0.3-1.7
		c0.1,0.1,0.1,0.3,0.2,0.4c0.1,0.3,0.2,0.7,0.3,1.2c0.6,2.7,0.6,5.5,0.1,8.2c-0.1,0.5-0.2,0.9-0.3,1.2
		C92.2,104.6,92.2,104.7,92.1,104.9z"/>
	<path class="st1" d="M96.3,93.5c0.1,0.1,0.2,0.3,0.2,0.4c0.1,0.2,0.2,0.3,0.3,0.5c0.1,0.2,0.2,0.4,0.3,0.7c0.2,0.6,0.4,1.2,0.5,1.9
		c0.1,0.8,0.2,1.6,0.2,2.3c0,0.8-0.1,1.6-0.2,2.3c-0.1,0.6-0.3,1.3-0.5,1.9c-0.1,0.3-0.2,0.5-0.3,0.7c-0.1,0.2-0.2,0.4-0.2,0.5
		c-0.1,0.1-0.1,0.3-0.2,0.4c0,0,0.3-0.6,0.6-1.6c0.2-0.6,0.3-1.2,0.4-1.8c0.1-0.8,0.2-1.5,0.2-2.3c0-1.4-0.2-2.8-0.7-4.1
		C96.5,94.1,96.2,93.5,96.3,93.5z"/>
	<path class="st1" d="M51.7,104.9c-0.1-0.1-0.2-0.2-0.3-0.4c-0.1-0.1-0.2-0.3-0.3-0.5s-0.2-0.4-0.3-0.6c-0.2-0.6-0.4-1.2-0.5-1.8
		c-0.2-0.7-0.2-1.5-0.2-2.3s0.1-1.5,0.3-2.2c0.1-0.6,0.3-1.2,0.6-1.8c0.1-0.2,0.2-0.4,0.3-0.6s0.2-0.3,0.3-0.5
		c0.1-0.1,0.2-0.3,0.3-0.4c0,0-0.3,0.6-0.7,1.5c-0.2,0.6-0.4,1.1-0.5,1.7c-0.2,0.7-0.2,1.5-0.3,2.2c0,0.7,0.1,1.5,0.2,2.2
		c0.1,0.6,0.3,1.2,0.5,1.7C51.3,104.4,51.7,104.9,51.7,104.9z"/>
	<path class="st1" d="M45.6,106.3c-0.1-0.1-0.2-0.3-0.3-0.4s-0.2-0.3-0.3-0.5s-0.2-0.5-0.3-0.7c-0.3-0.6-0.5-1.3-0.6-2
		c-0.2-0.8-0.3-1.7-0.3-2.5s0.1-1.7,0.2-2.5c0.1-0.7,0.3-1.4,0.5-2c0.1-0.2,0.2-0.5,0.3-0.7s0.2-0.4,0.3-0.5
		c0.2-0.3,0.3-0.4,0.3-0.4s-0.3,0.7-0.7,1.8c-0.2,0.7-0.4,1.3-0.5,2c-0.1,0.8-0.2,1.6-0.2,2.5c0,0.8,0.1,1.7,0.3,2.5
		c0.1,0.7,0.3,1.3,0.6,1.9C45.3,105.7,45.7,106.3,45.6,106.3z"/>
	<path class="st2" d="M96.7,122v10.7H76V122H96.7z"/>
	<path class="st1" d="M30,127.5c0,0.1,0,0.2,0,0.3c0.2,3.2,2.9,5.7,6.1,5.7h61.5v-0.7H83c-2.9,0-5.3-2.4-5.4-5.3c0,0,0,0,0-0.1l0,0
		c0-2.9,2.4-5.3,5.3-5.3h14.6V121L36,121.2c-3.4,0-6.1,2.8-6.1,6.2C30,127.3,30,127.4,30,127.5z"/>
	<path class="st1" d="M96.7,127.5c0,0.1-4.2,0.1-9.5,0.1s-9.5,0-9.5-0.1s4.2-0.1,9.5-0.1S96.7,127.4,96.7,127.5z"/>
	<path class="st1" d="M96.4,129.9c0,0.1-4,0.1-9,0.1s-9-0.1-9-0.1s4-0.1,9-0.1S96.4,129.8,96.4,129.9z"/>
	<path class="st1" d="M96.7,132.1c0,0.1-3.6,0.1-8.1,0.1s-8.1,0-8.1-0.1s3.6-0.1,8.1-0.1S96.7,132,96.7,132.1z"/>
	<path class="st1" d="M96.7,125.3c0,0.1-4.2,0.1-9.3,0.1s-9.3-0.1-9.3-0.1s4.2-0.1,9.3-0.1S96.7,125.3,96.7,125.3z"/>
	<path class="st1" d="M96.4,123.2c0,0.1-3.7,0.1-8.3,0.1s-8.3-0.1-8.3-0.1s3.7-0.1,8.3-0.1S96.4,123.1,96.4,123.2z"/>
	<path class="st0" d="M37.5,121.3c-0.5,0.5-0.9,1-1.3,1.6c-1.9,2.8-1.9,6.4,0.1,9.1c0.4,0.5,0.9,1,1.3,1.5c-0.2-0.1-0.3-0.2-0.4-0.3
		c-0.4-0.3-0.7-0.7-1-1.1c-2.1-2.7-2.2-6.5-0.1-9.3c0.3-0.4,0.6-0.8,1-1.1C37.2,121.5,37.3,121.4,37.5,121.3z"/>
	<path class="st0" d="M35.4,121.1c-0.5,0.5-0.9,1-1.3,1.6c-0.9,1.4-1.4,3-1.4,4.6s0.6,3.2,1.5,4.5c0.4,0.5,0.9,1,1.3,1.5
		c-0.2-0.1-0.3-0.2-0.4-0.3c-0.4-0.3-0.7-0.7-1-1.1c-2.1-2.7-2.1-6.5-0.1-9.3c0.3-0.4,0.6-0.8,1-1.1
		C35.1,121.3,35.2,121.1,35.4,121.1z"/>
	<path class="st0" d="M77.2,121.3c-0.5,0.5-0.9,1-1.3,1.6c-1.9,2.8-1.9,6.4,0.1,9.1c0.4,0.5,0.9,1,1.3,1.5c-0.2-0.1-0.3-0.2-0.4-0.3
		c-0.4-0.3-0.7-0.7-1-1.1c-2.1-2.7-2.2-6.5-0.2-9.3c0.3-0.4,0.6-0.8,1-1.1C76.8,121.5,77,121.4,77.2,121.3z"/>
	<path class="st0" d="M75.1,121.1c-0.5,0.5-0.9,1-1.3,1.6c-1.9,2.8-1.9,6.4,0.1,9.1c0.4,0.5,0.9,1,1.3,1.5c-0.2-0.1-0.3-0.2-0.4-0.3
		c-0.4-0.3-0.7-0.7-1-1.1c-2.1-2.7-2.1-6.5-0.1-9.3c0.3-0.4,0.6-0.8,1-1.1C74.8,121.3,74.9,121.1,75.1,121.1z"/>
	<path class="st0" d="M44.5,128.9l-0.1-4.3c0-0.4,0-0.8-0.2-1.1c-0.1-0.4-0.4-0.6-0.8-0.7c-0.7-0.1-1.4,0.2-1.8,0.8
		c-0.3,0.7-0.5,1.4-0.4,2.1c0,1.1,0,2.3,0.2,3.4c0,0.5,0.2,1.1,0.4,1.6s0.8,0.8,1.3,0.8c0.5-0.1,1-0.5,1.2-1
		C44.4,130,44.5,129.5,44.5,128.9z"/>
	<path class="st0" d="M68.3,127.7c0,0.1-4.4,0.1-9.9,0.1s-9.9-0.1-9.9-0.1s4.5-0.1,9.9-0.1S68.3,127.6,68.3,127.7z"/>
	<polygon class="st0" points="40.3,120.8 40.2,110.7 45.7,110.7 45.9,120.8 	"/>
	<path class="st1" d="M45.4,112.5c-0.8,0.1-1.7,0.1-2.6,0.1c-0.9,0-1.7,0-2.6-0.1c0.8-0.1,1.7-0.1,2.6-0.1S44.6,112.4,45.4,112.5z"
		/>
	<path class="st1" d="M45.4,114.1c-0.8,0.1-1.7,0.1-2.6,0.1c-0.9,0-1.7,0-2.6-0.1c0.8-0.1,1.7-0.1,2.6-0.1S44.6,114,45.4,114.1z"/>
	<path class="st1" d="M45.4,115.7c-0.8,0.1-1.7,0.1-2.6,0.1c-0.9,0-1.7,0-2.6-0.1c0.8-0.1,1.7-0.1,2.6-0.1
		C43.7,115.5,44.6,115.6,45.4,115.7z"/>
	<path class="st1" d="M45.4,117.2c-0.8,0.1-1.7,0.1-2.6,0.1c-0.9,0-1.7,0-2.6-0.1c0.8-0.1,1.7-0.1,2.6-0.1S44.6,117.1,45.4,117.2z"
		/>
	<path class="st1" d="M45.4,118.8c-0.8,0.1-1.7,0.1-2.6,0.1c-0.9,0-1.7,0-2.6-0.1c0.8-0.1,1.7-0.1,2.6-0.1
		C43.7,118.6,44.6,118.7,45.4,118.8z"/>
	<path class="st2" d="M39.9,110.5h61c0.7,3.6,0.7,7.3,0,10.9H40.2v-0.7h3.7c1,0,1.8-0.8,1.8-1.7l0,0v-6.1c0-1-0.8-1.8-1.8-1.8h-4
		V110.5z"/>
	<path class="st0" d="M98.7,121.5c-0.1,0-0.1-2.5-0.1-5.6s0-5.6,0.1-5.6s0.1,2.5,0.1,5.6S98.7,121.5,98.7,121.5z"/>
	<path class="st1" d="M48.7,121.5c-0.1,0-0.1-2.5-0.1-5.6s0.1-5.6,0.1-5.6s0.1,2.5,0.1,5.6S48.8,121.5,48.7,121.5z"/>
	<path class="st0" d="M99.7,121.5c-0.1,0-0.1-2.5-0.1-5.6s0-5.6,0.1-5.6s0.1,2.5,0.1,5.6S99.8,121.5,99.7,121.5z"/>
	<path class="st1" d="M47.7,121.5c-0.1,0-0.1-2.5-0.1-5.6s0-5.6,0.1-5.6s0.1,2.5,0.1,5.6S47.8,121.5,47.7,121.5z"/>
	<path class="st3" d="M55.4,113.7h0.5l0.7,3.9l1.2-2l-0.3-1.9h0.4l0.2,1.6l0.9-1.6h0.4l-1.1,1.9l0.4,2l2.3-3.9h0.5l-2.7,4.4h-0.4
		L58,116l-1.3,2.1h-0.4L55.4,113.7z"/>
	<path class="st3" d="M63,113.7h0.4l0.8,4.4h-0.4l-0.3-1.4h-1.8l-0.8,1.4h-0.5L63,113.7z M63.4,116.4l-0.3-2.1l-1.3,2.1H63.4z"/>
	<path class="st3" d="M66.2,118.1c-0.2,0-0.4-0.1-0.6-0.2s-0.4-0.2-0.5-0.4c-0.1-0.2-0.2-0.4-0.3-0.6c-0.1-0.2-0.1-0.4-0.1-0.7
		c0-0.3,0.1-0.6,0.2-0.9s0.3-0.6,0.5-0.8c0.2-0.3,0.5-0.5,0.8-0.6c0.3-0.2,0.7-0.2,1-0.2s0.6,0.1,0.9,0.3c0.2,0.2,0.4,0.4,0.4,0.7
		l-0.4,0.2c0-0.1-0.1-0.3-0.2-0.4s-0.2-0.2-0.3-0.2c-0.1-0.1-0.2-0.1-0.3-0.1c-0.1,0-0.2,0-0.3,0c-0.3,0-0.5,0.1-0.8,0.2
		c-0.2,0.1-0.4,0.3-0.6,0.5s-0.3,0.4-0.4,0.7c-0.1,0.2-0.1,0.5-0.1,0.8c0,0.2,0,0.4,0.1,0.6c0,0.2,0.1,0.3,0.2,0.5
		c0.1,0.1,0.2,0.2,0.4,0.3c0.2,0.1,0.3,0.1,0.5,0.1c0.1,0,0.3,0,0.4-0.1c0.1,0,0.3-0.1,0.4-0.1c0.1-0.1,0.3-0.2,0.4-0.3
		c0.1-0.1,0.2-0.2,0.3-0.4l0.3,0.2c-0.1,0.2-0.2,0.3-0.4,0.4c-0.1,0.1-0.3,0.2-0.5,0.3c-0.2,0.1-0.3,0.2-0.5,0.2
		S66.4,118.1,66.2,118.1z"/>
	<path class="st3" d="M70.2,118.1c-0.2,0-0.4,0-0.7-0.1c-0.2-0.1-0.4-0.2-0.5-0.4c-0.1-0.2-0.2-0.4-0.3-0.6
		c-0.1-0.2-0.1-0.4-0.1-0.7c0-0.3,0.1-0.7,0.2-1s0.3-0.6,0.6-0.8c0.2-0.2,0.5-0.4,0.8-0.6c0.3-0.1,0.6-0.2,0.9-0.2
		c0.2,0,0.5,0,0.7,0.2c0.2,0.1,0.4,0.2,0.5,0.4c0.1,0.2,0.2,0.4,0.3,0.6c0.1,0.2,0.1,0.4,0.1,0.7c0,0.3-0.1,0.7-0.2,1
		s-0.3,0.6-0.6,0.8c-0.2,0.2-0.5,0.4-0.8,0.6C70.8,118.1,70.5,118.1,70.2,118.1z M70.3,117.7c0.3,0,0.5-0.1,0.8-0.2
		c0.2-0.1,0.4-0.3,0.6-0.5s0.3-0.5,0.4-0.7s0.1-0.5,0.2-0.8c0-0.2,0-0.4-0.1-0.6c0-0.2-0.1-0.3-0.2-0.5c-0.1-0.1-0.2-0.2-0.4-0.3
		c-0.2-0.1-0.3-0.1-0.5-0.1c-0.3,0-0.5,0.1-0.8,0.2c-0.2,0.1-0.4,0.3-0.6,0.5s-0.3,0.4-0.4,0.7c-0.1,0.2-0.1,0.5-0.2,0.8
		c0,0.2,0,0.4,0.1,0.6c0,0.2,0.1,0.3,0.2,0.5c0.1,0.1,0.2,0.2,0.4,0.3C69.9,117.7,70.1,117.7,70.3,117.7L70.3,117.7z"/>
	<path class="st3" d="M73.9,113.7h0.4l1,3l2.2-3H78l-0.9,4.4h-0.4l0.8-3.6l-2.1,2.8h-0.3l-0.9-2.8l-0.8,3.6H73L73.9,113.7z"/>
	<path class="st3" d="M79.8,118.1c-0.2,0-0.5,0-0.7-0.1s-0.4-0.2-0.5-0.4c-0.1-0.2-0.2-0.4-0.3-0.6c-0.1-0.2-0.1-0.4-0.1-0.7
		c0-0.3,0.1-0.7,0.2-1s0.3-0.6,0.6-0.8c0.2-0.2,0.5-0.4,0.8-0.6c0.3-0.1,0.6-0.2,0.9-0.2c0.2,0,0.5,0,0.7,0.2
		c0.2,0.1,0.3,0.2,0.5,0.4c0.1,0.2,0.2,0.4,0.3,0.6c0.1,0.2,0.1,0.4,0.1,0.7c0,0.3-0.1,0.7-0.2,1c-0.3,0.6-0.7,1.1-1.3,1.4
		C80.4,118.1,80.1,118.1,79.8,118.1z M79.8,117.7c0.3,0,0.5-0.1,0.8-0.2c0.2-0.1,0.4-0.3,0.6-0.5s0.3-0.5,0.4-0.7s0.1-0.5,0.2-0.8
		c0-0.2,0-0.4-0.1-0.6c0-0.2-0.1-0.3-0.2-0.5c-0.2-0.3-0.5-0.4-0.9-0.4c-0.3,0-0.5,0.1-0.8,0.2c-0.2,0.1-0.4,0.3-0.6,0.5
		s-0.3,0.4-0.4,0.7c-0.1,0.2-0.1,0.5-0.2,0.8c0,0.2,0,0.4,0.1,0.6c0,0.2,0.1,0.3,0.2,0.5c0.1,0.1,0.2,0.2,0.4,0.3
		C79.5,117.7,79.7,117.7,79.8,117.7L79.8,117.7z"/>
	<path class="st3" d="M83.8,118.1c-0.6,0-1.1-0.2-1.5-0.6l0.3-0.4c0.1,0.2,0.3,0.3,0.5,0.4c0.3,0.1,0.5,0.2,0.8,0.2s0.6-0.1,0.9-0.2
		c0.2-0.2,0.3-0.4,0.3-0.7c0-0.1,0-0.2-0.1-0.3c-0.1-0.1-0.1-0.1-0.2-0.2s-0.2-0.1-0.3-0.1l-0.5-0.1c-0.2,0-0.3-0.1-0.5-0.1
		c-0.1,0-0.2-0.1-0.3-0.2c-0.1-0.1-0.2-0.1-0.2-0.3c-0.1-0.1-0.1-0.2-0.1-0.3c0-0.2,0-0.4,0.1-0.6s0.2-0.3,0.4-0.5
		c0.2-0.1,0.4-0.2,0.6-0.3c0.2-0.1,0.5-0.1,0.7-0.1s0.5,0,0.7,0.1s0.4,0.2,0.5,0.4l-0.3,0.4c-0.1-0.1-0.2-0.3-0.4-0.3
		c-0.2-0.1-0.4-0.1-0.6-0.1s-0.4,0-0.5,0.1c-0.1,0-0.3,0.1-0.4,0.2s-0.2,0.2-0.2,0.3c-0.1,0.1-0.1,0.2-0.1,0.4
		c0,0.2,0.1,0.3,0.3,0.4c0.1,0.1,0.2,0.1,0.3,0.1l0.4,0.1l0.5,0.1c0.1,0,0.3,0.1,0.4,0.2s0.2,0.2,0.2,0.3c0.1,0.1,0.1,0.2,0.1,0.4
		c0,0.2,0,0.4-0.1,0.6s-0.2,0.3-0.4,0.4c-0.2,0.1-0.4,0.2-0.6,0.3C84.3,118.1,84.1,118.1,83.8,118.1z"/>
	<path class="st1" d="M83.9,112.2L83.9,112.2l6.4,5.2l0.1,0.1h-0.1l-0.9,0.2l-5.4,1.4l0,0l-4.9-2.1l-1.4-0.6l-0.4-0.2l-0.1-0.1l0,0
		h0.1l0.4,0.1l1.4,0.6l5,2.1l0,0l5.4-1.4l0.9-0.2v0.1L83.9,112.2L83.9,112.2"/>
	<polygon class="st1" points="89.7,116.6 90.1,116.9 90.5,116.8 90.3,117.2 90.6,117.6 90.1,117.6 89.8,117.9 89.7,117.5 
		89.2,117.3 89.7,117 	"/>
	<polygon class="st1" points="83.5,118.6 83.8,118.8 84.1,118.7 83.9,119 84.1,119.3 83.8,119.2 83.6,119.5 83.5,119.2 83.3,119.1 
		83.5,118.9 	"/>
	<polygon class="st1" points="76.7,115.8 77.1,115.8 77.3,115.5 77.4,115.9 77.8,116 77.4,116.2 77.4,116.6 77.1,116.4 76.8,116.5 
		76.9,116.1 	"/>
	<polygon class="st1" points="92.6,112.3 93,112.3 93.2,112 93.3,112.3 93.7,112.5 93.4,112.7 93.3,113.1 93,112.8 92.7,112.9 
		92.8,112.6 	"/>
	<polygon class="st1" points="83.5,112 83.8,112 83.9,111.8 84,112.1 84.2,112.2 84,112.3 84,112.5 83.8,112.4 83.6,112.4 
		83.7,112.2 	"/>
	<path class="st1" d="M93.1,112.5c0,0-2.1-0.1-4.7-0.2s-4.7-0.2-4.7-0.2s2.1,0,4.7,0.1S93.1,112.5,93.1,112.5z"/>
	<path class="st1" d="M95.5,110.4H33.6c-0.8-1.8-1-3.6,0-5.2h61.9C96.2,106.9,96.2,108.8,95.5,110.4z"/>
	<rect x="46.4" y="106.7" class="st2" width="33.5" height="1.9"/>
	<path class="st1" d="M36,110.4c-0.2-0.2-0.4-0.4-0.5-0.6c-0.3-0.6-0.5-1.2-0.6-1.8c-0.1-0.6,0-1.3,0.2-1.9c0.1-0.3,0.2-0.5,0.4-0.7
		c0,0.3-0.1,0.5-0.2,0.8c-0.2,0.6-0.2,1.2-0.2,1.8c0.1,0.6,0.2,1.2,0.5,1.8C35.8,110,35.9,110.2,36,110.4z"/>
	<path class="st1" d="M37.3,110.4c-0.2-0.2-0.4-0.4-0.5-0.6c-0.3-0.6-0.5-1.2-0.6-1.8c-0.1-0.6,0-1.3,0.2-1.9
		c0.1-0.3,0.2-0.5,0.4-0.7c0,0.3-0.1,0.5-0.2,0.8c-0.2,0.6-0.2,1.2-0.2,1.8c0.1,0.6,0.2,1.2,0.5,1.8
		C37.1,109.9,37.2,110.2,37.3,110.4z"/>
	<path class="st0" d="M93,110.3c0.2-0.8,0.4-1.7,0.4-2.5c0-0.9-0.2-1.7-0.4-2.5c0.5,0.8,0.7,1.6,0.6,2.5
		C93.7,108.7,93.4,109.5,93,110.3z"/>
	<path class="st0" d="M91.8,110.3c-0.1,0,0.2-1.1,0.2-2.5s-0.3-2.4-0.2-2.5c0.3,0.8,0.5,1.6,0.4,2.5
		C92.3,108.6,92.1,109.5,91.8,110.3z"/>
	
		<rect x="124.7" y="33.7" transform="matrix(1 -5.410415e-03 5.410415e-03 1 -0.2436 0.7349)" class="st2" width="22" height="23.4"/>
	
		<rect x="146.9" y="32.9" transform="matrix(0.9999 -1.000000e-02 1.000000e-02 0.9999 -0.4381 1.5812)" class="st0" width="22" height="23.4"/>
	<path class="st1" d="M124.7,40.3c14.7,0.1,29.3,0.1,44-0.2c0.1,0,0.2-0.2,0.2-0.3s-0.1-0.2-0.2-0.2c-14.6-0.1-29.3,0-43.9,0.3
		c-0.1,0-0.2,0.1-0.2,0.2S124.6,40.3,124.7,40.3L124.7,40.3z"/>
	<rect x="110.9" y="56.8" transform="matrix(1 -5.410415e-03 5.410415e-03 1 -0.3568 0.7092)" class="st2" width="40" height="19"/>
	<rect x="150.8" y="56.5" transform="matrix(1 -5.410415e-03 5.410415e-03 1 -0.3546 0.9251)" class="st0" width="40" height="19"/>
	<path class="st1" d="M110.9,62.2c26.6,0.3,53.3,0,79.8-0.4c0.1,0,0.2-0.2,0.2-0.3s-0.1-0.2-0.2-0.2c-26.6-0.1-53.3-0.1-79.8,0.5
		c-0.1,0-0.2,0.1-0.2,0.2C110.7,62.1,110.8,62.2,110.9,62.2z"/>
	<rect x="74.8" y="164.5" transform="matrix(1 -5.410415e-03 5.410415e-03 1 -0.94 0.5155)" class="st2" width="40" height="19"/>
	
		<rect x="114.6" y="164.3" transform="matrix(1 -5.410415e-03 5.410415e-03 1 -0.9384 0.7308)" class="st0" width="40" height="19"/>
	<path class="st1" d="M74.8,169.9c26.6,0.3,53.3,0,79.8-0.4c0.1,0,0.2-0.2,0.2-0.3s-0.1-0.2-0.2-0.2c-26.6-0.1-53.3-0.1-79.8,0.5
		c-0.1,0-0.2,0.1-0.2,0.2C74.6,169.8,74.7,169.9,74.8,169.9z"/>
	
		<rect x="51.1" y="25.8" transform="matrix(1 -5.410415e-03 5.410415e-03 1 -0.2746 0.3045)" class="st1" width="10.1" height="50.2"/>
	<rect x="61" y="7" transform="matrix(1 -5.410415e-03 5.410415e-03 1 -0.2238 0.358)" class="st2" width="10.1" height="69.1"/>
	<rect x="71.1" y="19.9" transform="matrix(1 -5.410415e-03 5.410415e-03 1 -0.258 0.4279)" class="st0" width="15.7" height="56"/>
	<path class="st1" d="M86.6,30.6c-2.6,0.3-5.2,0.4-7.8,0.3c-2.6,0.1-5.2,0-7.8-0.3c2.6-0.3,5.2-0.4,7.8-0.3
		C81.3,30.3,84,30.4,86.6,30.6z"/>
	<path class="st1" d="M86.6,28.3c-2.6,0.3-5.2,0.4-7.8,0.3c-2.6,0.1-5.2,0-7.8-0.3c2.6-0.3,5.2-0.4,7.8-0.3
		C81.3,27.9,84,28,86.6,28.3z"/>
	<path class="st1" d="M86.6,67.4c-2.6,0.3-5.2,0.4-7.9,0.3c-2.6,0.1-5.2,0-7.8-0.3c2.6-0.3,5.2-0.4,7.8-0.3
		C81.3,67.1,84,67.1,86.6,67.4z"/>
	<path class="st1" d="M86.6,65.1c-2.6,0.3-5.2,0.4-7.8,0.3c-2.6,0.1-5.2,0-7.8-0.3c2.6-0.3,5.2-0.4,7.8-0.3
		C81.3,64.7,84,64.8,86.6,65.1z"/>
	<path class="st1" d="M79,59.9c-0.2,0-0.3-5.7-0.3-12.6s0.1-12.6,0.3-12.6s0.3,5.7,0.3,12.6S79.1,59.9,79,59.9z"/>
	<rect x="86.8" y="33.6" class="st2" width="17.1" height="42.3"/>
	<path class="st1" d="M68.6,18.8c0,1.6-1.3,2.9-2.9,2.9s-2.9-1.3-2.9-2.9s1.3-2.9,2.9-2.9C67.3,15.9,68.6,17.2,68.6,18.8L68.6,18.8z
		"/>
	<rect x="64.8" y="26.8" class="st1" width="1.8" height="41.1"/>
	<rect x="22.8" y="133.8" class="st1" width="177.7" height="6.1"/>
	<rect x="22.8" y="76.1" class="st1" width="177.7" height="6.1"/>
	<rect x="59.1" y="183.7" class="st1" width="141.4" height="5.7"/>
	<rect x="104.9" y="81" class="st1" width="6.8" height="57.4"/>
	<rect x="59.1" y="133.8" class="st1" width="6.8" height="55.6"/>
	<path class="st0" d="M145.6,107.7l-4.2,6c0,0,9.4,2.6,9.4,10.9s-5.7,9.9-12,9.9s-12.2-1.8-12-10.1s8.1-11.5,8.1-11.5l-3.9-5.2
		L145.6,107.7z"/>
	<rect x="696.8" y="31.7" class="st1" width="7" height="151.1"/>
	<path class="st0" d="M595,32.9h100.7c0.1,0,0.1,0,0.1,0.1v149.9c0,0.1,0,0.1-0.1,0.1H595c-0.1,0-0.1,0-0.1-0.1L595,32.9
		C594.9,32.9,595,32.9,595,32.9z"/>
	<path class="st2" d="M696.8,184.2h-103c0,0-0.1,0-0.1-0.1l0,0V31.8c0,0,0-0.1,0.1-0.1l0,0h103c0,0,0.1,0,0.1,0.1l0,0L696.8,184.2
		C696.9,184.1,696.9,184.2,696.8,184.2C696.9,184.2,696.8,184.2,696.8,184.2z M596.2,181.9h98.3c0.1,0,0.1-0.1,0.1-0.1V34.2
		c0-0.1,0-0.1-0.1-0.1h-98.3c-0.1,0-0.1,0-0.1,0.1L596.2,181.9C596.1,181.8,596.1,181.8,596.2,181.9L596.2,181.9z"/>
	<path class="st3" d="M605.2,42.2h80.5c0.1,0,0.1,0,0.1,0.1v131.3c0,0.1,0,0.1-0.1,0.1h-80.5c-0.1,0-0.1,0-0.1-0.1L605.2,42.2
		C605.1,42.2,605.1,42.2,605.2,42.2z"/>
	<path class="st1" d="M640.4,100.4l-8.5-5.1l3.3-5.9c2.1-3.4,5.8-3.6,8.4,0.7l1.5,2.6L640.4,100.4z"/>
	<path class="st1" d="M652.6,104.9l8.6-4.8l3.4,5.8c2,3.5,0.2,6.9-4.8,6.9h-3L652.6,104.9z"/>
	<path class="st1" d="M645.9,99.1l10,0.4l4.6-8.2l-2.9,1.6l-2.3-4.1c-1.3-1.7-1.5-2.4-7.6-2.4h-7.4l0,0c1.7,0.3,3.2,1.4,4,3l4.5,8.2
		L645.9,99.1z"/>
	<path class="st1" d="M650.9,110.1l-5.4,8.4l4.8,8.1l0.1-3.3l4.7,0.1c2.1-0.3,2.8-0.1,5.9-5.4l3.7-6.4l0,0c-1.1,1.3-2.7,2-4.4,1.8
		h-9.4L650.9,110.1z"/>
	<path class="st1" d="M639.1,108.6l-4.6-8.9l-9.4,0.1l2.8,1.8l-2.4,4c-2.3,4.2,1.3,7.3,5.4,7.3h1.8l3.7-6L639.1,108.6z"/>
	<path class="st1" d="M643.2,113.5l-0.1,10.1h-8.3c-1.8-0.1-3.4-1.1-4.2-2.7c-1.2-2.4-5.1-9.6-5.1-9.6c1.1,1.4,2.8,2.2,4.5,2.2
		C635.3,113.6,643.2,113.5,643.2,113.5z"/>
	<polygon class="st0" points="267.1,437.1 267.1,461.8 303.2,461.8 343,461.8 343,437.1 	"/>
	<polygon class="st1" points="263.9,430.2 263.9,437.1 345.7,437.1 345.7,430.2 303.2,430.2 	"/>
	<polygon class="st1" points="304.8,461.8 343,461.8 343,437.1 345.7,437.1 345.7,430.2 303.2,430.2 303.2,436.4 	"/>
	<rect x="277.7" y="441.1" class="st1" width="15.4" height="3.7"/>
	<rect x="275.8" y="449.4" class="st3" width="19.8" height="7.9"/>
	<polygon class="st0" points="284.8,405.5 284.8,430.2 320.9,430.2 360.7,430.2 360.7,405.5 	"/>
	<polygon class="st1" points="281.6,398.6 281.6,405.5 363.4,405.5 363.4,398.6 320.9,398.6 	"/>
	<polygon class="st1" points="322.5,430.2 360.7,430.2 360.7,405.5 363.4,405.5 363.4,398.6 320.9,398.6 320.9,404.9 	"/>
	<rect x="295.4" y="409.5" class="st1" width="15.4" height="3.7"/>
	<rect x="293.4" y="417.9" class="st3" width="19.8" height="7.9"/>
</g>
<g id="Floor">
	<path class="st4" d="M672.3,461c0,0.1-133.3,0.3-297.6,0.3S77,461.1,77,461s133.3-0.2,297.7-0.2S672.3,460.8,672.3,461z"/>
</g>
<g id="Calque_8">
	<g>
		<g>
			<defs>
				<path id="SVGID_1_" d="M221.2,409.5c5.9-17.1,8.9-43.6-8.4-63.9c-46.7-55.2-98.5-40-98.5-40c-2,0.4-4,0.8-6,1.4
					c-4,1.1-7.7,2.9-11.1,5.2c-11.1,7.7-14.2,20.1-18.8,34.1c-6.4,19.4-57.1,4.8-68.3,30.9C0,400.7,20.1,437,51.8,437.7
					c3.6,0.1,7.2-0.1,10.7-0.5c10.8-1.3,19,0.1,26.1,3c18.2,7.3,19.9,23.5,56.4,21.3C174.2,459.7,211.2,438.8,221.2,409.5z"/>
			</defs>
			<clipPath id="SVGID_2_">
				<use xlink:href="#SVGID_1_"  style="overflow:visible;"/>
			</clipPath>
			<g class="st5">
				<rect x="-9.7" y="283.1" class="st3" width="244.1" height="209.7"/>
				<polygon class="st1" points="-1.1,492.7 22.3,492.7 25.9,481.6 4.3,476.9 				"/>
				<path class="st1" d="M26,481.5l-21.6-4.8c-0.1,0-0.1,0-0.1,0.1l0,0l-5.4,15.9c0,0.1,0,0.2,0.1,0.2l0,0h23.4c0.1,0,0.1,0,0.1-0.1
					l3.7-11.1v-0.1C26,481.6,26,481.5,26,481.5z M22.2,492.6H-1L4.4,477l21.4,4.7L22.2,492.6z"/>
				<polygon class="st1" points="-9.7,492.7 -6.2,492.7 -0.4,475.8 -9.7,473.8 				"/>
				<path class="st1" d="M-0.4,475.7l-9.3-2h-0.1v0.1v19c0,0.1,0,0.1,0.1,0.1l0,0h3.4c0.1,0,0.1,0,0.1-0.1l5.8-17
					C-0.3,475.8-0.3,475.8-0.4,475.7C-0.3,475.7-0.4,475.7-0.4,475.7z M-6.3,492.6h-3.2v-18.7l9,2L-6.3,492.6z"/>
				<polygon class="st1" points="-9.7,460.6 3.8,463.6 11.9,439.8 -9.7,433.6 				"/>
				<path class="st1" d="M12,439.7l-21.6-6.2h-0.1c0,0-0.1,0.1,0,0.1v27c0,0.1,0,0.1,0.1,0.1l13.4,3l0,0c0.1,0,0.1,0,0.1-0.1
					l8.2-23.8C12,439.9,12,439.9,12,439.7C12,439.8,12,439.7,12,439.7z M3.7,463.4l-13.3-2.9v-26.7l21.3,6.1L3.7,463.4z"/>
				<polygon class="st1" points="8.5,464.6 30,469.4 38,445.3 16.6,441 				"/>
				<path class="st1" d="M38,445.2l-21.3-4.3c-0.1,0-0.1,0-0.1,0.1l-8.2,23.7v0.1c0,0,0,0,0.1,0.1l21.5,4.8l0,0c0.1,0,0.1,0,0.1-0.1
					l8-24.1C38.1,445.3,38.1,445.2,38,445.2C38.1,445.2,38,445.2,38,445.2z M29.9,469.2l-21.2-4.7l8-23.5l21.1,4.3L29.9,469.2z"/>
				<polygon class="st1" points="38.5,290.6 60.9,296.9 65.7,283.1 27.4,283.1 				"/>
				<path class="st1" d="M65.7,283H27.4c-0.1,0-0.1,0-0.1,0.1s0,0.1,0,0.1l11.2,7.5l0,0l22.4,6.3l0,0c0.1,0,0.1,0,0.1-0.1l4.8-13.8
					C65.7,283.1,65.7,283,65.7,283L65.7,283z M60.9,296.7l-22.3-6.3l-10.8-7.3h37.7L60.9,296.7z"/>
				<path class="st1" d="M123.3,291.5c0.6-3,1.2-5.8,1.8-8.4H94L123.3,291.5z"/>
				<path class="st1" d="M125.1,283H94c-0.1,0-0.1,0-0.1,0.1s0,0.1,0.1,0.1l29.3,8.4h0.1c0,0,0,0,0.1-0.1c0.6-3,1.2-5.8,1.8-8.4V283
					C125.2,283,125.1,283,125.1,283z M123.2,291.4l-28.3-8.2H125C124.4,285.7,123.8,288.5,123.2,291.4z"/>
				<polygon class="st1" points="-9.7,377.7 6.4,381.5 12.2,353.9 -9.7,348.9 				"/>
				<path class="st1" d="M12.3,353.8l-21.9-5h-0.1v0.1v28.8c0,0.1,0,0.1,0.1,0.1l16.1,3.8l0,0h0.1v-0.1l5.8-27.6
					C12.3,353.9,12.3,353.8,12.3,353.8z M6.3,381.4l-15.9-3.7v-28.6l21.6,5L6.3,381.4z"/>
				<polygon class="st1" points="10.2,382.4 30,387 39.3,360.1 16,354.8 				"/>
				<path class="st1" d="M39.3,360L16,354.7h-0.1v0.1l-5.8,27.6c0,0.1,0,0.1,0.1,0.1l19.8,4.6l0,0c0.1,0,0.1,0,0.1-0.1l9.2-26.9
					C39.4,360.1,39.4,360.1,39.3,360L39.3,360z M30,386.9l-19.6-4.6l5.7-27.4l23,5.3L30,386.9z"/>
				<path class="st1" d="M127.9,292.9l35.6,10.2l14.1-20H130C129.4,286,128.7,289.3,127.9,292.9z"/>
				<path class="st1" d="M177.7,283H130c-0.1,0-0.1,0-0.1,0.1c-0.6,3-1.3,6.2-2.1,9.8c0,0.1,0,0.1,0.1,0.1l35.6,10.2l0,0h0.1
					l14.1-20C177.8,283.1,177.8,283.1,177.7,283L177.7,283z M163.5,303l-35.4-10.2l2-9.6h47.3L163.5,303z"/>
				<polygon class="st1" points="222.2,337 234.4,318.1 234.4,284.7 209.4,316.9 				"/>
				<path class="st1" d="M234.4,284.5h-0.1l-25,32.3v0.1l12.8,20.1c0,0,0.1,0.1,0.1,0l0,0h0.1l12.2-18.9c0,0,0,0,0-0.1v-33.4
					C234.5,284.6,234.5,284.6,234.4,284.5z M234.3,318l-12.1,18.7l-12.7-19.8l24.7-31.9v33H234.3z"/>
				<polygon class="st1" points="167.3,304.2 206,315.3 230.9,283.1 182.3,283.1 				"/>
				<path class="st1" d="M230.9,283h-48.7h-0.1l-14.9,21.1v0.1l0.1,0.1l38.6,11.1l0,0h0.1l25-32.2v-0.1
					C231,282.9,231,282.9,230.9,283z M205.9,315.2l-38.4-11l14.8-20.9h48.4L205.9,315.2z"/>
				<path class="st1" d="M204.1,453.9l-3.5,7.6c-0.3,3-0.5,5.8-0.8,8.4l34.7,3V468l-15.6-9.6L204.1,453.9z"/>
				<path class="st1" d="M234.4,467.9l-15.6-9.6l0,0l-14.7-4.6c-0.1,0-0.1,0-0.1,0.1l-3.5,7.6l0,0c-0.3,3-0.5,5.8-0.8,8.4v0.1h0.1
					l34.7,3l0,0h0.1v-0.1L234.4,467.9C234.5,468,234.5,468,234.4,467.9z M234.3,472.7l-34.4-3c0.2-2.6,0.5-5.3,0.8-8.2l3.5-7.5
					l14.6,4.5l15.6,9.6L234.3,472.7z"/>
				<path class="st1" d="M197.6,492.7h36.8v-16.5l-35-3C198.7,481.5,198.1,487.9,197.6,492.7z"/>
				<path class="st1" d="M234.4,476.1l-35-3c-0.1,0-0.1,0-0.1,0.1l0,0c-0.7,7.7-1.3,14.3-1.8,19.5v0.1h0.1h36.9
					c0.1,0,0.1-0.1,0.1-0.1v-16.5C234.5,476.2,234.5,476.1,234.4,476.1z M234.3,492.6h-36.5c0.5-5.2,1.1-11.6,1.8-19.3l34.7,3V492.6
					z"/>
				<polygon class="st1" points="197.4,415.1 234.4,422.3 234.4,405 205,398.3 				"/>
				<polygon class="st1" points="188.5,434.8 207.9,439.4 234.4,445.4 234.4,425.7 196,418.3 				"/>
				<path class="st1" d="M173.5,475l20.7,1.8c0.5-4.9,0.9-9.8,1.3-14.2l-17.4-4L173.5,475z"/>
				<path class="st1" d="M195.5,462.5l-17.4-4c-0.1,0-0.1,0-0.1,0.1l-4.6,16.4v0.1h0.1l20.7,1.8l0,0c0.1,0,0.1,0,0.1-0.1
					C194.7,472.1,195.2,467.2,195.5,462.5C195.6,462.5,195.6,462.5,195.5,462.5z M194.1,476.7l-20.4-1.8l4.5-16.2l17.2,4
					C195,467.2,194.5,472,194.1,476.7L194.1,476.7z"/>
				<path class="st1" d="M168.5,492.7h24.2c0.4-3.9,0.8-8.2,1.2-12.6l-21.3-1.8L168.5,492.7z"/>
				<path class="st1" d="M193.9,480l-21.3-1.8c-0.1,0-0.1,0-0.1,0.1l-4.1,14.5v0.1h0.1h24.3c0.1,0,0.1,0,0.1-0.1
					c0.4-3.7,0.8-7.9,1.2-12.6v-0.1C194,480,193.9,480,193.9,480z M192.6,492.6h-23.9l4-14.2l21.1,1.8
					C193.3,484.9,192.9,489,192.6,492.6L192.6,492.6z"/>
				<polygon class="st1" points="212.1,378 234.4,383.1 234.4,358.5 219.8,355.6 				"/>
				<path class="st1" d="M234.4,358.4l-14.6-2.9c-0.1,0-0.1,0-0.1,0.1l0,0L212,378v0.1c0,0,0,0.1,0.1,0.1l22.3,5.1l0,0h0.1v-0.1
					v-24.6C234.4,358.5,234.4,358.5,234.4,358.4z M234.3,383l-22-5l7.6-22.2l14.4,2.9V383z"/>
				<polygon class="st1" points="220.9,352.4 234.4,355.1 234.4,326.7 224.5,342.1 				"/>
				<path class="st1" d="M234.4,326.6c-0.1,0-0.1,0-0.1,0.1l-9.9,15.4l0,0l-3.5,10.3v0.1c0,0,0,0,0.1,0.1l13.5,2.7l0,0
					c0,0,0,0,0.1,0v-0.1v-28.4C234.5,326.7,234.4,326.6,234.4,326.6z M234.3,355l-13.2-2.6l3.5-10.1l9.7-15.1V355z"/>
				<polygon class="st1" points="205.9,450 221.1,454.7 221.3,454.8 234.4,462.9 234.4,449.8 208.7,443.9 				"/>
				<path class="st1" d="M234.4,449.7l-25.7-5.8c-0.1,0-0.1,0-0.1,0.1l-2.8,6v0.1c0,0,0,0.1,0.1,0.1l15.2,4.7l0.3,0.2l0,0l13.1,8
					h0.1h0.1l0.1-0.1v-13C234.5,449.7,234.5,449.7,234.4,449.7z M234.3,462.7l-12.9-7.9l-0.3-0.2l0,0L206,450l2.7-5.8l25.5,5.8
					L234.3,462.7z"/>
				<path class="st3" d="M249.4,453.2l49.3,26.6l2.6-3.5l-49.9-26.9l-43.4-9.9l-19.3-4.6l16.4-36.6l29.6,6.8l57.9,32l2.6-3.5
					l-56.9-31.4l3.7-17.3l-29.8-6.8l12.4-35.9l47.4-73.6l-4.3-2L222.2,337l-13.3-20.8l-81-23.3c3-14.2,5.1-24.3,5.3-24.9l-2.4-0.5
					l-2.4-0.5c-0.1,0.5-2.3,10.6-5.2,24.4L72.9,277l3.9-11.5l-4.7-1.2l-3.9,11.4l-35.1-10.1l-1.5,4l35.2,10.2L60.9,297l-22.4-6.3
					L8.6,270.4l-3,3.3l30.6,20.7l23.4,6.6l-18.9,55.1l-104.8-24l-1.3,4l104.7,24L30.1,387L-70,363.7l-1.3,4.1l49.2,11.5l-27.4,74.2
					c-7.3,9.3-18.3,23.2-18.9,24l3.9,2.5c1-1.1,17.4-22,19.3-24.4l0.2-0.3l10.6-28.7L12,439.9l-24,69.8l4.7,1.2l24-69.9l21.3,4.3
					l-19.9,60.2l4.7,1.1l20-60.5l53,7l12,57.5l4.8-0.7l-12.2-58.7l0.9-10.1l72.2,16.5l-14.8,52.2l4.7,1l14.8-52.1l17.4,4
					c-1.6,18-4,43.7-4.4,45.2c0-0.1,0-0.2,0.1-0.2l4.6,1.3c0.1-0.3,0.4-1.1,4.6-47.4l3.5-7.6l14.7,4.5l77.8,47.9l2.9-3.4l-78.1-48.1
					l-0.3-0.2l-15.2-4.7l2.8-6L249.4,453.2z M183.8,433.7l-80.3-19l0.8-8.5l6-29.8l89.9,20.8L183.8,433.7z M106.5,371.2l-36.3-8.3
					L88,309l25,7l4.8,1.2C113,340.1,108.1,363.7,106.5,371.2L106.5,371.2z M201.8,393.2l-47.7-11l3.8-12.2l48.1,11L201.8,393.2z
					 M236.3,387.9l-2.7,12.6l-27.1-6.3l4.2-12.2L236.3,387.9z M127.1,297l78.5,22.6l11.7,18.3l-93.8-23.7
					C124.7,308.2,125.9,302.4,127.1,297z M219.2,342.7l-11.8,34.2l-53-12.1l-5,16.3l-38.2-8.8c3.2-15.1,7.4-35.3,11.4-53.9
					L219.2,342.7z M71.5,281l50.9,14.7c-1.2,5.5-2.4,11.3-3.7,17.4l-4.2-1.1l-48.9-13.8L71.5,281z M64.2,302.3l19.2,5.4l-17.9,54.1
					l-20.2-4.6L64.2,302.3z M44,361.3l20.2,4.6L55.3,393l-20.5-4.8L44,361.3z M13.3,435.8L-33,422.6l15.6-42.3L28.7,391L13.3,435.8z
					 M39.3,441.2L18,436.9l15.4-44.8l20.5,4.8L39.3,441.2z M95.6,448.8L44.1,442l14.5-44l40.7,9.5L95.6,448.8z M100.8,399.2
					l-0.8,4.1L60,394l8.9-27.1l36.7,8.4L100.8,399.2z M174.9,453.5l-73.3-16.7l1.6-17.9l78.9,18.7L174.9,453.5z M196.7,458.5
					l-17-3.9l7.1-15.9l17.2,4.1L196.7,458.5z"/>
				<path class="st1" d="M187.8,398.4l-67.5-15.6c-3.3-0.8-6.7,1.1-7.3,4l-4,19.6c0,0.2-0.1,0.3-0.1,0.5l-0.1,0.6
					c-0.2,2.4,1.6,4.6,4.3,5.2l62.8,14.9c2.7,0.7,5.6-0.5,7-3l8.8-19.6C193,402.3,191.1,399.2,187.8,398.4z"/>
				<path class="st1" d="M17.8,392.6l-27.4-6.4c-2.6-0.6-5.4,0.7-6.2,2.9l-9.9,26.7c-0.8,2.3,0.6,4.7,3.3,5.5l27.6,7.9
					c2.7,0.8,5.7-0.5,6.5-2.9l9.7-28.2C22.2,395.7,20.6,393.3,17.8,392.6z"/>
				<path class="st1" d="M17.9,392.5l-27.4-6.4c-2.6-0.7-5.3,0.6-6.4,3l-9.9,26.7h0.1h-0.1c-0.4,1-0.3,2.2,0.2,3.2
					c0.7,1.2,1.8,2.1,3.1,2.5l27.6,7.9c0.5,0.2,1.1,0.2,1.7,0.2c0.8,0,1.7-0.2,2.4-0.5c1.2-0.5,2.1-1.5,2.6-2.7l9.7-28.2
					c0.4-1.1,0.3-2.2-0.3-3.2C20.5,393.7,19.3,392.8,17.9,392.5z M21.3,398.1l-9.7,28.2c-0.4,1.2-1.3,2.1-2.5,2.6s-2.6,0.6-3.9,0.3
					l-27.6-7.9c-1.3-0.3-2.4-1.2-3-2.4c-0.5-0.9-0.5-2-0.2-3l9.9-26.7c0.8-1.9,2.7-3.1,4.7-3c0.4,0,0.9,0.1,1.3,0.2l27.4,6.4
					c1.3,0.3,2.5,1.1,3.2,2.3C21.5,395.9,21.6,397.1,21.3,398.1z"/>
				<polygon class="st3" points="-71.3,451.3 185.1,508 186.4,504 -70.1,447.2 				"/>
				<path d="M186.4,503.9L-70,447.1c-0.1,0-0.1,0-0.2,0.1l-1.2,4.1v0.1c0,0,0,0.1,0.1,0.1l256.4,56.8l0,0c0.1,0,0.1,0,0.1-0.1
					l1.2-4.1C186.4,504,186.4,504,186.4,503.9L186.4,503.9z M185.1,507.9l-256.2-56.7l1.2-3.8l256.2,56.7L185.1,507.9z"/>
				<polygon class="st3" points="-80.9,458 175.5,514.8 176.8,510.7 -79.7,454 				"/>
				<path d="M176.8,510.6l-256.4-56.7c-0.1,0-0.1,0-0.1,0.1l-1.3,4v0.1c0,0,0,0,0.1,0.1L175.5,515l0,0c0.1,0,0.1,0,0.1-0.1l1.2-4.1
					C176.8,510.7,176.8,510.7,176.8,510.6L176.8,510.6z M175.4,514.6l-256.2-56.7l1.2-3.8l256.2,56.7L175.4,514.6z"/>
				<polygon class="st1" points="23.2,421.7 44.2,426.5 49.3,410.8 28.6,406 				"/>
				<polygon class="st1" points="18,436.9 39.3,441.2 43.6,428.1 22.7,423.3 				"/>
				<polygon class="st1" points="29.2,404.4 49.9,409.2 53.9,396.9 33.4,392.1 				"/>
				<polygon class="st1" points="56.2,443.6 75.1,446.1 78.1,436 59.7,431.8 				"/>
				<polygon class="st1" points="85.8,417.4 98.2,420.3 99.3,407.5 89.4,405.2 				"/>
				<polygon class="st1" points="77,446.4 95.6,448.8 96.4,440.2 80,436.4 				"/>
				<polygon class="st1" points="80.5,434.8 96.5,438.5 98,422 85.3,419 				"/>
				<polygon class="st1" points="65.5,412.8 83.9,417 87.6,404.8 69.2,400.5 				"/>
				<polygon class="st1" points="48.9,427.6 58.3,429.7 63.1,414 54.1,411.9 				"/>
				<polygon class="st1" points="44.1,442 54.2,443.4 57.8,431.4 48.3,429.2 				"/>
				<polygon class="st1" points="54.6,410.3 63.6,412.3 67.3,400 58.6,398 				"/>
				<polygon class="st1" points="60.2,430.2 78.6,434.4 83.4,418.6 65,414.4 				"/>
				<path class="st1" d="M70.2,362.9l36.3,8.3c0.5-2.3,1.3-6.3,2.4-11.3L75,348.5L70.2,362.9z"/>
				<path class="st1" d="M88,309l-6,18l32,8.3c1.2-5.9,2.5-12.1,3.8-18.2L113,316L88,309z"/>
				<path class="st1" d="M75.5,346.9l33.7,11.4c1.3-6,2.8-13.3,4.5-21.2l-32.1-8.4L75.5,346.9z"/>
				<polygon class="st1" points="59.7,393.6 99.7,403 100.6,398.8 105.4,375 68.7,366.5 				"/>
				<polygon class="st1" points="101.6,436.8 114.7,439.8 122.1,423.4 103.2,419 				"/>
				<polygon class="st1" points="137.3,445 156.2,449.3 163.5,433.3 144.7,428.8 				"/>
				<polygon class="st1" points="158.1,449.7 174.9,453.5 182,437.6 165.4,433.7 				"/>
				<polygon class="st1" points="116.6,440.2 135.4,444.5 142.8,428.3 124,423.9 				"/>
				<polygon class="st1" points="179.7,454.6 196.6,458.5 203.9,442.8 186.8,438.8 				"/>
				<polygon class="st1" points="154.1,382.2 182.6,388.8 186,376.4 157.9,369.9 				"/>
				<polygon class="st1" points="184.5,389.2 201.8,393.2 206,381 187.9,376.8 				"/>
				<polygon class="st1" points="206.5,394.3 233.6,400.5 236.3,387.9 210.7,382 				"/>
				<polygon class="st1" points="189,372.7 207.4,376.9 212.3,362.7 193,357.7 				"/>
				<polygon class="st1" points="146.4,343.8 167.5,349.3 172.4,331 151.3,325.6 				"/>
				<polygon class="st1" points="169.4,349.8 191.6,355.6 196.6,337.1 174.3,331.4 				"/>
				<polygon class="st1" points="164.7,367.1 187.1,372.3 191.2,357.2 168.9,351.4 				"/>
				<polygon class="st1" points="193.5,356.1 212.8,361.1 219.1,342.8 198.5,337.5 				"/>
				<polygon class="st1" points="137.1,378.2 149.4,381.1 154.4,364.8 162.8,366.7 167.1,350.9 145.9,345.4 				"/>
				<path class="st1" d="M111.2,372.3l24,5.5l8.9-32.9l-25.7-6.7C115.8,350.5,113.3,362.5,111.2,372.3z"/>
				<path class="st1" d="M118.7,336.6l25.8,6.7l4.9-18.2l-26.8-6.8C121.3,324.4,120,330.5,118.7,336.6z"/>
				<polygon class="st1" points="198.7,317.6 193.8,332 217.2,337.9 205.5,319.6 				"/>
				<polygon class="st1" points="157,322.7 191.9,331.5 196.8,317.1 161.5,306.9 				"/>
				<path class="st1" d="M123.4,314.2l31.7,8l4.5-15.8L127,297C125.9,302.4,124.7,308.2,123.4,314.2z"/>
				<path class="st1" d="M90.4,305.2l24.1,6.8l4.2,1.1c1.3-6,2.5-11.9,3.7-17.4l-24.5-7.1L90.4,305.2z"/>
				<polygon class="st1" points="65.6,298.2 88.6,304.7 96,288.1 71.5,281 				"/>
				<polygon class="st1" points="45.4,357.2 65.5,361.8 70.4,347 51.1,340.5 				"/>
				<polygon class="st1" points="51.6,338.9 70.9,345.4 76.9,327.4 57.3,322.3 				"/>
				<polygon class="st1" points="57.9,320.7 77.4,325.8 83.4,307.6 64.2,302.3 				"/>
				<polygon class="st1" points="34.8,388.1 55.3,392.9 64.2,365.8 44,361.2 				"/>
				<path class="st1" d="M162.2,459.4l-45-10.3c-4.1-0.9-8.2,1.5-8.5,5.2c0,0.5,0,1,0.1,1.5l6.1,29.3c0.3,1.1,1.4,1.9,2.6,1.9H155
					c1.1,0.1,2.2-0.6,2.5-1.7l6.6-23.1c0.3-1.2-0.5-2.4-1.7-2.7C162.3,459.4,162.3,459.4,162.2,459.4z"/>
				<path class="st1" d="M162.2,459.3l-45-10.3c-2.2-0.5-4.4-0.1-6.2,1.2c-1.4,0.9-2.3,2.4-2.4,4.1c-0.1,0.5,0,1,0.1,1.5l6.1,29.3
					c0.3,1.2,1.4,2,2.7,2H155c1.2,0.1,2.3-0.7,2.7-1.8l6.6-23.1c0.2-0.6,0.1-1.2-0.2-1.6C163.6,459.9,162.9,459.4,162.2,459.3z
					 M164,462.1l-6.6,23.1c-0.4,1-1.3,1.7-2.4,1.6h-37.5c-1.1,0.1-2.1-0.7-2.4-1.8l-6.1-29.3c-0.1-0.5-0.1-1-0.1-1.4
					c0.2-1.6,1-3,2.3-3.9s2.8-1.4,4.3-1.4c0.6,0,1.1,0.1,1.7,0.2l45,10.3c0.7,0.1,1.2,0.5,1.6,1.1C164,461,164.1,461.6,164,462.1
					L164,462.1z"/>
				<path class="st1" d="M38.3,297.3c-2.1-0.6-4.2-1.5-6-2.8l-7.2-4.9c-3.6-2.4-7.8-3.6-12.1-3.6h-0.3c-10.8,0-19.6,7.5-19.6,16.8
					v26.5c0,7.6,6,14.3,14.6,16.3l13.1,3c10.3,2.4,20.8-2.8,23.9-11.5l6.5-19.1C54,309.3,48.4,300.1,38.3,297.3z"/>
				<path class="st1" d="M38.4,297.2c-2.1-0.6-4.2-1.5-6-2.8l-7.2-4.9c-3.6-2.4-7.9-3.7-12.2-3.6h-0.2c-10.9,0-19.7,7.6-19.7,17
					v26.5c0,7.7,6,14.4,14.6,16.4l13.1,3c1.7,0.4,3.4,0.6,5.1,0.6c3.3,0,6.6-0.7,9.6-2.2c4.3-1.9,7.6-5.6,9.3-10l6.5-19.1
					c1.3-3.9,1-8.1-0.9-11.8C47.7,301.8,43.4,298.5,38.4,297.2z M50.9,318l-6.5,19.1h0.1h-0.1c-1.6,4.4-4.9,7.9-9.1,9.9
					c-4.5,2.2-9.7,2.7-14.5,1.6l-13.1-3c-8.5-2-14.4-8.6-14.4-16.1V303c0-9.2,8.7-16.7,19.5-16.7h0.3c4.3,0,8.5,1.2,12,3.6l7.2,4.9
					c1.9,1.2,3.9,2.2,6.1,2.8c5,1.3,9.2,4.5,11.7,9C51.9,310,52.2,314.2,50.9,318L50.9,318z"/>
			</g>
		</g>
	</g>
	<polygon class="st6" points="103.6,405.4 57.6,394.8 57.1,397.1 105.4,408.3 112.9,377.1 201,399.8 201.7,397.4 111.1,374.1 	"/>
	<circle class="st6" cx="55.8" cy="396.5" r="5.6"/>
	<path class="st7" d="M55.8,392.7c-2.1,0-3.8,1.7-3.8,3.8s1.7,3.8,3.8,3.8s3.8-1.7,3.8-3.8l0,0C59.6,394.4,57.9,392.7,55.8,392.7z"
		/>
	<circle class="st6" cx="201.8" cy="398.5" r="5.6"/>
	<path class="st7" d="M201.8,394.7c-2.1,0-3.8,1.7-3.8,3.8c0,2.1,1.7,3.8,3.8,3.8s3.8-1.7,3.8-3.8l0,0
		C205.6,396.4,203.9,394.7,201.8,394.7z"/>
</g>
<g id="Device">
	<path class="st1" d="M614.2,61L614,366.8c0,9.4-7.7,17.1-17.1,17.1l0,0l-453.8-0.2c-9.4,0-17.1-7.7-17.1-17.1l0,0l0.2-305.9
		c0-9.4,7.7-17.1,17.1-17.1l453.8,0.2C606.6,43.9,614.2,51.6,614.2,61z"/>
	<path class="st4" d="M614.2,61c0,0,0-0.4-0.1-1.1c0-0.4-0.1-0.9-0.1-1.3c-0.1-0.6-0.2-1.2-0.4-1.8c-0.4-1.7-1.1-3.3-2-4.7
		c-1.2-2-2.9-3.8-4.9-5.2c-1.2-0.8-2.5-1.5-3.8-2c-1.5-0.6-3-0.9-4.6-1l-1.3-0.1H385.8H265.4h-67h-53c-1.5,0-3,0-4.5,0.2
		s-2.9,0.6-4.3,1.2c-2.8,1.2-5.2,3.1-7,5.5c-0.4,0.6-0.8,1.3-1.2,1.9c-0.3,0.7-0.6,1.3-0.9,2c-0.5,1.4-0.9,2.9-1,4.4s-0.1,3-0.1,4.6
		v4.6c0,6.1,0,12.3,0,18.6c0,12.5,0,25.1,0,37.8c0,25.5,0,51.4,0,77.9c0,53-0.1,107.8-0.1,163.9c0,1.7,0.3,3.4,0.8,5.1
		c0.5,1.6,1.3,3.2,2.3,4.6s2.2,2.7,3.6,3.7c1.4,1.1,2.9,1.9,4.5,2.5c3.2,1.3,6.8,1,10.2,1h10.4h41.3h80.8l152.7,0.1l138.2,0.1h16.1
		h7.9c1.3,0,2.6,0,3.9-0.1c1.3-0.2,2.5-0.5,3.8-0.9c4.9-1.8,8.7-5.7,10.3-10.6c0.2-0.6,0.3-1.2,0.5-1.8s0.2-1.2,0.3-1.9
		c0.1-1.3,0.1-2.5,0.1-3.8c0-2.5,0-5.1,0-7.6c0-20.1,0-39.3,0-57.8c0.1-73.6,0.1-133.1,0.2-174.3c0-20.6,0.1-36.6,0.1-47.4
		c0-5.4,0-9.6,0-12.3c0-2.8,0-4.2,0-4.2s0,1.4,0,4.2c0,2.8,0,6.9,0,12.3c0,10.8,0,26.8,0,47.4c0,41.2,0,100.7,0,174.3
		c0,18.4,0,37.7,0,57.8v7.6c0,1.3,0,2.5-0.1,3.8c-0.1,0.6-0.2,1.3-0.3,1.9s-0.3,1.3-0.5,1.9c-1.7,5.1-5.5,9.1-10.5,10.9
		c-1.2,0.5-2.5,0.8-3.8,0.9s-2.7,0.2-4,0.1h-24H432.9l-152.7-0.1h-80.8H158h-10.4c-1.7,0-3.5,0-5.2,0c-3.6-0.1-7-1.4-9.8-3.6
		c-1.4-1.1-2.7-2.4-3.7-3.8c-1-1.5-1.8-3.1-2.4-4.8c-0.5-1.7-0.8-3.5-0.8-5.3c0-56.1,0.1-111,0.1-163.9c0-26.5,0-52.4,0.1-77.9
		c0-12.7,0-25.3,0-37.8c0-6.2,0-12.4,0-18.6v-4.5c0-1.5,0-3.1,0.1-4.6c0.2-1.5,0.5-3.1,1.1-4.5c0.3-0.7,0.6-1.4,0.9-2.1
		c0.4-0.7,0.8-1.3,1.3-1.9c1.8-2.5,4.3-4.5,7.1-5.7c1.4-0.6,2.9-1,4.4-1.2s3-0.3,4.5-0.2h17.9h35.1h67l120.4,0.1l174.4,0.2h27.3h9.7
		l1.3,0.1c1.6,0.1,3.2,0.4,4.7,1c1.4,0.5,2.6,1.2,3.8,2c2,1.4,3.6,3.2,4.9,5.2c0.9,1.5,1.6,3.1,2,4.8c0.2,0.6,0.3,1.2,0.3,1.8
		c0.1,0.4,0.1,0.9,0.1,1.3C614.2,60.6,614.2,61,614.2,61z"/>
	<rect x="159.7" y="55" class="st3" width="407.5" height="318.6"/>
	<path class="st8" d="M589.7,200.8c7.2,0,13,5.9,13,13.1c0,7.2-5.9,13-13.1,13c-7.2,0-13-5.9-13-13.1l0,0
		C576.7,206.7,582.5,200.8,589.7,200.8z"/>
	<path class="st8" d="M140.1,263.5v-100c0-0.7,0.5-1.2,1.2-1.2h2.9c0.7,0,1.2,0.5,1.2,1.2v100c0,0.7-0.5,1.2-1.2,1.2h-2.9
		C140.7,264.8,140.1,264.2,140.1,263.5z"/>
	<path class="st0" d="M196.4,325.5h148.5c3,0,5.4,2.4,5.4,5.4v15.5c0,3-2.4,5.4-5.4,5.4H196.4c-3,0-5.4-2.4-5.4-5.4v-15.5
		C191,327.9,193.4,325.5,196.4,325.5z"/>
	<path class="st0" d="M195.1,269h148.5c3,0,5.4,2.4,5.4,5.4v15.5c0,3-2.4,5.4-5.4,5.4H195.1c-3,0-5.4-2.4-5.4-5.4v-15.5
		C189.6,271.4,192.1,269,195.1,269z"/>
	<path class="st0" d="M366.3,269h148.5c3,0,5.4,2.4,5.4,5.4v15.5c0,3-2.4,5.4-5.4,5.4H366.3c-3,0-5.4-2.4-5.4-5.4v-15.5
		C360.9,271.4,363.3,269,366.3,269z"/>
	<path class="st0" d="M370.6,108.3h142.6c3,0,5.4,2.4,5.4,5.4v15.5c0,3-2.4,5.4-5.4,5.4H370.6c-3,0-5.4-2.4-5.4-5.4v-15.5
		C365.2,110.7,367.6,108.3,370.6,108.3z"/>
	<path class="st0" d="M196.4,160.7h320.4c3,0,5.4,2.4,5.4,5.4v15.5c0,3-2.4,5.4-5.4,5.4H196.4c-3,0-5.4-2.4-5.4-5.4v-15.5
		C191,163.1,193.4,160.7,196.4,160.7z"/>
	<path class="st0" d="M196.2,108.3h148.5c3,0,5.4,2.4,5.4,5.4v15.5c0,3-2.4,5.4-5.4,5.4H196.2c-3,0-5.4-2.4-5.4-5.4v-15.5
		C190.8,110.7,193.2,108.3,196.2,108.3z"/>
	<path class="st1" d="M201.8,122.1v1.8h-0.7v-1.8l-2.1-3.4h0.8l1.7,2.7l1.7-2.7h0.7L201.8,122.1z"/>
	<path class="st1" d="M203.7,121.9c0-1.1,0.9-2.1,2-2.1s2.1,0.9,2.1,2s-0.9,2.1-2,2.1l0,0C204.6,124,203.7,123.1,203.7,121.9
		C203.7,122,203.7,121.9,203.7,121.9z M207.1,121.9c0-0.7-0.7-1.3-1.4-1.3s-1.3,0.7-1.3,1.4c0,0.7,0.6,1.3,1.3,1.3s1.3-0.5,1.3-1.2
		C207.1,122,207.1,122,207.1,121.9L207.1,121.9z"/>
	<path class="st1" d="M212.5,120v3.9h-0.7v-0.6c-0.3,0.4-0.8,0.6-1.3,0.6c-0.8,0.1-1.6-0.5-1.7-1.4c0-0.1,0-0.2,0-0.3V120h0.7v2.2
		c0,0.8,0.4,1.2,1.1,1.2c0.6,0,1.2-0.4,1.2-1.1c0-0.1,0-0.2,0-0.2v-2L212.5,120z"/>
	<path class="st1" d="M215.9,119.9v0.7h-0.2c-0.7,0-1.2,0.5-1.2,1.1c0,0.1,0,0.1,0,0.2v2h-0.7V120h0.7v0.7
		C214.8,120.2,215.4,119.9,215.9,119.9z"/>
	<path class="st1" d="M223.4,118.7v5.2h-0.6l-3.1-3.9v3.9H219v-5.2h0.6l3.1,3.9v-3.9H223.4z"/>
	<path class="st1" d="M228,121.5v2.4h-0.7v-0.5c-0.3,0.4-0.8,0.6-1.3,0.6c-0.9,0-1.5-0.5-1.5-1.1s0.4-1.2,1.6-1.2h1.1v-0.1
		c0-0.6-0.4-0.9-1.1-0.9c-0.5,0-0.9,0.1-1.3,0.4l-0.3-0.5c0.5-0.3,1-0.5,1.6-0.5C227.4,119.9,228,120.4,228,121.5z M227.3,122.7
		v-0.6h-1.1c-0.7,0-0.9,0.3-0.9,0.6s0.3,0.6,0.9,0.6C226.7,123.4,227.1,123.2,227.3,122.7L227.3,122.7z"/>
	<path class="st1" d="M235.9,121.6v2.3h-0.7v-2.2c0-0.8-0.4-1.2-1-1.2s-1.2,0.5-1.2,1.3v2h-0.7v-2.1c0-0.8-0.4-1.2-1-1.2
		s-1.2,0.5-1.2,1.1c0,0.1,0,0.1,0,0.2v2h-0.7v-3.9h0.7v0.6c0.3-0.4,0.8-0.7,1.4-0.6c0.6,0,1.1,0.2,1.4,0.7c0.4-0.5,0.9-0.8,1.5-0.7
		c0.8,0,1.5,0.6,1.6,1.4C235.9,121.4,235.9,121.5,235.9,121.6z"/>
	<path class="st1" d="M240.8,122.2h-3.2c0.1,0.7,0.7,1.2,1.4,1.1c0.4,0,0.8-0.2,1.1-0.5l0.4,0.5c-0.4,0.4-1,0.7-1.6,0.6
		c-1.1,0.1-2-0.8-2.1-1.9v-0.1c0-1.1,0.8-2,1.9-2h0.1c1,0,1.9,0.8,2,1.8c0,0.1,0,0.1,0,0.2C240.8,122,240.8,122.1,240.8,122.2z
		 M237.6,121.7h2.5c-0.1-0.7-0.7-1.2-1.4-1.2C238.1,120.6,237.6,121,237.6,121.7z"/>
	<path class="st4" d="M219.1,96.3v5.2h-0.8l-2.9-3.5v3.5h-1v-5.2h0.8l2.9,3.5v-3.5H219.1z"/>
	<path class="st4" d="M223.7,99.2v2.3h-0.9V101c-0.3,0.4-0.8,0.6-1.3,0.5c-0.9,0-1.5-0.5-1.5-1.2s0.4-1.2,1.6-1.2h1V99
		c0-0.5-0.3-0.9-1-0.9c-0.4,0-0.9,0.1-1.2,0.4l-0.4-0.7c0.5-0.3,1.1-0.5,1.7-0.5C223.1,97.5,223.7,98.1,223.7,99.2z M222.8,100.3
		v-0.5h-1c-0.6,0-0.8,0.2-0.8,0.5s0.3,0.6,0.8,0.6C222.2,101,222.6,100.7,222.8,100.3L222.8,100.3z"/>
	<path class="st4" d="M231.6,99.3v2.3h-0.9v-2.2c0-0.7-0.3-1-0.9-1s-1,0.4-1,1.2v2h-0.9v-2.2c0-0.7-0.3-1-0.9-1s-1,0.4-1,1.2v2h-1
		v-4h0.9v0.5c0.3-0.4,0.8-0.6,1.3-0.6s1,0.2,1.3,0.7c0.4-0.4,0.9-0.7,1.5-0.7c0.8,0,1.5,0.7,1.5,1.5
		C231.6,99.1,231.6,99.2,231.6,99.3z"/>
	<path class="st4" d="M236.5,99.8h-3.1c0.1,0.6,0.7,1.1,1.3,1c0.4,0,0.8-0.1,1.1-0.4l0.5,0.6c-0.9,0.9-2.3,0.9-3.2,0
		c-0.4-0.4-0.6-0.9-0.6-1.4c0-1.1,0.9-2,2-2c0,0,0,0,0.1,0c1.1,0,2,0.8,2,1.9v0.1C236.5,99.6,236.5,99.7,236.5,99.8z M233.4,99.2
		h2.3c0-0.6-0.5-1-1.1-1C234,98.2,233.4,98.6,233.4,99.2L233.4,99.2L233.4,99.2z"/>
	<path class="st4" d="M197.1,97.4v1.3h2.3v0.9h-2.3v1.8H196v-4.9h3.7v0.9C199.7,97.4,197.1,97.4,197.1,97.4z"/>
	<path class="st4" d="M200.2,96.4c0-0.3,0.3-0.6,0.6-0.6l0,0c0.3,0,0.6,0.2,0.7,0.5c0,0,0,0,0,0.1c0,0.3-0.3,0.6-0.6,0.6
		c0,0,0,0-0.1,0C200.5,97.1,200.2,96.8,200.2,96.4C200.2,96.5,200.2,96.5,200.2,96.4z M200.3,97.6h1.1v3.7h-1.1V97.6z"/>
	<path class="st4" d="M204.7,97.5v1h-0.3c-0.5,0-1,0.3-1,0.8c0,0.1,0,0.1,0,0.2v1.8h-1.1v-3.7h1V98
		C203.7,97.7,204.2,97.5,204.7,97.5z"/>
	<path class="st4" d="M205,101l0.4-0.8c0.4,0.2,0.8,0.4,1.3,0.4s0.7-0.1,0.7-0.3c0-0.6-2.3,0-2.3-1.5c0-0.7,0.6-1.2,1.7-1.2
		c0.5,0,1,0.1,1.4,0.3l-0.4,0.8c-0.3-0.2-0.7-0.3-1.1-0.3c-0.5,0-0.7,0.2-0.7,0.4c0,0.6,2.3,0,2.3,1.5c0,0.7-0.6,1.2-1.8,1.2
		C206.1,101.4,205.5,101.2,205,101z"/>
	<path class="st4" d="M211.5,101.1c-0.3,0.2-0.6,0.3-0.9,0.2c-0.7,0.1-1.3-0.4-1.4-1.1c0-0.1,0-0.2,0-0.3v-1.5h-0.6v-0.8h0.6v-0.9
		h1.1v0.9h0.9v0.8h-0.9v1.5c0,0.2,0.1,0.5,0.4,0.5h0.1c0.2,0,0.3,0,0.4-0.1L211.5,101.1z"/>
	<path class="st9" d="M241.3,95.7l-0.9,1.1l0,0l1.4-0.2v0.6l-1.4-0.2l0,0l0.9,1.1l-0.6,0.3l-0.5-1.3l0,0l-0.6,1.3l-0.5-0.3L240,97
		l0,0l-1.3,0.2v-0.6l1.3,0.2l0,0l-0.9-1.1l0.6-0.3l0.6,1.2l0,0l0.5-1.3L241.3,95.7z"/>
	<path class="st1" d="M202.8,283.7v1.8h-0.7v-1.8l-2.1-3.4h0.8l1.7,2.7l1.7-2.7h0.7L202.8,283.7z"/>
	<path class="st1" d="M204.7,283.6c0-1.1,0.9-2,2-2s2,0.9,2,2s-0.9,2-1.9,2C205.6,285.6,204.7,284.7,204.7,283.6L204.7,283.6z
		 M208.1,283.6c0.1-0.7-0.5-1.4-1.2-1.4c-0.7-0.1-1.4,0.5-1.4,1.2c0,0.1,0,0.2,0,0.2c-0.1,0.7,0.5,1.4,1.2,1.4
		c0.7,0.1,1.4-0.5,1.4-1.2C208.1,283.7,208.1,283.6,208.1,283.6z"/>
	<path class="st1" d="M213.5,281.6v3.9h-0.7v-0.6c-0.3,0.4-0.8,0.7-1.3,0.6c-0.9,0.1-1.6-0.5-1.7-1.4c0-0.1,0-0.2,0-0.3v-2.3h0.7
		v2.1c0,0.8,0.4,1.2,1.1,1.2c0.6,0,1.2-0.4,1.2-1.1c0-0.1,0-0.1,0-0.2v-2L213.5,281.6z"/>
	<path class="st1" d="M217,281.5v0.7h-0.2c-0.6,0-1.2,0.4-1.2,1.1c0,0.1,0,0.2,0,0.2v2h-0.7v-3.9h0.7v0.7
		C215.8,281.8,216.4,281.5,217,281.5z"/>
	<path class="st1" d="M224.5,280.3v5.2h-0.6l-3.1-3.9v3.9H220v-5.2h0.6l3.1,3.9v-3.9H224.5z"/>
	<path class="st1" d="M229.1,283.1v2.4h-0.7V285c-0.3,0.4-0.8,0.6-1.3,0.6c-0.9,0-1.5-0.5-1.5-1.2s0.4-1.1,1.6-1.1h1.1v-0.1
		c0-0.6-0.4-1-1.1-1c-0.5,0-0.9,0.1-1.3,0.4l-0.3-0.5c0.5-0.3,1-0.5,1.6-0.5C228.4,281.5,229.1,282.1,229.1,283.1z M228.3,284.3
		v-0.6h-1.1c-0.7,0-0.9,0.3-0.9,0.6s0.3,0.6,0.9,0.6C227.7,285,228.1,284.8,228.3,284.3L228.3,284.3z"/>
	<path class="st1" d="M236.9,283.3v2.3h-0.7v-2.2c0-0.8-0.4-1.1-1-1.1s-1.2,0.5-1.2,1.3v2h-0.7v-2.2c0-0.8-0.4-1.1-1-1.1
		s-1.2,0.5-1.2,1.3v2h-0.7v-3.9h0.7v0.6c0.3-0.4,0.8-0.7,1.4-0.6c0.6,0,1.1,0.2,1.4,0.7c0.3-0.5,0.9-0.8,1.5-0.7
		c0.8,0,1.5,0.6,1.6,1.4C236.9,283,236.9,283.1,236.9,283.3z"/>
	<path class="st1" d="M241.8,283.8h-3.2c0.1,0.7,0.7,1.2,1.4,1.1c0.4,0,0.8-0.2,1.1-0.5l0.4,0.5c-0.8,0.8-2.2,0.8-3,0
		c-0.4-0.4-0.6-0.9-0.6-1.4c0-1.1,0.8-2,1.9-2h0.1c1,0,1.9,0.8,1.9,1.9v0.1C241.8,283.6,241.8,283.7,241.8,283.8z M238.6,283.3h2.5
		c-0.1-0.7-0.7-1.2-1.4-1.2C239.1,282.2,238.7,282.7,238.6,283.3z"/>
	<path class="st9" d="M232.6,255.2l-0.9,1.1l0,0l1.4-0.2v0.6l-1.4-0.2l0,0l0.9,1.1L232,258l-0.5-1.3l0,0l-0.6,1.3l-0.5-0.3l0.9-1.1
		l0,0l-1.3,0.2v-0.6l1.3,0.2l0,0l-0.8-1.1l0.6-0.3l0.6,1.2l0,0l0.5-1.3L232.6,255.2z"/>
	<path class="st9" d="M389.6,257.5l-0.9,1.1l0,0l1.4-0.2v0.6l-1.4-0.2l0,0l0.9,1.1l-0.6,0.3l-0.5-1.3l0,0l-0.6,1.3l-0.5-0.3l0.8-1.1
		l0,0l-1.3,0.2v-0.6l1.3,0.2l0,0l-0.8-1.1l0.5-0.3l0.5,1.2l0,0l0.5-1.2L389.6,257.5z"/>
	<path class="st1" d="M372.7,283.7v1.8H372v-1.8l-2.1-3.4h0.8l1.7,2.7l1.7-2.7h0.7L372.7,283.7z"/>
	<path class="st1" d="M374.6,283.6c0-1.1,0.9-2.1,2-2.1s2.1,0.9,2.1,2s-0.9,2.1-2,2.1l0,0C375.6,285.6,374.7,284.7,374.6,283.6
		L374.6,283.6z M378,283.6c0-0.7-0.7-1.3-1.4-1.3c-0.7,0-1.3,0.7-1.3,1.4c0,0.7,0.6,1.3,1.3,1.3c0.7,0,1.3-0.5,1.3-1.2
		C378,283.6,378,283.6,378,283.6z"/>
	<path class="st1" d="M383.4,281.6v3.9h-0.7v-0.6c-0.3,0.4-0.8,0.7-1.3,0.6c-0.9,0.1-1.6-0.5-1.7-1.4c0-0.1,0-0.2,0-0.3v-2.3h0.7
		v2.1c0,0.8,0.4,1.2,1.1,1.2c0.6,0,1.2-0.4,1.2-1.1c0-0.1,0-0.1,0-0.2v-2L383.4,281.6z"/>
	<path class="st1" d="M386.9,281.5v0.7h-0.2c-0.6,0-1.2,0.4-1.2,1.1c0,0.1,0,0.2,0,0.2v2h-0.7v-3.9h0.7v0.7
		C385.7,281.8,386.3,281.5,386.9,281.5z"/>
	<path class="st1" d="M394.4,280.3v5.2h-0.6l-3.1-3.9v3.9H390v-5.2h0.6l3.1,3.9v-3.9H394.4z"/>
	<path class="st1" d="M399,283.1v2.4h-0.7V285c-0.3,0.4-0.8,0.6-1.3,0.6c-0.9,0-1.5-0.5-1.5-1.2s0.4-1.1,1.6-1.1h1.1v-0.1
		c0-0.6-0.4-1-1-1c-0.5,0-0.9,0.1-1.3,0.4l-0.3-0.5c0.5-0.3,1-0.5,1.6-0.5C398.4,281.5,399,282.1,399,283.1z M398.2,284.3v-0.6h-1.1
		c-0.7,0-0.9,0.3-0.9,0.6s0.3,0.6,0.9,0.6C397.6,285,398,284.8,398.2,284.3L398.2,284.3z"/>
	<path class="st1" d="M406.8,283.3v2.3h-0.7v-2.2c0-0.8-0.4-1.1-1-1.1s-1.2,0.5-1.2,1.3v2h-0.7v-2.2c0-0.8-0.4-1.1-1-1.1
		s-1.2,0.5-1.2,1.3v2h-0.7v-3.9h0.7v0.6c0.3-0.4,0.8-0.7,1.4-0.6c0.6,0,1.1,0.2,1.4,0.7c0.4-0.5,0.9-0.8,1.5-0.7
		c0.8,0,1.5,0.6,1.6,1.4C406.8,283,406.8,283.1,406.8,283.3z"/>
	<path class="st1" d="M411.7,283.8h-3.2c0.1,0.7,0.7,1.2,1.4,1.1c0.4,0,0.8-0.2,1.1-0.5l0.4,0.5c-0.8,0.8-2.2,0.8-3,0
		c-0.4-0.4-0.6-0.9-0.6-1.4c0-1.1,0.8-2,1.8-2c0.1,0,0.1,0,0.2,0c1,0,1.9,0.8,2,1.8c0,0.1,0,0.1,0,0.2
		C411.7,283.6,411.7,283.7,411.7,283.8z M408.5,283.3h2.5c-0.1-0.7-0.6-1.1-1.3-1.1C409.1,282.1,408.6,282.6,408.5,283.3
		L408.5,283.3z"/>
	<path class="st4" d="M201,153.2v0.8h-3.9v-5.2h3.8v0.8h-2.8v1.4h2.5v0.8h-2.5v1.4H201z"/>
	<path class="st4" d="M208.7,151.7v2.3h-0.9v-2.2c0-0.7-0.3-1-0.9-1s-1,0.4-1,1.2v2H205v-2.2c0-0.7-0.3-1-0.9-1s-1,0.4-1,1.2v2h-0.9
		v-4h0.9v0.5c0.3-0.4,0.8-0.6,1.3-0.6s1,0.2,1.3,0.7c0.4-0.4,0.9-0.7,1.5-0.7c0.8,0,1.5,0.6,1.6,1.5
		C208.7,151.6,208.7,151.7,208.7,151.7z"/>
	<path class="st4" d="M213.2,151.7v2.3h-0.9v-0.5c-0.3,0.4-0.8,0.6-1.2,0.5c-0.9,0-1.5-0.5-1.5-1.2s0.4-1.2,1.6-1.2h1v-0.1
		c0-0.5-0.3-0.9-1-0.9c-0.4,0-0.9,0.1-1.2,0.4l-0.4-0.7c0.5-0.3,1.1-0.5,1.7-0.5C212.5,150,213.2,150.6,213.2,151.7z M212.3,152.8
		v-0.5h-1c-0.6,0-0.8,0.2-0.8,0.5s0.3,0.6,0.8,0.6C211.7,153.5,212.1,153.2,212.3,152.8L212.3,152.8z"/>
	<path class="st4" d="M214.3,148.8c0-0.3,0.2-0.6,0.6-0.6l0,0c0.3,0,0.6,0.2,0.6,0.5l0,0c0,0.3-0.2,0.6-0.5,0.6c0,0,0,0-0.1,0
		C214.5,149.4,214.3,149.2,214.3,148.8C214.3,148.9,214.3,148.9,214.3,148.8z M214.4,150.1h0.9v4h-0.9V150.1z"/>
	<path class="st4" d="M216.5,148.5h0.9v5.5h-0.9V148.5z"/>
	<path class="st1" d="M202.8,175.5v1.8h-0.7v-1.8l-2.1-3.4h0.8l1.7,2.7l1.7-2.7h0.7L202.8,175.5z"/>
	<path class="st1" d="M204.7,175.3c0-1.1,0.9-2,2-2s2,0.9,2,2s-0.9,2-1.9,2C205.6,177.3,204.7,176.5,204.7,175.3L204.7,175.3z
		 M208.1,175.3c0.1-0.7-0.5-1.4-1.2-1.4c-0.7-0.1-1.4,0.5-1.4,1.2c0,0.1,0,0.2,0,0.2c-0.1,0.7,0.5,1.4,1.2,1.4
		c0.7,0.1,1.4-0.5,1.4-1.2C208.1,175.5,208.1,175.4,208.1,175.3z"/>
	<path class="st1" d="M213.5,173.3v3.9h-0.7v-0.6c-0.3,0.4-0.8,0.7-1.3,0.6c-0.9,0.1-1.6-0.5-1.7-1.4c0-0.1,0-0.2,0-0.3v-2.3h0.7
		v2.2c0,0.8,0.4,1.2,1.1,1.2c0.6,0,1.2-0.4,1.2-1.1c0-0.1,0-0.1,0-0.2v-2L213.5,173.3z"/>
	<path class="st1" d="M217,173.3v0.7h-0.2c-0.6,0-1.2,0.4-1.2,1.1c0,0.1,0,0.2,0,0.2v2h-0.7v-4h0.7v0.7
		C215.8,173.5,216.4,173.2,217,173.3z"/>
	<path class="st1" d="M223.8,176.6v0.6H220V172h3.7v0.7h-2.9v1.6h2.6v0.6h-2.6v1.7L223.8,176.6z"/>
	<path class="st1" d="M231.4,175v2.3h-0.7v-2.2c0-0.8-0.4-1.1-1-1.1s-1.2,0.4-1.2,1.3v2h-0.7v-2.2c0-0.8-0.4-1.1-1-1.1
		s-1.2,0.4-1.2,1.3v2h-0.7v-3.9h0.7v0.6c0.3-0.4,0.8-0.7,1.4-0.6c0.6,0,1.1,0.2,1.4,0.7c0.4-0.5,0.9-0.8,1.5-0.7
		c0.8,0,1.5,0.6,1.6,1.4C231.4,174.8,231.4,174.9,231.4,175z"/>
	<path class="st1" d="M235.9,174.9v2.4h-0.7v-0.5c-0.3,0.4-0.8,0.6-1.3,0.6c-0.9,0-1.4-0.5-1.4-1.2s0.4-1.1,1.6-1.1h1.1V175
		c0-0.6-0.4-0.9-1.1-0.9c-0.4,0-0.9,0.1-1.2,0.4l-0.3-0.5c0.5-0.3,1-0.5,1.6-0.5c0.8-0.1,1.6,0.4,1.7,1.2
		C235.9,174.6,235.9,174.8,235.9,174.9z M235.1,176.1v-0.6H234c-0.7,0-0.9,0.3-0.9,0.6s0.3,0.6,0.9,0.6
		C234.5,176.8,235,176.5,235.1,176.1z"/>
	<path class="st1" d="M237.1,172.1c0-0.3,0.2-0.5,0.5-0.5l0,0c0.3,0,0.5,0.2,0.5,0.5s-0.2,0.5-0.5,0.5S237.1,172.4,237.1,172.1z
		 M237.2,173.3h0.7v3.9h-0.7V173.3z"/>
	<path class="st1" d="M239.3,171.7h0.7v5.5h-0.7V171.7z"/>
	<path class="st9" d="M223.4,148.2l-0.9,1.1l0,0l1.4-0.2v0.6l-1.4-0.2l0,0l0.9,1.1l-0.6,0.3l-0.5-1.3l0,0l-0.6,1.3l-0.5-0.3l0.8-1.1
		l0,0l-1.3,0.2v-0.6l1.3,0.2l0,0l-0.8-1.1l0.5-0.3l0.6,1.2l0,0l0.6-1.3L223.4,148.2z"/>
	<path class="st9" d="M264,202.2l-0.9,1.1l0,0l1.4-0.2v0.6l-1.4-0.2l0,0l0.9,1.1l-0.6,0.3l-0.5-1.2l0,0l-0.6,1.3l-0.5-0.3l0.9-1.1
		l0,0l-1.3,0.2v-0.6l1.3,0.2l0,0l-0.8-1.1l0.5-0.3l0.5,1.2l0,0l0.5-1.3L264,202.2z"/>
	<path class="st0" d="M195.9,216.7h320.8c3,0,5.4,2.4,5.4,5.4v15.5c0,3-2.4,5.4-5.4,5.4H195.9c-3,0-5.4-2.4-5.4-5.4v-15.5
		C190.5,219.2,192.9,216.7,195.9,216.7z"/>
	<path class="st4" d="M369.2,94.3h1v4.4h2.7v0.8h-3.7V94.3z"/>
	<path class="st4" d="M377,97.2v2.3h-0.9V99c-0.3,0.4-0.8,0.6-1.3,0.5c-0.9,0-1.5-0.5-1.5-1.2s0.5-1.2,1.6-1.2h1V97
		c0-0.5-0.3-0.9-1-0.9c-0.4,0-0.9,0.1-1.2,0.4l-0.4-0.7c0.5-0.3,1.1-0.5,1.7-0.5C376.3,95.5,377,96.1,377,97.2z M376,98.3v-0.5h-1
		c-0.6,0-0.8,0.2-0.8,0.5s0.3,0.6,0.8,0.6C375.4,99,375.9,98.7,376,98.3z"/>
	<path class="st4" d="M377.7,99.1l0.4-0.7c0.4,0.3,0.9,0.4,1.4,0.4c0.6,0,0.8-0.2,0.8-0.4c0-0.8-2.5,0-2.5-1.6
		c0-0.8,0.7-1.2,1.8-1.2c0.5,0,1,0.1,1.5,0.4l-0.4,0.7c-0.3-0.2-0.7-0.3-1.1-0.3c-0.6,0-0.8,0.2-0.8,0.4c0,0.8,2.5,0.1,2.5,1.6
		c0,0.8-0.7,1.2-1.8,1.2C378.8,99.6,378.2,99.5,377.7,99.1z"/>
	<path class="st4" d="M384.4,99.3c-0.3,0.2-0.6,0.3-0.9,0.3c-0.7,0.1-1.3-0.4-1.4-1.1c0-0.1,0-0.2,0-0.3v-1.9h-0.6v-0.7h0.6v-0.9
		h0.9v0.9h1.1v0.7H383v1.9c0,0.4,0.2,0.6,0.5,0.6c0.2,0,0.4,0,0.5-0.2L384.4,99.3z"/>
	<path class="st4" d="M391.9,94.3v5.2h-0.8l-2.9-3.5v3.5h-1v-5.2h0.8l2.9,3.5v-3.5H391.9z"/>
	<path class="st4" d="M396.5,97.2v2.3h-0.8V99c-0.3,0.4-0.8,0.6-1.3,0.5c-0.9,0-1.5-0.5-1.5-1.2s0.5-1.2,1.6-1.2h1V97
		c0-0.5-0.3-0.9-1-0.9c-0.4,0-0.9,0.1-1.2,0.4L393,96c0.5-0.3,1.1-0.5,1.7-0.5C395.9,95.5,396.5,96.1,396.5,97.2z M395.6,98.3v-0.5
		h-0.9c-0.6,0-0.8,0.2-0.8,0.5s0.3,0.6,0.8,0.6C395.1,98.9,395.4,98.7,395.6,98.3z"/>
	<path class="st4" d="M404.4,97.3v2.3h-0.9v-2.2c0-0.7-0.3-1.1-0.9-1.1s-1,0.4-1,1.2v2h-0.9v-2.2c0-0.7-0.3-1.1-0.9-1.1
		s-1,0.4-1,1.2v2h-1v-4h0.9V96c0.3-0.4,0.8-0.6,1.3-0.6s1,0.2,1.3,0.7c0.4-0.4,0.9-0.7,1.5-0.7c0.8-0.1,1.6,0.5,1.7,1.4
		C404.4,97,404.4,97.1,404.4,97.3z"/>
	<path class="st4" d="M409.3,97.9h-3.1c0.1,0.6,0.7,1,1.3,0.9c0.4,0,0.8-0.1,1.1-0.4l0.5,0.6c-0.4,0.4-1,0.7-1.6,0.6
		c-1.1,0.1-2.1-0.7-2.2-1.8c0-0.1,0-0.1,0-0.2c0-1.1,0.9-2,2-2c0,0,0,0,0.1,0c1.1,0,2,0.8,2,1.9c0,0.1,0,0.1,0,0.2
		C409.3,97.6,409.3,97.7,409.3,97.9z M406.2,97.2h2.3c-0.1-0.6-0.7-1-1.3-0.9C406.6,96.4,406.3,96.8,406.2,97.2z"/>
	<path class="st1" d="M378.4,122.1v1.8h-0.7v-1.8l-2.1-3.4h0.8l1.7,2.7l1.7-2.7h0.7L378.4,122.1z"/>
	<path class="st1" d="M380.3,121.9c0-1.1,0.9-2,2-2s2,0.9,2,2s-0.9,2-2,2C381.3,124,380.4,123.1,380.3,121.9
		C380.3,122,380.3,121.9,380.3,121.9z M383.7,121.9c0.1-0.7-0.5-1.4-1.2-1.4c-0.7-0.1-1.4,0.5-1.4,1.2c0,0.1,0,0.2,0,0.2
		c-0.1,0.7,0.5,1.4,1.2,1.4c0.7,0.1,1.4-0.5,1.4-1.2C383.7,122.1,383.7,122,383.7,121.9z"/>
	<path class="st1" d="M389.1,120v3.9h-0.7v-0.6c-0.3,0.4-0.8,0.6-1.3,0.6c-0.8,0.1-1.6-0.5-1.7-1.4c0-0.1,0-0.2,0-0.3V120h0.7v2.2
		c0,0.8,0.4,1.2,1.1,1.2c0.6,0,1.2-0.4,1.2-1.1c0-0.1,0-0.1,0-0.2v-2L389.1,120z"/>
	<path class="st1" d="M392.6,119.9v0.7h-0.2c-0.6,0-1.2,0.4-1.2,1.1c0,0.1,0,0.2,0,0.2v2h-0.7V120h0.7v0.7
		C391.4,120.2,392,119.9,392.6,119.9z"/>
	<path class="st1" d="M400.1,118.7v5.2h-0.6l-3.1-3.9v3.9h-0.7v-5.2h0.6l3.1,3.9v-3.9H400.1z"/>
	<path class="st1" d="M404.7,121.5v2.4H404v-0.5c-0.3,0.4-0.8,0.6-1.3,0.6c-0.9,0-1.5-0.5-1.5-1.1s0.4-1.2,1.6-1.2h1.1v-0.1
		c0-0.6-0.4-0.9-1.1-0.9c-0.5,0-0.9,0.1-1.3,0.4l-0.3-0.5c0.5-0.3,1-0.5,1.6-0.5C404,119.9,404.7,120.4,404.7,121.5z M404,122.7
		v-0.6h-1.1c-0.7,0-0.9,0.3-0.9,0.6s0.3,0.6,0.9,0.6C403.3,123.4,403.8,123.2,404,122.7L404,122.7z"/>
	<path class="st1" d="M412.5,121.6v2.3h-0.7v-2.2c0-0.8-0.4-1.2-1-1.2s-1.2,0.5-1.2,1.1c0,0.1,0,0.1,0,0.2v2h-0.7v-2.1
		c0-0.8-0.4-1.2-1-1.2s-1.2,0.5-1.2,1.1c0,0.1,0,0.1,0,0.2v2H406v-3.9h0.7v0.6c0.3-0.4,0.8-0.7,1.4-0.6c0.6,0,1.1,0.2,1.4,0.7
		c0.3-0.5,0.9-0.8,1.5-0.7c0.8-0.1,1.6,0.6,1.6,1.4C412.5,121.4,412.5,121.5,412.5,121.6z"/>
	<path class="st1" d="M417.4,122.2h-3.2c0.1,0.7,0.7,1.2,1.4,1.1c0.4,0,0.8-0.2,1.1-0.5l0.4,0.5c-0.8,0.8-2.2,0.8-3,0
		c-0.4-0.4-0.6-0.9-0.6-1.4c0-1.1,0.8-2,1.9-2h0.1c1,0,1.9,0.8,1.9,1.8c0,0.1,0,0.1,0,0.2C417.4,122,417.4,122.1,417.4,122.2z
		 M414.2,121.7h2.5c-0.1-0.7-0.7-1.2-1.4-1.1C414.7,120.6,414.3,121.1,414.2,121.7z"/>
	<path class="st9" d="M414.4,93.7l-0.9,1.1l0,0l1.4-0.2v0.6l-1.4-0.2l0,0l0.9,1.1l-0.6,0.3l-0.5-1.3l0,0l-0.6,1.3l-0.5-0.3l0.9-1.1
		l0,0l-1.3,0.2v-0.5l1.3,0.2l0,0l-0.8-1.1l0.5-0.3l0.5,1.2l0,0l0.5-1.3L414.4,93.7z"/>
	<path class="st4" d="M194.5,204.8c0-1.5,1.2-2.7,2.6-2.7c0.1,0,0.1,0,0.2,0c0.8,0,1.5,0.3,2.1,0.9l-0.6,0.6
		c-0.4-0.4-0.9-0.6-1.4-0.6c-1-0.1-1.9,0.7-2,1.7s0.7,1.9,1.7,2c0.1,0,0.2,0,0.3,0c0.5,0,1-0.2,1.4-0.6l0.6,0.6
		c-0.5,0.6-1.3,0.9-2.1,0.9c-1.5,0.1-2.7-1.1-2.8-2.5C194.5,204.9,194.5,204.8,194.5,204.8z"/>
	<path class="st4" d="M199.7,205.4c-0.1-1.2,0.8-2.2,2-2.2s2.2,0.8,2.2,2c0.1,1.2-0.8,2.2-2,2.2h-0.1c-1.1,0.1-2-0.8-2.1-1.9
		C199.7,205.5,199.7,205.4,199.7,205.4z M203,205.4c0-0.7-0.6-1.2-1.2-1.1s-1.2,0.6-1.1,1.2c0,0.6,0.5,1.1,1.2,1.1
		C202.5,206.6,203.1,206.1,203,205.4C203,205.5,203,205.4,203,205.4L203,205.4z"/>
	<path class="st4" d="M208.8,205.1v2.3h-0.9v-2.2c0-0.7-0.4-1.1-0.9-1.1c-0.6,0-1.1,0.4-1.1,1c0,0.1,0,0.1,0,0.2v2H205v-4h0.8v0.5
		c0.4-0.4,0.9-0.6,1.4-0.6c0.9-0.1,1.6,0.5,1.7,1.4C208.8,204.9,208.8,205,208.8,205.1z"/>
	<path class="st4" d="M212.3,207.2c-0.3,0.2-0.6,0.3-0.9,0.3c-0.7,0.1-1.3-0.4-1.4-1.1c0-0.1,0-0.2,0-0.3v-1.9h-0.7v-0.7h0.7v-0.9
		h0.9v0.9h1.1v0.7h-1v1.9c0,0.4,0.2,0.6,0.6,0.6c0.2,0,0.4-0.1,0.5-0.2L212.3,207.2z"/>
	<path class="st4" d="M216.4,205.1v2.3h-0.9v-0.5c-0.3,0.4-0.8,0.6-1.3,0.5c-0.9,0-1.5-0.5-1.5-1.2s0.4-1.2,1.6-1.2h1v0
		c0-0.5-0.3-0.9-1-0.9c-0.4,0-0.9,0.1-1.2,0.4l-0.4-0.7c0.5-0.3,1.1-0.5,1.7-0.5C215.8,203.4,216.4,203.9,216.4,205.1z M215.5,206.1
		v-0.4h-1c-0.6,0-0.8,0.2-0.8,0.5s0.3,0.6,0.8,0.6C214.9,206.9,215.3,206.6,215.5,206.1L215.5,206.1z"/>
	<path class="st4" d="M217.3,205.4c0-1.1,0.9-2,2-2c0.1,0,0.1,0,0.2,0c0.7,0,1.4,0.3,1.7,0.9l-0.7,0.4c-0.2-0.4-0.6-0.6-1-0.6
		c-0.7,0-1.2,0.6-1.2,1.2c0,0.7,0.6,1.2,1.2,1.2c0.4,0,0.8-0.2,1-0.6l0.7,0.4c-0.3,0.6-1,1-1.7,0.9
		C218.4,207.3,217.4,206.5,217.3,205.4C217.3,205.6,217.3,205.5,217.3,205.4z"/>
	<path class="st4" d="M224.4,207.2c-0.3,0.2-0.6,0.3-0.9,0.3c-0.7,0.1-1.3-0.4-1.4-1.1c0-0.1,0-0.2,0-0.3v-1.9h-0.6v-0.7h0.6v-0.9
		h0.9v0.9h1.1v0.7H223v1.9c0,0.4,0.2,0.6,0.6,0.6c0.2,0,0.4-0.1,0.5-0.2L224.4,207.2z"/>
	<path class="st4" d="M233.1,202.2v5.2h-0.8l-2.9-3.5v3.5h-1v-5.2h0.8l2.9,3.5v-3.5H233.1z"/>
	<path class="st4" d="M238.2,203.4v4h-0.9v-0.5c-0.3,0.4-0.8,0.6-1.3,0.6c-0.9,0.1-1.6-0.5-1.7-1.4c0-0.1,0-0.2,0-0.3v-2.3h0.9v2.1
		c0,0.7,0.3,1.1,0.9,1.1s1.1-0.4,1.1-1.2v-2L238.2,203.4z"/>
	<path class="st4" d="M246.1,205.1v2.3h-0.9v-2.2c0-0.7-0.3-1.1-0.9-1.1s-1,0.4-1,1.2v2h-0.9v-2.1c0-0.7-0.3-1.1-0.9-1.1
		s-1,0.4-1,1.2v2h-0.9v-4h0.9v0.5c0.3-0.4,0.8-0.6,1.3-0.6s1,0.2,1.3,0.7c0.4-0.4,0.9-0.7,1.5-0.7c0.8,0,1.6,0.6,1.6,1.5
		C246.1,204.9,246.1,205,246.1,205.1z"/>
	<path class="st4" d="M251.5,205.4c0,1.1-0.8,2-1.9,2h-0.1c-0.5,0-1-0.2-1.3-0.6v0.5h-0.9v-5.5h0.9v2c0.3-0.4,0.8-0.5,1.3-0.5
		c1.1,0,2,0.8,2,1.9C251.5,205.2,251.5,205.3,251.5,205.4z M250.6,205.4c0-0.7-0.6-1.2-1.2-1.1s-1.2,0.6-1.1,1.2
		c0,0.6,0.6,1.1,1.2,1.1C250.1,206.6,250.7,206.1,250.6,205.4C250.6,205.5,250.6,205.4,250.6,205.4L250.6,205.4z"/>
	<path class="st4" d="M256.1,205.7H253c0.1,0.6,0.7,1,1.3,0.9c0.4,0,0.8-0.1,1.1-0.4l0.5,0.6c-0.9,0.9-2.3,0.9-3.2,0
		c-0.4-0.4-0.6-0.9-0.6-1.4c0-1.1,0.9-2,2-2c0,0,0,0,0.1,0c1.1,0,2,0.8,2,1.9c0,0.1,0,0.1,0,0.2
		C256.1,205.6,256.1,205.6,256.1,205.7z M253,205.1h2.3c-0.1-0.6-0.7-1-1.3-0.9C253.4,204.2,253.1,204.6,253,205.1z"/>
	<path class="st4" d="M259.3,203.4v0.9c-0.1,0-0.1,0-0.2,0c-0.6-0.1-1.1,0.4-1.2,1c0,0.1,0,0.2,0,0.2v1.9H257v-4h0.9v0.6
		C258.2,203.5,258.8,203.3,259.3,203.4z"/>
	<path class="st4" d="M200.5,259.8h-2.6l-0.5,1.2h-1l2.3-5.2h1l2.3,5.2h-1L200.5,259.8z M200.2,259.1l-1-2.3l-1,2.3H200.2z"/>
	<path class="st4" d="M206.5,255.5v5.5h-0.9v-0.5c-0.3,0.4-0.8,0.6-1.3,0.6c-1.1,0-2-0.9-2-2s0.9-2,2-2c0.5,0,1,0.2,1.3,0.5v-2
		L206.5,255.5z M205.6,259.1c0-0.7-0.6-1.2-1.2-1.1c-0.7,0-1.2,0.6-1.1,1.2c0,0.6,0.5,1.1,1.2,1.1c0.6,0,1.2-0.5,1.2-1.1
		C205.6,259.1,205.6,259.1,205.6,259.1z"/>
	<path class="st4" d="M211.6,255.5v5.5h-0.9v-0.5c-0.3,0.4-0.8,0.6-1.3,0.6c-1.1,0-2-0.9-2-2s0.9-2,2-2c0.5,0,1,0.2,1.3,0.5v-2
		L211.6,255.5z M210.7,259.1c0-0.7-0.6-1.2-1.2-1.1c-0.7,0-1.2,0.6-1.1,1.2c0,0.6,0.5,1.1,1.2,1.1c0.6,0,1.2-0.5,1.2-1.1
		C210.7,259.1,210.7,259.1,210.7,259.1L210.7,259.1z"/>
	<path class="st4" d="M215.1,257v0.9c-0.1,0-0.1,0-0.2,0c-0.6,0-1.1,0.4-1.2,1c0,0.1,0,0.2,0,0.2v1.9h-0.9v-4h0.9v0.6
		C214,257.2,214.5,257,215.1,257z"/>
	<path class="st4" d="M219.6,259.4h-3.1c0.1,0.6,0.7,1,1.3,1c0.4,0,0.8-0.1,1.1-0.4l0.5,0.6c-0.4,0.4-1,0.7-1.6,0.6
		c-1.1,0.1-2.1-0.7-2.2-1.8c0-0.1,0-0.1,0-0.2c0-1.1,0.9-2,2-2s2,0.8,2,1.9C219.6,259.2,219.6,259.2,219.6,259.4
		C219.5,259.2,219.5,259.3,219.6,259.4z M216.4,258.7h2.3c0-0.6-0.5-1-1.1-1C217,257.7,216.5,258.2,216.4,258.7L216.4,258.7z"/>
	<path class="st4" d="M220,260.7l0.4-0.7c0.4,0.3,0.9,0.4,1.4,0.4c0.6,0,0.8-0.2,0.8-0.4c0-0.8-2.5,0-2.5-1.6c0-0.8,0.7-1.2,1.8-1.2
		c0.5,0,1,0.1,1.5,0.3l-0.4,0.7c-0.3-0.2-0.7-0.3-1.1-0.3c-0.6,0-0.8,0.2-0.8,0.5c0,0.8,2.4,0.1,2.4,1.6c0,0.8-0.7,1.2-1.8,1.2
		C221.1,261.1,220.5,261,220,260.7z"/>
	<path class="st4" d="M223.8,260.7l0.4-0.7c0.4,0.3,0.9,0.4,1.4,0.4c0.6,0,0.8-0.2,0.8-0.4c0-0.8-2.4,0-2.4-1.6
		c0-0.8,0.7-1.2,1.8-1.2c0.5,0,1,0.1,1.5,0.3l-0.4,0.7c-0.3-0.2-0.7-0.3-1.1-0.3c-0.6,0-0.8,0.2-0.8,0.5c0,0.8,2.4,0.1,2.4,1.6
		c0,0.8-0.7,1.2-1.8,1.2C224.9,261.1,224.3,261,223.8,260.7z"/>
	<path class="st1" d="M203.8,338.6l2.2,1.2l-0.6,1l-2.2-1.3v2.5h-1.1v-2.5l-2.2,1.3l-0.6-1l2.2-1.2l-2.2-1.2l0.6-1l2.2,1.3v-2.5h1.1
		v2.5l2.2-1.3l0.6,1L203.8,338.6z"/>
	<path class="st1" d="M211.4,338.6l2.2,1.2l-0.6,1l-2.2-1.3v2.5h-1.1v-2.5l-2.2,1.3l-0.6-1l2.2-1.2l-2.2-1.2l0.6-1l2.2,1.3v-2.5h1.1
		v2.5l2.2-1.3l0.6,1L211.4,338.6z"/>
	<path class="st1" d="M219.1,338.6l2.2,1.2l-0.6,1l-2.2-1.3v2.5h-1.1v-2.5l-2.2,1.3l-0.6-1l2.2-1.2l-2.1-1.2l0.6-1l2.2,1.3v-2.5h1.1
		v2.5l2.2-1.3l0.6,1L219.1,338.6z"/>
	<path class="st1" d="M226.7,338.6l2.2,1.2l-0.6,1l-2.2-1.3v2.5H225v-2.5l-2.2,1.3l-0.6-1l2.2-1.2l-2.2-1.2l0.6-1l2.2,1.3v-2.5h1.1
		v2.5l2.2-1.3l0.6,1L226.7,338.6z"/>
	<path class="st1" d="M234.4,338.6l2.2,1.2l-0.6,1l-2.2-1.3v2.5h-1.1v-2.5l-2.2,1.3l-0.6-1l2.2-1.2l-2.2-1.2l0.6-1l2.2,1.3v-2.5h1.1
		v2.5l2.2-1.3l0.6,1L234.4,338.6z"/>
	<path class="st1" d="M242,338.6l2.2,1.2l-0.6,1l-2.2-1.3v2.5h-1.1v-2.5l-2.2,1.3l-0.6-1l2.2-1.2l-2.2-1.2l0.6-1l2.2,1.3v-2.5h1.1
		v2.5l2.2-1.3l0.6,1L242,338.6z"/>
	<path class="st1" d="M249.7,338.6l2.2,1.2l-0.6,1l-2.2-1.3v2.5H248v-2.5l-2.2,1.3l-0.6-1l2.2-1.2l-2.2-1.2l0.6-1l2.2,1.3v-2.5h1.1
		v2.5l2.2-1.3l0.6,1L249.7,338.6z"/>
	<path class="st4" d="M365.4,262.7l0.3-0.8c0.5,0.4,1.1,0.6,1.7,0.6c0.8,0,1.1-0.3,1.1-0.7c0-1.1-3.1-0.4-3.1-2.3
		c0-0.8,0.7-1.6,2.1-1.6c0.6,0,1.2,0.2,1.7,0.5l-0.3,0.8c-0.4-0.3-0.9-0.4-1.4-0.4c-0.8,0-1.1,0.3-1.1,0.7c0,1.1,3.1,0.4,3.1,2.3
		c0,0.8-0.7,1.5-2.1,1.5C366.7,263.4,366,263.2,365.4,262.7z"/>
	<path class="st4" d="M372.8,263.1c-0.3,0.2-0.6,0.3-0.9,0.3c-0.7,0.1-1.3-0.4-1.4-1.1c0-0.1,0-0.2,0-0.3v-1.9h-0.7v-0.7h0.7v-0.9
		h0.9v0.9h1.1v0.7h-1.1v1.9c0,0.4,0.2,0.6,0.5,0.6c0.2,0,0.4-0.1,0.5-0.2L372.8,263.1z"/>
	<path class="st4" d="M376.9,261v2.3H376v-0.5c-0.3,0.4-0.8,0.6-1.3,0.5c-0.9,0-1.5-0.5-1.5-1.2s0.5-1.2,1.6-1.2h1v-0.1
		c0-0.5-0.3-0.9-1-0.9c-0.4,0-0.9,0.1-1.2,0.4l-0.4-0.7c0.5-0.3,1.1-0.5,1.7-0.5C376.3,259.3,376.9,259.9,376.9,261z M376,262.1
		v-0.5h-1c-0.6,0-0.8,0.2-0.8,0.5s0.3,0.5,0.8,0.5C375.4,262.8,375.8,262.5,376,262.1L376,262.1z"/>
	<path class="st4" d="M380.5,263.1c-0.3,0.2-0.6,0.3-0.9,0.3c-0.7,0.1-1.3-0.4-1.4-1.1c0-0.1,0-0.2,0-0.3v-1.9h-0.6v-0.7h0.6v-0.9
		h0.9v0.9h1.1v0.7h-1.1v1.9c0,0.4,0.2,0.6,0.5,0.6c0.2,0,0.4-0.1,0.5-0.2L380.5,263.1z"/>
	<path class="st4" d="M384.8,261.6h-3.1c0.1,0.6,0.7,1.1,1.3,1c0.4,0,0.8-0.1,1.1-0.4l0.5,0.6c-0.4,0.4-1,0.7-1.6,0.6
		c-1.1,0.1-2.1-0.7-2.2-1.8c0-0.1,0-0.1,0-0.2c0-1.1,0.9-2,2-2c0,0,0,0,0.1,0c1.1,0,2,0.8,2,1.9
		C384.9,261.4,384.9,261.4,384.8,261.6C384.9,261.4,384.9,261.5,384.8,261.6z M381.7,261h2.3c0-0.6-0.5-1-1.1-1
		S381.7,260.4,381.7,261L381.7,261z"/>
	<path class="st4" d="M199.2,314.5c0,1.1-0.8,1.9-2.2,1.9h-1.2v1.5h-1v-5.1h2.1C198.4,312.7,199.2,313.4,199.2,314.5z M198.2,314.5
		c0-0.6-0.4-1-1.3-1h-1.1v2.1h1.1C197.8,315.6,198.3,315.2,198.2,314.5L198.2,314.5z"/>
	<path class="st4" d="M203.4,315.6v2.3h-0.9v-0.5c-0.3,0.4-0.8,0.6-1.3,0.5c-0.9,0-1.5-0.5-1.5-1.2s0.4-1.2,1.6-1.2h1v-0.1
		c0-0.5-0.3-0.9-1-0.9c-0.4,0-0.9,0.1-1.2,0.4l-0.4-0.7c0.5-0.3,1.1-0.5,1.7-0.5C202.7,313.9,203.4,314.4,203.4,315.6z M202.5,316.6
		v-0.5h-1c-0.6,0-0.8,0.2-0.8,0.5s0.3,0.5,0.8,0.5C201.9,317.3,202.3,317.1,202.5,316.6L202.5,316.6z"/>
	<path class="st4" d="M204.1,317.5l0.4-0.7c0.4,0.3,0.9,0.4,1.4,0.4c0.6,0,0.8-0.2,0.8-0.4c0-0.8-2.5,0-2.5-1.6
		c0-0.8,0.7-1.2,1.8-1.2c0.5,0,1,0.1,1.5,0.3l-0.4,0.7c-0.3-0.2-0.7-0.3-1.1-0.3c-0.6,0-0.8,0.2-0.8,0.5c0,0.8,2.4,0.1,2.4,1.6
		c0,0.7-0.7,1.2-1.8,1.2C205.2,317.9,204.6,317.8,204.1,317.5z"/>
	<path class="st4" d="M208,317.5l0.4-0.7c0.4,0.3,0.9,0.4,1.4,0.4c0.6,0,0.8-0.2,0.8-0.4c0-0.8-2.4,0-2.4-1.6c0-0.8,0.7-1.2,1.8-1.2
		c0.5,0,1,0.1,1.5,0.3l-0.4,0.7c-0.3-0.2-0.7-0.3-1.1-0.3c-0.6,0-0.8,0.2-0.8,0.5c0,0.8,2.4,0.1,2.4,1.6c0,0.7-0.7,1.2-1.8,1.2
		C209.1,317.9,208.5,317.8,208,317.5z"/>
	<path class="st4" d="M218.4,313.9l-1.5,4H216l-1-2.7l-1,2.7h-0.9l-1.5-4h0.9l1.1,2.9l1.1-2.9h0.8l1.1,3l1.1-3H218.4z"/>
	<path class="st4" d="M218.6,315.9c-0.1-1.2,0.8-2.2,2-2.2c1.2-0.1,2.2,0.8,2.2,2c0.1,1.2-0.8,2.2-2,2.2h-0.1
		c-1.1,0.1-2-0.8-2.1-1.9C218.6,316,218.6,315.9,218.6,315.9z M221.9,315.9c0-0.7-0.6-1.2-1.2-1.1c-0.7,0-1.2,0.6-1.1,1.2
		c0,0.6,0.5,1.1,1.2,1.1c0.6,0,1.2-0.5,1.2-1.1C221.9,316,221.9,315.9,221.9,315.9z"/>
	<path class="st4" d="M226,313.9v0.9h-0.2c-0.6,0-1.1,0.4-1.2,1c0,0.1,0,0.2,0,0.2v1.9h-0.9v-4h0.9v0.6
		C224.9,314,225.4,313.8,226,313.9z"/>
	<path class="st4" d="M230.6,312.4v5.5h-0.9v-0.5c-0.3,0.4-0.8,0.6-1.3,0.6c-1.1,0-2-0.9-2-2s0.9-2,2-2c0.5,0,1,0.2,1.3,0.5v-2
		L230.6,312.4z M229.7,315.9c0-0.7-0.6-1.2-1.2-1.1c-0.7,0-1.2,0.6-1.1,1.2c0,0.6,0.6,1.1,1.2,1.1
		C229.2,317.1,229.7,316.6,229.7,315.9C229.7,316,229.7,315.9,229.7,315.9L229.7,315.9z"/>
	<path class="st10" d="M498.4,351.9c0.5-0.1,1-0.1,1.6-0.3c1.5-0.5,2.6-1.5,3.3-2.9c0.4-1,0.6-2.1,0.5-3.2c0-1.2,0-2.5,0-4
		c0-2.8,0-6.1,0-9.6c0.1-0.9,0-1.8-0.3-2.6c-0.3-0.9-0.8-1.7-1.5-2.3c-0.7-0.6-1.6-1.1-2.5-1.2c-1-0.1-2-0.1-3-0.1H483h-30.7
		c-2.7,0-4.9,2-5.1,4.7c0,2.6,0,5.2,0,7.8v7.5c-0.1,1.2,0.2,2.4,0.8,3.4c0.6,1,1.5,1.7,2.6,2.1c1.1,0.3,2.2,0.4,3.4,0.3h9.9h11.7
		l16.9,0.1h4.6h1.2h0.4h-0.4h-1.2h-4.6l-16.9,0.1h-11.7H454c-0.6,0-1.1,0-1.7,0s-1.2-0.1-1.8-0.4c-1.2-0.4-2.2-1.3-2.9-2.3
		c-0.7-1.1-1-2.4-0.9-3.6c0-2.5,0-5,0-7.5c0-2.6,0-5.2,0-7.9c0.1-1.4,0.8-2.7,1.8-3.7s2.4-1.5,3.9-1.5H483h13.4c1,0,2.1,0,3.1,0.1
		c2,0.4,3.7,1.8,4.4,3.8c0.3,0.9,0.4,1.8,0.3,2.8c0,3.6,0,6.8,0,9.6c0,1.4,0,2.7,0,4c0.1,1.1-0.1,2.2-0.5,3.3
		c-0.7,1.4-1.9,2.5-3.4,2.9C499.6,351.7,499,351.8,498.4,351.9z"/>
	<path class="st10" d="M457.3,339.1c0-1.5,1.2-2.8,2.8-2.8c0.1,0,0.2,0,0.2,0c0.9,0,1.7,0.3,2.3,1l-0.8,0.8
		c-0.3-0.4-0.8-0.6-1.4-0.6c-1,0.1-1.7,0.9-1.6,1.9c0.1,0.9,0.8,1.5,1.6,1.6c0.5,0,1-0.2,1.4-0.6l0.8,0.8c-1.1,1.2-3,1.3-4.2,0.2
		C457.8,340.6,457.4,339.9,457.3,339.1L457.3,339.1z"/>
	<path class="st10" d="M462.9,339.7c-0.1-1.3,0.9-2.4,2.2-2.5c1.3-0.1,2.4,0.9,2.5,2.2c0.1,1.3-0.9,2.4-2.2,2.5h-0.1
		c-1.2,0.1-2.2-0.8-2.3-2C462.9,339.8,462.9,339.8,462.9,339.7z M466.2,339.7c0.1-0.6-0.4-1.1-1-1.2s-1.1,0.4-1.2,1
		c0,0.1,0,0.1,0,0.2c-0.1,0.6,0.4,1.1,1,1.2s1.1-0.4,1.2-1C466.2,339.9,466.2,339.8,466.2,339.7z"/>
	<path class="st10" d="M472.6,339.4v2.4h-1.2v-2.2c0-0.7-0.3-1-0.9-1s-1,0.4-1,1.1v2.1h-1.2v-4.2h1.2v0.5c0.4-0.4,0.9-0.6,1.4-0.5
		c0.9-0.1,1.7,0.6,1.7,1.6C472.6,339.2,472.6,339.3,472.6,339.4z"/>
	<path class="st10" d="M476.4,341.6c-0.3,0.2-0.6,0.3-1,0.3c-0.8,0.1-1.5-0.4-1.6-1.2c0-0.1,0-0.2,0-0.3v-1.7h-0.6v-0.9h0.6v-1h1.2
		v1h1v0.9h-1v1.7c0,0.3,0.1,0.5,0.4,0.5h0.1c0.2,0,0.3,0,0.5-0.1L476.4,341.6z"/>
	<path class="st10" d="M476.9,336.4c0-0.4,0.3-0.7,0.7-0.7c0,0,0,0,0.1,0c0.4,0,0.7,0.2,0.8,0.6c0,0,0,0,0,0.1
		c0,0.4-0.4,0.7-0.8,0.7C477.2,337,476.9,336.7,476.9,336.4L476.9,336.4z M477,337.6h1.2v4.2H477V337.6z"/>
	<path class="st10" d="M483.7,339.4v2.4h-1.2v-2.2c0-0.7-0.3-1-0.9-1s-1,0.4-1,1.1v2.1h-1.2v-4.2h1.2v0.5c0.4-0.4,0.9-0.6,1.4-0.5
		c0.9-0.1,1.7,0.6,1.8,1.5C483.7,339.2,483.7,339.3,483.7,339.4z"/>
	<path class="st10" d="M489,337.6v4.2h-1.1v-0.5c-0.3,0.4-0.8,0.6-1.3,0.6c-0.9,0.1-1.7-0.6-1.8-1.5c0-0.1,0-0.2,0-0.4v-2.4h1.2v2.2
		c0,0.7,0.3,1,0.9,1s1-0.4,1-1.1v-2.1L489,337.6z"/>
	<path class="st10" d="M494.2,340.1H491c0.1,0.5,0.6,0.9,1.2,0.8c0.4,0,0.8-0.1,1-0.4l0.6,0.7c-0.4,0.5-1.1,0.7-1.7,0.7
		c-1.2,0.1-2.3-0.8-2.4-1.9c0-0.1,0-0.1,0-0.2c0-1.2,0.9-2.1,2.1-2.2h0.1c1.1-0.1,2.1,0.8,2.2,2c0,0.1,0,0.1,0,0.2
		C494.2,339.8,494.2,340,494.2,340.1z M491,339.3h2.1c-0.1-0.5-0.5-0.9-1-0.9S491.1,338.8,491,339.3L491,339.3z"/>
	<path class="st10" d="M385,325.5h46.2c3,0,5.4,2.4,5.4,5.4v15.5c0,3-2.4,5.4-5.4,5.4H385c-3,0-5.4-2.4-5.4-5.4v-15.5
		C379.6,327.9,382,325.5,385,325.5z"/>
	<path class="st3" d="M398.8,341.3l0.4-1c0.5,0.4,1.2,0.6,1.8,0.6c0.8,0,1-0.3,1-0.6c0-1-3.2-0.3-3.2-2.4c0-0.9,0.8-1.7,2.3-1.7
		c0.7,0,1.3,0.2,1.9,0.5l-0.4,1c-0.5-0.3-1-0.4-1.5-0.4c-0.8,0-1,0.3-1,0.6c0,1,3.2,0.3,3.2,2.3c0,0.9-0.8,1.7-2.3,1.7
		C400.3,341.9,399.5,341.7,398.8,341.3z"/>
	<path class="st3" d="M407.9,339.4v2.4h-1.2v-0.5c-0.3,0.4-0.8,0.6-1.3,0.6c-1,0-1.6-0.5-1.6-1.3s0.5-1.3,1.8-1.3h1
		c0-0.5-0.3-0.8-1-0.8c-0.4,0-0.9,0.1-1.2,0.4L404,338c0.5-0.3,1.2-0.5,1.8-0.5C407.1,337.6,407.9,338.1,407.9,339.4z M406.6,340.5
		v-0.4h-0.8c-0.6,0-0.8,0.2-0.8,0.5s0.3,0.5,0.7,0.5C406.1,341.1,406.5,340.8,406.6,340.5z"/>
	<path class="st3" d="M413,337.6l-1.8,4.2H410l-1.8-4.2h1.3l1.2,2.9l1.2-2.9H413z"/>
	<path class="st3" d="M417.5,340.1h-3.2c0.1,0.5,0.6,0.9,1.2,0.8c0.4,0,0.8-0.1,1.1-0.4l0.6,0.7c-0.4,0.5-1.1,0.7-1.7,0.7
		c-1.2,0.1-2.3-0.7-2.4-1.9c0-0.1,0-0.1,0-0.2c0-1.2,0.9-2.1,2.1-2.2h0.1c1.1-0.1,2.1,0.8,2.2,2c0,0.1,0,0.1,0,0.2
		C417.5,339.8,417.5,340,417.5,340.1z M414.3,339.3h2.1c0-0.6-0.5-1-1-1S414.3,338.8,414.3,339.3z"/>
	<path class="st1" d="M204.5,230.9v1.8h-0.7v-1.8l-2.1-3.4h0.8l1.7,2.7l1.7-2.7h0.7L204.5,230.9z"/>
	<path class="st1" d="M206.4,230.7c0-1.1,0.9-2,2-2s2,0.9,2,2s-0.9,2-1.9,2C207.4,232.8,206.5,231.9,206.4,230.7
		C206.4,230.8,206.4,230.7,206.4,230.7z M209.8,230.7c0.1-0.7-0.5-1.4-1.2-1.4c-0.7-0.1-1.4,0.5-1.4,1.2c0,0.1,0,0.2,0,0.2
		c-0.1,0.7,0.5,1.4,1.2,1.4c0.7,0.1,1.4-0.5,1.4-1.2C209.8,230.9,209.8,230.8,209.8,230.7z"/>
	<path class="st1" d="M215.2,228.7v4h-0.7v-0.6c-0.3,0.4-0.8,0.7-1.3,0.6c-0.8,0.1-1.6-0.5-1.7-1.4c0-0.1,0-0.2,0-0.3v-2.3h0.7v2.2
		c0,0.8,0.4,1.2,1.1,1.2c0.6,0,1.2-0.4,1.2-1.1c0-0.1,0-0.2,0-0.2v-2L215.2,228.7z"/>
	<path class="st1" d="M218.7,228.7v0.7h-0.2c-0.6,0-1.2,0.4-1.2,1.1c0,0.1,0,0.2,0,0.2v2h-0.7v-4h0.7v0.7
		C217.6,228.9,218.1,228.7,218.7,228.7z"/>
	<path class="st1" d="M226.2,227.5v5.2h-0.6l-3.1-3.9v3.9h-0.8v-5.2h0.6l3.1,3.9v-3.9H226.2z"/>
	<path class="st1" d="M231.3,228.7v4h-0.6v-0.6c-0.3,0.4-0.8,0.7-1.3,0.6c-0.9,0.1-1.6-0.5-1.7-1.4c0-0.1,0-0.2,0-0.3v-2.3h0.7v2.2
		c0,0.8,0.4,1.2,1.1,1.2c0.6,0,1.2-0.4,1.2-1.1c0-0.1,0-0.1,0-0.2v-2L231.3,228.7z"/>
	<path class="st1" d="M239.2,230.4v2.3h-0.7v-2.2c0-0.8-0.4-1.1-1-1.1s-1.2,0.5-1.2,1.1c0,0.1,0,0.1,0,0.2v2h-0.7v-2.2
		c0-0.8-0.4-1.1-1-1.1s-1.2,0.5-1.2,1.1c0,0.1,0,0.1,0,0.2v2h-0.7v-3.9h0.7v0.6c0.3-0.4,0.8-0.6,1.3-0.6c0.6,0,1.1,0.2,1.4,0.7
		c0.4-0.5,0.9-0.8,1.5-0.7c0.8-0.1,1.6,0.5,1.6,1.4C239.2,230.2,239.2,230.3,239.2,230.4z"/>
	<path class="st1" d="M244.6,230.7c0,1.1-0.8,2-1.8,2c-0.1,0-0.1,0-0.2,0c-0.5,0-1.1-0.2-1.4-0.7v0.7h-0.7v-5.5h0.7v2.2
		c0.3-0.4,0.8-0.7,1.4-0.6c1.1,0,2,0.8,2,1.8C244.6,230.6,244.6,230.7,244.6,230.7z M243.9,230.7c0-0.7-0.7-1.3-1.4-1.3
		s-1.3,0.7-1.3,1.4s0.6,1.3,1.3,1.3s1.3-0.5,1.3-1.2C243.9,230.8,243.9,230.8,243.9,230.7z"/>
	<path class="st1" d="M249.2,231H246c0.1,0.7,0.7,1.2,1.4,1.1c0.4,0,0.8-0.2,1.1-0.5l0.4,0.5c-0.8,0.8-2.2,0.8-3,0
		c-0.4-0.4-0.6-0.9-0.6-1.4c0-1.1,0.8-2,1.9-2h0.1c1,0,1.9,0.8,2,1.8c0,0.1,0,0.1,0,0.2C249.2,230.8,249.2,230.9,249.2,231z
		 M246,230.4h2.5c-0.1-0.7-0.7-1.2-1.4-1.2C246.5,229.3,246,229.8,246,230.4z"/>
	<path class="st1" d="M252.3,228.7v0.7h-0.2c-0.6,0-1.2,0.4-1.2,1.1c0,0.1,0,0.2,0,0.2v2h-0.7v-4h0.7v0.7
		C251.2,228.9,251.7,228.7,252.3,228.7z"/>
	<rect x="159.7" y="54.6" class="st6" width="408" height="25"/>
	<path class="st3" d="M184,65.9v1.6h2.9v1.2H184V71h-1.4v-6.2h4.7V66L184,65.9z"/>
	<path class="st3" d="M187.8,67.8c-0.1-1.9,1.3-3.5,3.2-3.6s3.5,1.3,3.6,3.2s-1.3,3.5-3.2,3.6c-0.1,0-0.1,0-0.2,0
		c-1.8,0.1-3.3-1.3-3.4-3C187.8,67.9,187.8,67.9,187.8,67.8z M193.2,67.8c0-1.1-0.9-2-2-2s-2,0.9-2,2s0.9,2,2,2l0,0
		c1,0,1.9-0.8,2-1.8C193.2,67.9,193.2,67.9,193.2,67.8z"/>
	<path class="st3" d="M199.7,70.9l-1.2-1.7h-1.3v1.7h-1.5v-6.2h2.7c1.7,0,2.7,0.9,2.7,2.3c0.1,0.9-0.5,1.7-1.3,2l1.4,2L199.7,70.9z
		 M198.3,65.9h-1.2V68h1.2c0.9,0,1.3-0.4,1.3-1.1S199.2,65.9,198.3,65.9L198.3,65.9z"/>
	<path class="st3" d="M208,70.9v-3.8l-1.8,3.1h-0.6l-1.8-3v3.7h-1.4v-6.2h1.2l2.3,3.9l2.3-3.9h1.2V71L208,70.9z"/>
	<path class="st4" d="M567.5,55.2H160l0.2-0.2c-0.1,95.1-0.1,203.7-0.1,318.6l0,0l-0.3-0.3l407.6,0.3l-0.2,0.2
		C567.4,181.4,567.5,57,567.5,55.2c0,1.7,0,126.2,0.1,318.6v0.2h-0.2l-407.6-0.2h-0.3v-0.3c0.1-114.9,0.1-223.5,0.2-318.6v-0.2h0.2
		L567.5,55.2z"/>
</g>
</svg>
