<?xml version="1.0" encoding="utf-8"?>
<!-- Generator: Adobe Illustrator 24.0.0, SVG Export Plug-In . SVG Version: 6.00 Build 0)  -->
<svg version="1.1" id="Calque_6" xmlns="http://www.w3.org/2000/svg" xmlns:xlink="http://www.w3.org/1999/xlink" x="0px" y="0px"
	 viewBox="0 0 724.3 529.6" style="enable-background:new 0 0 724.3 529.6;" xml:space="preserve">
<style type="text/css">
	.st0{fill:#52C1DE;}
	.st1{fill:#FFFFFF;}
	.st2{fill:#263238;}
	.st3{fill:#92D205;}
	.st4{fill:#371450;}
	.st5{fill:#E6E6E6;}
	.st6{fill:#E0E0E0;}
	.st7{opacity:0.2;}
	.st8{opacity:0.1;}
	.st9{fill:#719905;}
	.st10{fill:#516D03;}
	.st11{fill:#6E9307;}
</style>
<title>img-dashboard</title>
<polygon class="st0" points="675,301.7 683.3,316.1 691.6,330.5 699.9,316.1 708.3,301.8 696.8,301.8 696.9,246.2 686.6,246.2 
	686.5,301.7 "/>
<polyline class="st0" points="724.3,263.6 717.5,263.6 717.5,230.5 711.4,230.5 711.3,263.6 704.5,263.6 709.4,272.2 714.4,280.8 
	719.3,272.2 724.3,263.6 "/>
<polygon class="st0" points="136.3,38.8 128,24.4 119.8,10 111.4,24.4 103.1,38.8 114.6,38.8 114.5,94.3 124.7,94.3 124.8,38.8 "/>
<polygon class="st0" points="103.6,75.3 98.6,66.6 93.6,57.9 88.6,66.6 83.5,75.3 90.4,75.3 90.4,108.9 96.6,108.9 96.7,75.3 "/>
<rect x="158.2" y="59.5" class="st1" width="421.7" height="328.2"/>
<path class="st2" d="M579.9,387.6c0-2.5-0.1-130.1-0.3-328.2l0.3,0.3l-421.7,0.1l0,0l0.4-0.4c0,118.3,0,230.2,0,328.2l-0.3-0.3
	L579.9,387.6l-421.7,0.3h-0.3v-0.3c0-98,0-209.9,0-328.2v-0.3h0.4L580,59.2h0.3v0.3C580,257.6,579.9,385.2,579.9,387.6z"/>
<path class="st2" d="M274.1,360.1c-0.2,0-0.4-35.7-0.4-79.7s0.2-79.7,0.4-79.7s0.4,35.7,0.4,79.7S274.4,360.1,274.1,360.1z"/>
<path class="st2" d="M457.2,360.1c-0.2,0-0.4-35.7-0.4-79.7s0.2-79.7,0.4-79.7s0.4,35.7,0.4,79.7S457.4,360.1,457.2,360.1z"/>
<path class="st2" d="M336.6,360.1c-0.2,0-0.4-45.6-0.4-101.8s0.2-101.9,0.4-101.9S337,202,337,258.2S336.8,360.1,336.6,360.1z"/>
<path class="st2" d="M210,360.1c-0.2,0-0.4-45.6-0.4-101.8s0.2-101.9,0.4-101.9s0.4,45.6,0.4,101.9S210.2,360.1,210,360.1z"/>
<path class="st2" d="M529,360.1c-0.2,0-0.4-45.6-0.4-101.8s0.2-101.9,0.4-101.9s0.4,45.6,0.4,101.9S529.2,360.1,529,360.1z"/>
<path class="st2" d="M391.4,360.1c-0.2,0-0.4-52.6-0.4-117.6s0.2-117.6,0.4-117.6s0.4,52.7,0.4,117.6S391.6,360.1,391.4,360.1z"/>
<path class="st2" d="M275.7,200.7c0,0.8-0.7,1.5-1.5,1.5c-0.8,0-1.5-0.7-1.5-1.5s0.7-1.5,1.5-1.5c0,0,0,0,0,0
	C275,199.2,275.7,199.9,275.7,200.7z"/>
<circle class="st2" cx="336.6" cy="156.4" r="1.5"/>
<path class="st2" d="M336.6,161.6c-2.9,0-5.3-2.4-5.3-5.3s2.4-5.3,5.3-5.3s5.3,2.4,5.3,5.3S339.5,161.6,336.6,161.6L336.6,161.6z
	 M336.6,151.5c-2.7,0-4.9,2.2-4.9,4.9c0,2.7,2.2,4.9,4.9,4.9c2.7,0,4.9-2.2,4.9-4.9v0C341.5,153.7,339.3,151.5,336.6,151.5z"/>
<circle class="st2" cx="391.4" cy="124.9" r="1.5"/>
<circle class="st2" cx="457.2" cy="202.2" r="1.5"/>
<circle class="st2" cx="529.1" cy="156.4" r="1.5"/>
<path class="st2" d="M211.5,157.9c0,0.8-0.7,1.5-1.5,1.5c-0.8,0-1.5-0.7-1.5-1.5c0-0.8,0.7-1.5,1.5-1.5
	C210.8,156.4,211.5,157,211.5,157.9C211.5,157.9,211.5,157.9,211.5,157.9z"/>
<path class="st3" d="M543.2,228.5c-0.4,0.2-0.8,0.3-1.2,0.4c-1.2,0.3-2.3,0.7-3.4,1.2c-4.2,2-7.9,4.8-10.9,8.3
	c-4.1,4.4-8.2,10.6-13.3,17.5c-2.7,3.7-5.7,7.2-9,10.5c-1.8,1.8-3.8,3.4-5.9,4.8c-2.2,1.5-4.6,2.8-7.1,3.9
	c-5.4,2.2-11.1,3.1-16.9,2.9c-3.1-0.1-6.1-0.5-9.1-1.1c-3.2-0.7-6.2-2-8.8-3.9c-2.7-2-5-4.4-6.9-7.2c-1.9-2.7-3.6-5.6-5.3-8.6
	c-3.3-5.9-6.7-11.9-10.6-17.9s-7.3-12.5-11.3-18.8s-8.3-12.6-13.8-17.8c-2.8-2.6-5.9-4.9-9.3-6.6c-3.4-1.8-7.2-2.9-11-3.2
	c-7.9-0.8-15.9,0.9-22.9,4.9c-7,4-12.7,9.9-17.4,16.2c-4.6,6.4-8.7,13.1-12.4,20c-3.6,6.7-7.6,13.3-12,19.6
	c-4.2,6.1-9.1,11.7-14.6,16.6c-1.4,1.2-2.8,2.4-4.2,3.4c-1.4,1.1-2.9,2-4.5,2.9c-3,1.8-6.3,3.1-9.7,4c-1.7,0.5-3.4,0.8-5.1,1
	c-0.8,0.1-1.7,0.2-2.5,0.1c-0.9,0-1.7,0.1-2.5,0c-3.3-0.2-6.6-0.8-9.7-1.8c-5.9-2.1-11.4-5-16.4-8.6c-4.9-3.4-9.4-6.8-13.7-10
	c-4-3.1-8.4-5.7-13-7.9c-4.1-1.9-8.5-3.1-13-3.7c-3.9-0.5-7.8-0.2-11.6,0.8c-0.9,0.2-1.7,0.5-2.5,0.8c-0.8,0.3-1.6,0.6-2.4,0.9
	c-1.4,0.7-2.8,1.4-4.1,2.3c-2.2,1.5-4.3,3.1-6.2,5l-2.2,2.4c-0.6,0.6-1.2,1.3-1.7,2c-0.9,1.3-1.7,2.2-2.2,2.9
	c-0.2,0.3-0.5,0.7-0.8,0.9c0.2-0.4,0.4-0.7,0.6-1.1c0.5-0.7,1.1-1.7,2-3c0.5-0.7,1.1-1.4,1.7-2.1l2.1-2.5c1.9-1.9,4-3.7,6.2-5.2
	c1.3-0.9,2.7-1.7,4.2-2.4c0.8-0.4,1.6-0.7,2.4-1c0.8-0.4,1.7-0.6,2.6-0.9c3.9-1.1,8-1.4,12-1c4.6,0.5,9.1,1.7,13.4,3.6
	c4.7,2.2,9.2,4.8,13.4,7.9c4.4,3.1,8.9,6.6,13.8,9.9c4.9,3.5,10.3,6.3,16.1,8.3c3,1,6.1,1.5,9.3,1.7c0.8,0,1.6,0,2.4,0
	c0.8,0,1.6,0,2.4-0.1c1.6-0.2,3.2-0.5,4.8-0.9c6.4-1.6,12.3-5.3,17.6-10c5.3-4.9,10.1-10.4,14.2-16.3c4.3-6.3,8.3-12.8,11.9-19.5
	c3.7-7,7.9-13.8,12.6-20.3c4.8-6.5,10.7-12.6,18-16.8c3.7-2.1,7.6-3.6,11.7-4.4c4.1-0.9,8.2-1.1,12.4-0.7c4.1,0.4,8.1,1.6,11.8,3.5
	c3.6,1.9,6.9,4.2,9.8,7c5.7,5.5,10.1,11.9,14.1,18.3s7.5,12.8,11.2,18.8s7.3,12.1,10.5,18c3.2,5.9,6.5,11.7,11.5,15.3
	c2.4,1.8,5.2,3,8.2,3.6c2.9,0.7,5.8,1.1,8.8,1.2c5.5,0.3,11.1-0.6,16.3-2.6c2.4-1,4.7-2.2,6.8-3.6c2-1.4,3.9-3,5.7-4.6
	c3.3-3.2,6.3-6.6,9-10.2c5.2-6.8,9.4-12.9,13.6-17.3c3.1-3.5,7-6.3,11.3-8.1c1.1-0.4,2.3-0.8,3.5-1
	C542.4,228.5,542.8,228.5,543.2,228.5z"/>
<rect x="208.5" y="96.3" class="st4" width="73.5" height="4.1"/>
<rect x="208.5" y="105.9" class="st4" width="36.3" height="4.1"/>
<path class="st3" d="M162.2,32.7h413.2c2.5,0,4.5,2,4.5,4.5c0,0,0,0,0,0v22.3l0,0H157.7l0,0V37.2C157.7,34.7,159.7,32.7,162.2,32.7z
	"/>
<path class="st1" d="M179.6,46.6c0,1.6-1.3,2.9-2.9,2.9c-1.6,0-2.9-1.3-2.9-2.9c0-1.6,1.3-2.9,2.9-2.9S179.6,45,179.6,46.6
	C179.6,46.6,179.6,46.6,179.6,46.6z"/>
<path class="st1" d="M192.1,46.6c0,1.6-1.3,2.9-2.9,2.9c-1.6,0-2.9-1.3-2.9-2.9c0-1.6,1.3-2.9,2.9-2.9S192.1,45,192.1,46.6
	C192.1,46.6,192.1,46.6,192.1,46.6z"/>
<path class="st1" d="M204.7,46.6c0,1.6-1.3,2.9-2.9,2.9c-1.6,0-2.9-1.3-2.9-2.9c0-1.6,1.3-2.9,2.9-2.9S204.7,45,204.7,46.6
	C204.7,46.6,204.7,46.6,204.7,46.6z"/>
<path class="st5" d="M0,252.6h164.3c2.4,0,4.4,2,4.4,4.4c0,0,0,0,0,0v39.7c0,2.4-2,4.4-4.4,4.4c0,0,0,0,0,0H0"/>
<path class="st1" d="M32.1,284.9c-3.6,4.5-10.3,5.3-14.8,1.6c-4.5-3.6-5.3-10.3-1.6-14.8c3.6-4.5,10.3-5.3,14.8-1.6c0,0,0,0,0,0
	C35,273.7,35.8,280.4,32.1,284.9C32.1,284.9,32.1,284.9,32.1,284.9z"/>
<path class="st2" d="M29.8,274.8c0.1,0.1-2.4,2.9-5.7,6.1l-1.4,1.3l-0.2,0.2l-0.2-0.2c-2.6-2.6-4.4-4.6-4.3-4.8s2.1,1.7,4.8,4.3
	h-0.5c0.5-0.4,0.9-0.9,1.4-1.4C26.8,277.1,29.6,274.6,29.8,274.8z"/>
<path class="st2" d="M151.8,273.3c0,0.2-22,0.4-49.2,0.4s-49.2-0.2-49.2-0.4s22-0.4,49.2-0.4S151.8,273.1,151.8,273.3z"/>
<path class="st2" d="M111.5,282.9c0,0.2-12.7,0.4-28.4,0.4s-28.4-0.2-28.4-0.4s12.7-0.4,28.4-0.4S111.5,282.7,111.5,282.9z"/>
<path class="st6" d="M49.3,135.6h165.5c1.4,0,2.6,1.2,2.6,2.6v65.7c0,1.4-1.2,2.6-2.6,2.6H49.3c-1.4,0-2.6-1.2-2.6-2.6v-65.7
	C46.7,136.8,47.9,135.6,49.3,135.6z"/>
<path class="st3" d="M82.1,158c0,4.4-3.6,8-8,8s-8-3.6-8-8s3.6-8,8-8S82.1,153.6,82.1,158z"/>
<rect x="90.1" y="152.5" class="st3" width="55.5" height="3.1"/>
<rect x="90.1" y="159.5" class="st1" width="107.9" height="3.1"/>
<path class="st3" d="M82.1,182.5c0,4.4-3.6,8-8,8s-8-3.6-8-8s3.6-8,8-8S82.1,178,82.1,182.5z"/>
<rect x="90.1" y="177" class="st3" width="28.3" height="3.1"/>
<rect x="90.1" y="184" class="st1" width="107.9" height="3.1"/>
<path class="st6" d="M82.2,322h209.4c3,0,5.4,2.4,5.4,5.4v82.8c0,3-2.4,5.4-5.4,5.4H82.2c-3,0-5.4-2.4-5.4-5.4v-82.8
	C76.8,324.5,79.2,322,82.2,322z"/>
<path class="st3" d="M117.1,367.3l-0.1-19c-5.8,0.1-11.3,2.3-15.7,6.1c-5.6,4.9-8.5,12.3-7.6,19.7c0.1,0.9,0.2,1.8,0.4,2.8
	c0,0,0,0,0,0.1l0,0l22.9-5.1V367.3z"/>
<path class="st3" d="M140.6,361.4c-3.4-7.3-10.4-12.2-18.5-12.9l-0.7-0.1H121c-0.5,0-0.9,0-1.4,0h-0.1l0.1,19v4.5l22.9,5l0,0
	c0.4-1.6,0.5-3.3,0.5-4.9C143,368.3,142.2,364.7,140.6,361.4z"/>
<g class="st7">
	<path d="M140.6,361.4c-3.4-7.3-10.4-12.2-18.5-12.9l-0.7-0.1H121c-0.5,0-0.9,0-1.4,0h-0.1l0.1,19v4.5l22.9,5l0,0
		c0.4-1.6,0.5-3.3,0.5-4.9C143,368.3,142.2,364.7,140.6,361.4z"/>
</g>
<path class="st3" d="M118.3,374.1l-22.9,5.1c2.9,12.6,15.4,20.6,28.1,17.7c8.9-2,15.8-9,17.7-17.9L118.3,374.1"/>
<g class="st8">
	<path class="st9" d="M118.3,374.1l-22.9,5.1c2.9,12.6,15.4,20.6,28.1,17.7c8.9-2,15.8-9,17.7-17.9L118.3,374.1"/>
</g>
<rect x="158.4" y="354" class="st1" width="116.3" height="5.3"/>
<rect x="158.4" y="367.9" class="st1" width="116.3" height="5.3"/>
<rect x="158.4" y="383.2" class="st1" width="62.8" height="5.3"/>
<path class="st5" d="M341.9,255.6h212.9c4.6,0,8.4,3.8,8.4,8.4v204.3c0,4.6-3.8,8.4-8.4,8.4H341.9c-4.6,0-8.4-3.8-8.4-8.4V264.1
	C333.5,259.4,337.3,255.6,341.9,255.6z"/>
<rect x="349.6" y="407.1" class="st2" width="7.5" height="2.2"/>
<rect x="366.6" y="418.8" class="st2" width="9.6" height="2.2"/>
<rect x="400.2" y="418.8" class="st2" width="9.6" height="2.2"/>
<rect x="433.8" y="418.8" class="st2" width="9.6" height="2.2"/>
<rect x="467.3" y="418.8" class="st2" width="9.6" height="2.2"/>
<rect x="500.9" y="418.8" class="st2" width="9.6" height="2.2"/>
<rect x="534.4" y="418.8" class="st2" width="9.6" height="2.2"/>
<rect x="349.6" y="378.1" class="st2" width="7.5" height="2.2"/>
<rect x="349.6" y="323.5" class="st2" width="7.5" height="2.2"/>
<rect x="349.6" y="296.1" class="st2" width="7.5" height="2.2"/>
<rect x="350" y="350.8" class="st2" width="7.5" height="2.2"/>
<path class="st2" d="M543.8,409.3c0,0-0.3,0-0.8,0h-2.4l-9.1,0.1l-33.5,0.1l-110.7,0.1h-26.6v-0.4c0-37,0.1-69.6,0.1-92.9
	c0-11.6,0.1-21,0.1-27.4c0-3.2,0-5.7,0.1-7.4c0-0.8,0-1.5,0-1.9s0-0.6,0-0.6s0,0.2,0,0.6s0,1.1,0,1.9c0,1.7,0,4.2,0.1,7.4
	c0,6.5,0.1,15.8,0.1,27.4c0,23.3,0.1,55.9,0.1,92.9l-0.4-0.4h26.2l110.7,0.1l33.5,0.1l9.1,0.1h2.4L543.8,409.3z"/>
<path class="st2" d="M545.9,351.9c0,0.2-39.8,0.4-88.8,0.4s-88.8-0.2-88.8-0.4s39.8-0.3,88.8-0.3S545.9,351.7,545.9,351.9z"/>
<path class="st2" d="M545.9,324.6c0,0.2-39.8,0.4-88.8,0.4s-88.8-0.2-88.8-0.4s39.8-0.4,88.8-0.4S545.9,324.4,545.9,324.6z"/>
<path class="st2" d="M545.9,297.2c0,0.2-39.8,0.4-88.8,0.4s-88.8-0.2-88.8-0.4s39.8-0.4,88.8-0.4S545.9,297,545.9,297.2z"/>
<path class="st2" d="M545.9,379.2c0,0.2-39.8,0.4-88.8,0.4s-88.8-0.2-88.8-0.4s39.8-0.4,88.8-0.4S545.9,379,545.9,379.2z"/>
<path class="st3" d="M370.2,403.4v-24.2l15.1-23.4l10.2,7.8l21-32.7l12.4,8.7l17.3-30.1l14,11.4l21-40l22.6,44.7l18.3-22.4l21.6-6.2
	v106.3H370.2z"/>
<path class="st2" d="M545.9,288.6c-0.1,0-0.3,0-0.4,0h-1.1l-4.4,0l-16.5,0.1l0.2-0.1l-17.7,23.2l-0.1,0.1h-0.1l-44.4,0.1l0.3-0.2
	l-18.7,31.1l-18.3,30.5l-0.3,0.5l-0.3-0.4l-24-33.1h0.5l-21.9,34.2l-6.1,9.5l-1.6,2.5c-0.4,0.5-0.6,0.8-0.6,0.8s0.2-0.3,0.5-0.9
	l1.5-2.5l6-9.5L400,340l0.2-0.4l0.3,0.4l24.1,33H424l18.3-30.4l18.7-31.1l0.1-0.2h0.2l44.4,0.1l-0.2,0.1c7-9,13-16.8,17.9-23.1
	l0.1-0.1h0.1l16.5,0.1l4.4,0h1.1L545.9,288.6z"/>
<path class="st2" d="M407.5,348c0,0.9-0.7,1.7-1.6,1.8c-0.9,0-1.7-0.7-1.8-1.6c0-0.9,0.7-1.7,1.6-1.8c0,0,0,0,0.1,0
	C406.7,346.3,407.5,347,407.5,348C407.5,348,407.5,348,407.5,348z"/>
<path class="st2" d="M458.7,318.9c0,0.9-0.7,1.7-1.6,1.8c-0.9,0-1.7-0.7-1.8-1.6c0-0.9,0.7-1.7,1.6-1.8c0,0,0,0,0.1,0
	C457.9,317.2,458.7,317.9,458.7,318.9C458.7,318.9,458.7,318.9,458.7,318.9z"/>
<path class="st2" d="M498.5,311.7c0,0.9-0.7,1.7-1.6,1.8c-0.9,0-1.7-0.7-1.8-1.6c0-0.9,0.7-1.7,1.6-1.8c0,0,0,0,0.1,0
	C497.7,310,498.5,310.8,498.5,311.7z"/>
<ellipse class="st1" cx="377.6" cy="447.8" rx="11" ry="10.6"/>
<rect x="405" y="440.7" class="st1" width="129.4" height="4"/>
<rect x="405" y="450.6" class="st1" width="53.7" height="4"/>
<path class="st5" d="M494.2,83.9h142.6c2.7,0,4.9,2.2,4.9,4.9v116.6c0,2.7-2.2,4.9-4.9,4.9H494.2c-2.7,0-4.9-2.2-4.9-4.9V88.8
	C489.3,86.1,491.5,83.9,494.2,83.9z"/>
<rect x="515.9" y="134.5" class="st3" width="8.2" height="62.1"/>
<rect x="553.3" y="129.5" class="st3" width="8.2" height="67.1"/>
<rect x="592" y="121" class="st3" width="8.2" height="75.6"/>
<rect x="573.8" y="166.4" class="st3" width="8.2" height="30.2"/>
<g class="st7">
	<rect x="573.8" y="166.4" class="st10" width="8.2" height="30.2"/>
</g>
<rect x="525.5" y="127.9" class="st3" width="8.2" height="68.7"/>
<g class="st8">
	<rect x="525.5" y="127.9" class="st11" width="8.2" height="68.7"/>
</g>
<rect x="563.5" y="113.5" class="st3" width="8.2" height="83.1"/>
<g class="st8">
	<rect x="563.5" y="113.5" class="st11" width="8.2" height="83.1"/>
</g>
<rect x="613.2" y="113.5" class="st3" width="8.2" height="83.1"/>
<g class="st7">
	<rect x="613.2" y="113.5" class="st10" width="8.2" height="83.1"/>
</g>
<rect x="602.4" y="97.1" class="st3" width="8.2" height="99.5"/>
<g class="st8">
	<rect x="602.4" y="97.1" class="st11" width="8.2" height="99.5"/>
</g>
<rect x="535.5" y="153" class="st3" width="8.2" height="43.6"/>
<g class="st7">
	<rect x="535.5" y="153" class="st10" width="8.2" height="43.6"/>
</g>
<path class="st2" d="M633.1,200.4c0,0.2-29.3,0.4-65.5,0.4s-65.5-0.2-65.5-0.4s29.3-0.4,65.5-0.4S633.1,200.2,633.1,200.4z"/>
<rect x="498.3" y="185.5" class="st2" width="5" height="1.6"/>
<rect x="498.3" y="163.5" class="st2" width="5" height="1.6"/>
<rect x="498.3" y="121.9" class="st2" width="5" height="1.7"/>
<rect x="498.3" y="101" class="st2" width="5" height="1.7"/>
<rect x="498.5" y="142.7" class="st2" width="5" height="1.6"/>
<path class="st3" d="M318.1,73.6h147.6c2.4,0,4.4,2,4.4,4.4v35c0,2.4-2,4.4-4.4,4.4H318.1c-2.4,0-4.4-2-4.4-4.4V78
	C313.7,75.6,315.7,73.6,318.1,73.6z"/>
<path class="st1" d="M346.6,102.8c-3.3,4.1-9.3,4.8-13.4,1.5s-4.8-9.3-1.5-13.4c3.3-4.1,9.3-4.8,13.4-1.5
	C349.3,92.7,349.9,98.7,346.6,102.8z"/>
<path class="st2" d="M339.2,106.4c-5.3,0-9.5-4.3-9.5-9.6c0-5.3,4.3-9.5,9.6-9.5c5.3,0,9.5,4.3,9.5,9.6c0,2.2-0.7,4.2-2.1,5.9l0,0
	C344.8,105.1,342.1,106.4,339.2,106.4z M339.2,87.4c-0.4,0-0.7,0-1,0.1c-5.2,0.6-9,5.3-8.4,10.5c0.6,5.2,5.3,9,10.5,8.4
	c2.5-0.3,4.8-1.5,6.3-3.5l0,0c3.3-4.1,2.6-10.1-1.5-13.4C343.4,88.1,341.3,87.4,339.2,87.4z"/>
<path class="st3" d="M344.6,93.6c0.1,0.1-2.2,2.6-5.1,5.5c-0.4,0.4-0.9,0.8-1.3,1.2l-0.3,0.2l-0.2-0.2c-2.3-2.4-4-4.2-3.8-4.3
	s2,1.5,4.3,3.8h-0.5l1.3-1.2C341.9,95.7,344.4,93.5,344.6,93.6z"/>
<path class="st1" d="M454.8,92.3c0,0.2-19.9,0.4-44.4,0.4S366,92.5,366,92.3s19.9-0.4,44.4-0.4S454.8,92.1,454.8,92.3z"/>
<path class="st1" d="M418.4,101c0,0.2-11.5,0.4-25.7,0.4S367,101.2,367,101s11.5-0.3,25.7-0.3S418.4,100.8,418.4,101z"/>
</svg>
